<?xml version="1.0" encoding="UTF-8"?>
<!-- Generator: Adobe Illustrator 16.0.0, SVG Export Plug-In . SVG Version: 6.00 Build 0)  -->
<!DOCTYPE svg PUBLIC "-//W3C//DTD SVG 1.1//EN" "http://www.w3.org/Graphics/SVG/1.1/DTD/svg11.dtd">
<svg version="1.1" id="Layer_1" xmlns="http://www.w3.org/2000/svg" xmlns:xlink="http://www.w3.org/1999/xlink" x="0px" y="0px" width="90.5px" height="36.5px" viewBox="0 0 90.5 36.5" enable-background="new 0 0 90.5 36.5" xml:space="preserve">
<g>
	<g>
		<path fill="#7A7A7A" d="M13.918,15.785c0,1.354-0.884,2.041-2.656,2.041H4.595c-1.77,0-2.65-0.687-2.65-2.041V3.486    c0-1.387,0.881-2.073,2.65-2.073h6.667c1.772,0,2.656,0.687,2.656,2.073V8.34H8.582V5.521H7.284v8.223h1.298V9.858h5.337    L13.918,15.785"/>
		<path fill="#7A7A7A" d="M27.264,15.785c0,1.354-0.886,2.041-2.657,2.041h-6.669c-1.768,0-2.653-0.687-2.653-2.041V3.486    c0-1.387,0.886-2.073,2.653-2.073h6.669c1.771,0,2.657,0.687,2.657,2.073V15.785 M21.921,5.521h-1.297v8.223h1.297V5.521z"/>
		<path fill="#7A7A7A" d="M37.979,22.936c-0.601,0-1.187-0.183-1.746-0.547c-0.624-0.434-0.939-0.927-0.939-1.49v-3.072H35.26V5.521    h-1.293v10.564h-5.339V1.413h5.339v1.036c0.886-0.69,2.212-1.036,3.986-1.036c1.763,0,2.651,0.687,2.651,2.073v15.374h6.699v4.076    H37.979"/>
		<polygon fill="#7A7A7A" points="47.307,7.561 51.034,7.561 51.034,11.674 47.307,11.674 47.307,13.744 51.034,13.744     51.034,17.826 41.967,17.826 41.967,1.413 51.034,1.413 51.034,5.521 47.307,5.521   "/>
		<polygon fill="#7A7A7A" points="62.921,17.826 54.926,17.826 52.271,1.413 57.58,1.413 58.941,10.635 60.268,1.413 65.609,1.413       "/>
		<path fill="#7A7A7A" d="M68.761,17.826c-1.764,0-2.651-0.687-2.651-2.041V9.6c0-1.335,0.889-2.017,2.651-2.039h3.983v-2.04h-1.292    v1.005h-5.345v-3.04c0-1.387,0.89-2.073,2.652-2.073h6.674c1.767,0,2.65,0.687,2.65,2.073v14.34H68.761 M72.745,11.674h-1.292    v2.069h1.292V11.674z"/>
		<polygon fill="#7A7A7A" points="79.452,17.826 79.452,1.413 84.796,1.413 84.796,13.744 88.254,13.744 88.254,17.826   "/>
		<path fill="#7A7A7A" d="M18.054,25.822v2.658c0,0.322-0.048,0.543-0.135,0.662c-0.089,0.121-0.239,0.18-0.462,0.18h-0.068v-0.313    c0.126,0,0.208-0.021,0.255-0.069c0.041-0.049,0.068-0.182,0.068-0.41v-2.707H18.054L18.054,25.822z M5.461,27.15    c0-0.394,0.135-0.719,0.404-0.998c0.269-0.273,0.58-0.418,0.943-0.418c0.391,0,0.71,0.138,0.986,0.41    c0.271,0.269,0.404,0.594,0.404,0.969c0,0.396-0.134,0.73-0.404,1.012c-0.258,0.281-0.579,0.419-0.957,0.419    c-0.385,0-0.704-0.138-0.973-0.405C5.596,27.859,5.461,27.533,5.461,27.15 M16.958,27.251h-2.393    c0.016,0.293,0.12,0.522,0.312,0.701c0.188,0.179,0.421,0.265,0.702,0.265c0.203,0,0.381-0.049,0.533-0.152    c0.161-0.102,0.286-0.248,0.377-0.435h0.384c-0.123,0.3-0.288,0.519-0.512,0.679c-0.223,0.157-0.479,0.234-0.771,0.234    c-0.385,0-0.713-0.139-0.978-0.412c-0.27-0.271-0.398-0.602-0.398-0.986c0-0.406,0.125-0.74,0.387-1    c0.265-0.263,0.597-0.397,1.006-0.397c0.396,0,0.726,0.14,0.979,0.409c0.246,0.277,0.373,0.631,0.373,1.072L16.958,27.251    L16.958,27.251z M18.819,27.15c0-0.394,0.132-0.719,0.399-0.998c0.266-0.273,0.581-0.418,0.947-0.418    c0.382,0,0.709,0.138,0.981,0.41c0.273,0.269,0.407,0.594,0.407,0.969c0,0.396-0.134,0.73-0.402,1.012    c-0.261,0.281-0.585,0.419-0.962,0.419c-0.388,0-0.706-0.138-0.972-0.405C18.951,27.859,18.819,27.533,18.819,27.15     M34.754,26.633c-0.103-0.189-0.228-0.332-0.378-0.429c-0.151-0.093-0.33-0.14-0.536-0.14c-0.278,0-0.512,0.106-0.698,0.311    c-0.193,0.214-0.286,0.467-0.286,0.773c0,0.306,0.093,0.555,0.286,0.765c0.195,0.2,0.431,0.304,0.709,0.304    c0.201,0,0.387-0.049,0.544-0.152c0.158-0.098,0.276-0.237,0.359-0.422h0.376c-0.1,0.287-0.27,0.506-0.482,0.666    c-0.224,0.157-0.48,0.234-0.78,0.234c-0.385,0-0.703-0.139-0.973-0.406c-0.259-0.273-0.396-0.598-0.396-0.982    c0-0.396,0.137-0.723,0.402-0.998c0.265-0.27,0.59-0.409,0.976-0.409c0.285,0,0.545,0.08,0.76,0.229    c0.224,0.16,0.383,0.377,0.493,0.656H34.754z M37.099,27.15c0-0.394,0.132-0.719,0.396-0.998c0.269-0.273,0.582-0.418,0.946-0.418    c0.39,0,0.717,0.138,0.984,0.41c0.268,0.269,0.403,0.594,0.403,0.969c0,0.396-0.136,0.73-0.399,1.012    c-0.259,0.281-0.581,0.419-0.964,0.419c-0.382,0-0.702-0.138-0.971-0.405C37.231,27.859,37.099,27.533,37.099,27.15     M57.695,27.251h-2.391c0.02,0.293,0.125,0.522,0.316,0.701c0.189,0.179,0.418,0.265,0.701,0.265c0.199,0,0.38-0.049,0.537-0.152    c0.156-0.102,0.279-0.248,0.371-0.435h0.386c-0.127,0.3-0.292,0.519-0.517,0.679c-0.226,0.157-0.478,0.234-0.77,0.234    c-0.382,0-0.71-0.139-0.979-0.412c-0.265-0.271-0.396-0.602-0.396-0.986c0-0.406,0.124-0.74,0.389-1    c0.26-0.263,0.596-0.397,1.002-0.397c0.402,0,0.723,0.14,0.979,0.409c0.249,0.277,0.369,0.631,0.369,1.072v0.022H57.695z     M80.633,26.633c-0.104-0.189-0.23-0.332-0.383-0.429c-0.146-0.093-0.332-0.14-0.54-0.14c-0.274,0-0.508,0.106-0.688,0.311    c-0.198,0.214-0.287,0.467-0.287,0.773c0,0.306,0.089,0.555,0.287,0.765c0.187,0.2,0.431,0.304,0.711,0.304    c0.201,0,0.383-0.049,0.541-0.152c0.156-0.098,0.277-0.237,0.359-0.422h0.374c-0.106,0.287-0.266,0.506-0.483,0.666    c-0.224,0.157-0.479,0.234-0.779,0.234c-0.383,0-0.705-0.139-0.973-0.406c-0.262-0.273-0.397-0.598-0.397-0.982    c0-0.396,0.137-0.723,0.401-0.998c0.268-0.27,0.596-0.409,0.979-0.409c0.282,0,0.544,0.08,0.76,0.229    c0.221,0.16,0.387,0.377,0.493,0.656H80.633z M82.973,27.15c0-0.394,0.133-0.719,0.397-0.998c0.271-0.273,0.585-0.418,0.948-0.418    c0.385,0,0.711,0.138,0.981,0.41c0.271,0.269,0.408,0.594,0.408,0.969c0,0.396-0.138,0.73-0.405,1.012    c-0.26,0.281-0.576,0.419-0.957,0.419c-0.389,0-0.705-0.138-0.977-0.405C83.105,27.859,82.973,27.533,82.973,27.15 M4.39,25.872    c-0.16-0.22-0.339-0.382-0.533-0.485c-0.191-0.104-0.409-0.154-0.663-0.154c-0.391,0-0.724,0.145-1.001,0.438    c-0.279,0.288-0.418,0.632-0.418,1.031c0,0.423,0.139,0.78,0.418,1.071c0.277,0.291,0.607,0.436,1.001,0.436    c0.241,0,0.464-0.05,0.655-0.154c0.199-0.095,0.371-0.248,0.514-0.451h0.409c-0.159,0.301-0.374,0.528-0.646,0.688    c-0.272,0.166-0.572,0.249-0.908,0.249c-0.513,0-0.942-0.179-1.286-0.53c-0.349-0.348-0.52-0.787-0.52-1.313    c0-0.247,0.042-0.48,0.138-0.696c0.094-0.224,0.23-0.418,0.405-0.599c0.172-0.17,0.36-0.293,0.569-0.381    c0.205-0.086,0.433-0.125,0.675-0.125c0.349,0,0.658,0.082,0.94,0.256c0.275,0.164,0.501,0.406,0.665,0.721L4.39,25.872    L4.39,25.872z M11.905,27.635h0.349v0.014c0,0.162,0.052,0.299,0.146,0.404c0.095,0.111,0.214,0.164,0.35,0.164    c0.135,0,0.244-0.035,0.336-0.119c0.086-0.089,0.132-0.193,0.132-0.318c0-0.129-0.035-0.231-0.107-0.305    c-0.068-0.08-0.199-0.152-0.375-0.221c-0.296-0.102-0.489-0.209-0.584-0.316c-0.082-0.109-0.131-0.263-0.131-0.44    c0-0.207,0.076-0.386,0.229-0.532c0.15-0.138,0.331-0.214,0.54-0.214c0.227,0,0.409,0.063,0.543,0.194    c0.136,0.127,0.203,0.308,0.214,0.537h-0.364c-0.011-0.123-0.05-0.225-0.119-0.291c-0.073-0.068-0.17-0.104-0.291-0.104    c-0.114,0-0.211,0.043-0.278,0.112c-0.079,0.075-0.106,0.171-0.106,0.276c0,0.08,0.013,0.144,0.039,0.198    c0.028,0.052,0.085,0.103,0.154,0.147c0.063,0.037,0.159,0.078,0.277,0.115c0.123,0.037,0.211,0.063,0.246,0.084    c0.167,0.065,0.289,0.16,0.368,0.281c0.076,0.114,0.119,0.266,0.119,0.445c0,0.227-0.081,0.415-0.235,0.568    c-0.164,0.147-0.362,0.222-0.612,0.222c-0.245,0-0.447-0.083-0.601-0.249C11.994,28.131,11.917,27.914,11.905,27.635     M31.401,28.051c-0.104,0.151-0.249,0.273-0.423,0.357c-0.184,0.088-0.374,0.131-0.589,0.131c-0.389,0-0.713-0.135-0.967-0.398    c-0.265-0.271-0.395-0.594-0.395-0.982c0-0.4,0.133-0.727,0.397-0.997c0.266-0.265,0.599-0.397,0.996-0.397    c0.205,0,0.391,0.036,0.558,0.123c0.173,0.078,0.312,0.201,0.422,0.358v-0.423h0.334v2.648H31.4L31.401,28.051L31.401,28.051z     M45.95,28.051c-0.107,0.151-0.252,0.273-0.429,0.357c-0.186,0.088-0.378,0.131-0.589,0.131c-0.389,0-0.711-0.135-0.968-0.398    c-0.266-0.271-0.395-0.594-0.395-0.982c0-0.4,0.14-0.727,0.4-0.997c0.266-0.265,0.594-0.397,0.99-0.397    c0.207,0,0.396,0.036,0.565,0.123c0.172,0.078,0.311,0.201,0.424,0.358v-0.423h0.329v2.648h-0.329v-0.42H45.95z M53.859,26.243    v-0.597v-0.688H54.2v3.513h-0.341v-0.398c-0.119,0.146-0.271,0.263-0.444,0.344c-0.176,0.085-0.366,0.124-0.562,0.124    c-0.385,0-0.701-0.134-0.965-0.401c-0.263-0.275-0.396-0.604-0.396-0.994c0-0.394,0.128-0.713,0.391-0.982    c0.261-0.266,0.587-0.398,0.97-0.398c0.213,0,0.396,0.037,0.569,0.123C53.598,25.962,53.74,26.083,53.859,26.243 M69.445,28.051    c-0.108,0.151-0.256,0.273-0.434,0.357c-0.186,0.088-0.377,0.131-0.587,0.131c-0.387,0-0.712-0.135-0.966-0.398    c-0.266-0.271-0.395-0.594-0.395-0.982c0-0.4,0.134-0.727,0.396-0.997c0.268-0.265,0.598-0.397,0.992-0.397    c0.206,0,0.391,0.036,0.563,0.123c0.172,0.078,0.31,0.201,0.428,0.358v-0.423h0.328v2.648h-0.328v-0.42H69.445z M71.915,25.822    h0.334v1.406c0,0.36,0.062,0.613,0.181,0.762c0.112,0.154,0.307,0.229,0.575,0.229c0.157,0,0.289-0.029,0.402-0.094    c0.12-0.061,0.21-0.148,0.28-0.266c0.039-0.071,0.067-0.155,0.088-0.246c0.016-0.096,0.024-0.26,0.024-0.488v-1.303h0.339v2.648    H73.8v-0.285c-0.104,0.123-0.216,0.211-0.349,0.271c-0.127,0.056-0.275,0.083-0.455,0.083c-0.389,0-0.663-0.104-0.83-0.311    c-0.163-0.207-0.252-0.549-0.252-1.025L71.915,25.822L71.915,25.822z M77.283,28.051c-0.104,0.151-0.254,0.273-0.434,0.357    c-0.181,0.088-0.373,0.131-0.584,0.131c-0.385,0-0.711-0.135-0.972-0.398c-0.259-0.271-0.39-0.594-0.39-0.982    c0-0.4,0.138-0.727,0.396-0.997c0.268-0.265,0.594-0.397,0.991-0.397c0.205,0,0.394,0.036,0.563,0.123    c0.172,0.078,0.31,0.201,0.426,0.358v-0.423h0.324v2.648h-0.324v-0.42H77.283z M8.958,25.822h0.328v0.301    c0.11-0.123,0.229-0.217,0.37-0.271c0.133-0.057,0.291-0.086,0.463-0.086c0.198,0,0.375,0.033,0.524,0.112    c0.151,0.071,0.273,0.175,0.361,0.306c0.063,0.098,0.108,0.207,0.128,0.34c0.028,0.127,0.041,0.313,0.041,0.563v1.387h-0.336    v-1.484c0-0.313-0.057-0.538-0.173-0.684c-0.126-0.144-0.312-0.213-0.578-0.213c-0.154,0-0.293,0.031-0.405,0.094    c-0.121,0.061-0.207,0.149-0.28,0.267c-0.044,0.071-0.065,0.153-0.085,0.251c-0.017,0.095-0.029,0.25-0.029,0.48v1.289H8.958    V25.822z M27.895,28.051l-0.042-3.093h0.345v3.513h-0.42l-1.921-3.096l0.036,3.096h-0.338v-3.513h0.415L27.895,28.051z     M35.992,25.822h0.341v2.648h-0.341V25.822z M40.593,25.822h0.328v0.301c0.104-0.123,0.226-0.217,0.364-0.271    c0.137-0.056,0.295-0.086,0.473-0.086c0.189,0,0.364,0.034,0.515,0.113c0.156,0.071,0.271,0.174,0.363,0.307    c0.063,0.096,0.106,0.205,0.134,0.338c0.024,0.129,0.036,0.314,0.036,0.563v1.386h-0.334v-1.484c0-0.311-0.061-0.537-0.179-0.684    c-0.125-0.143-0.313-0.211-0.574-0.211c-0.155,0-0.295,0.03-0.405,0.092c-0.123,0.062-0.208,0.15-0.275,0.268    c-0.048,0.072-0.071,0.152-0.09,0.251c-0.019,0.095-0.027,0.25-0.027,0.479v1.289h-0.328L40.593,25.822L40.593,25.822z     M47.184,24.958h0.34v3.513h-0.34V24.958z M62.048,26.537h1.476v0.344h-1.476v1.251h1.476v0.341h-1.818v-3.514h1.818v0.35h-1.476    V26.537z M65.521,28.471h-0.311l-1.038-2.648h0.359l0.849,2.138l0.854-2.138h0.371L65.521,28.471z M70.676,24.958h0.338v3.513    h-0.338V24.958z M81.868,25.822h0.342v2.648h-0.342V25.822z M86.469,25.822h0.33v0.301c0.104-0.123,0.225-0.217,0.365-0.271    c0.133-0.056,0.288-0.086,0.466-0.086c0.197,0,0.377,0.034,0.521,0.113c0.154,0.071,0.271,0.174,0.365,0.307    c0.059,0.096,0.104,0.205,0.123,0.338c0.03,0.129,0.045,0.314,0.045,0.563v1.386h-0.336v-1.484c0-0.311-0.06-0.537-0.181-0.684    c-0.122-0.143-0.308-0.211-0.575-0.211c-0.15,0-0.29,0.03-0.404,0.092c-0.119,0.062-0.209,0.15-0.279,0.268    c-0.042,0.072-0.065,0.152-0.088,0.251c-0.008,0.095-0.021,0.25-0.021,0.479v1.289h-0.33V25.822z M31.401,27.129    c0-0.283-0.095-0.527-0.298-0.738c-0.199-0.209-0.436-0.313-0.694-0.313c-0.283,0-0.528,0.104-0.723,0.313    c-0.21,0.211-0.308,0.469-0.308,0.779c0,0.301,0.098,0.545,0.308,0.747c0.194,0.203,0.436,0.308,0.713,0.308    c0.269,0,0.505-0.109,0.704-0.32C31.306,27.686,31.401,27.43,31.401,27.129 M45.95,27.129c0-0.283-0.103-0.527-0.303-0.738    c-0.203-0.209-0.433-0.313-0.695-0.313c-0.284,0-0.529,0.104-0.727,0.313c-0.204,0.211-0.3,0.469-0.3,0.779    c0,0.301,0.096,0.545,0.3,0.747c0.197,0.203,0.439,0.308,0.719,0.308c0.271,0,0.506-0.109,0.703-0.32    C45.848,27.686,45.95,27.43,45.95,27.129 M53.867,27.17c0-0.301-0.096-0.563-0.297-0.773c-0.198-0.213-0.438-0.318-0.706-0.318    c-0.276,0-0.521,0.104-0.72,0.302c-0.197,0.21-0.299,0.453-0.299,0.75c0,0.308,0.102,0.567,0.299,0.774    c0.199,0.217,0.442,0.32,0.729,0.32c0.259,0,0.488-0.104,0.695-0.32C53.771,27.697,53.867,27.455,53.867,27.17 M69.445,27.129    c0-0.283-0.104-0.527-0.309-0.738c-0.197-0.209-0.429-0.313-0.691-0.313c-0.283,0-0.528,0.104-0.73,0.313    c-0.195,0.211-0.299,0.469-0.299,0.779c0,0.301,0.104,0.545,0.299,0.747c0.202,0.203,0.442,0.308,0.721,0.308    c0.273,0,0.506-0.109,0.703-0.32C69.341,27.686,69.445,27.43,69.445,27.129 M77.283,27.129c0-0.283-0.104-0.527-0.305-0.738    c-0.201-0.209-0.436-0.313-0.695-0.313c-0.28,0-0.527,0.104-0.725,0.313c-0.205,0.211-0.304,0.469-0.304,0.779    c0,0.301,0.099,0.545,0.304,0.747c0.196,0.203,0.44,0.308,0.719,0.308c0.267,0,0.504-0.109,0.701-0.32    C77.18,27.686,77.283,27.43,77.283,27.129 M5.82,27.145c0,0.307,0.099,0.557,0.292,0.76c0.196,0.211,0.438,0.314,0.727,0.314    c0.283,0,0.521-0.104,0.713-0.314c0.19-0.203,0.291-0.459,0.291-0.768c0-0.314-0.101-0.57-0.291-0.775    c-0.195-0.2-0.442-0.297-0.744-0.297c-0.271,0-0.507,0.104-0.695,0.312C5.918,26.581,5.82,26.837,5.82,27.145 M19.172,27.145    c0,0.307,0.1,0.557,0.293,0.76c0.195,0.211,0.439,0.314,0.725,0.314s0.525-0.104,0.717-0.314c0.193-0.203,0.291-0.459,0.291-0.768    c0-0.314-0.098-0.57-0.291-0.775c-0.196-0.2-0.444-0.297-0.747-0.297c-0.271,0-0.502,0.104-0.694,0.312    C19.272,26.581,19.172,26.837,19.172,27.145 M37.454,27.145c0,0.307,0.098,0.557,0.289,0.76c0.199,0.211,0.439,0.314,0.724,0.314    c0.287,0,0.525-0.104,0.717-0.314c0.196-0.203,0.294-0.459,0.294-0.768c0-0.314-0.098-0.57-0.294-0.775    c-0.194-0.2-0.444-0.297-0.746-0.297c-0.271,0-0.501,0.104-0.694,0.312C37.551,26.581,37.454,26.837,37.454,27.145 M83.327,27.145    c0,0.307,0.097,0.557,0.294,0.76c0.195,0.211,0.438,0.314,0.727,0.314c0.282,0,0.521-0.104,0.717-0.314    c0.189-0.203,0.289-0.459,0.289-0.768c0-0.314-0.1-0.57-0.289-0.775c-0.2-0.2-0.446-0.297-0.746-0.297    c-0.27,0-0.504,0.104-0.696,0.312C83.423,26.581,83.327,26.837,83.327,27.145 M16.584,26.957c-0.065-0.296-0.187-0.52-0.357-0.667    c-0.172-0.146-0.396-0.224-0.671-0.224c-0.259,0-0.474,0.08-0.656,0.244c-0.18,0.156-0.288,0.377-0.332,0.646H16.584z     M57.325,26.957c-0.063-0.296-0.185-0.52-0.358-0.667c-0.171-0.146-0.396-0.224-0.672-0.224c-0.255,0-0.471,0.08-0.65,0.244    c-0.181,0.156-0.291,0.377-0.328,0.646H57.325z M18.054,25.51h-0.342v-0.551h0.342V25.51z M36.333,25.51h-0.341v-0.551h0.341    V25.51z M82.209,25.51h-0.342v-0.551h0.342V25.51z M84.285,25.464h-0.221l0.508-0.842h0.357L84.285,25.464z"/>
		<path fill="#7A7A7A" d="M7.508,33.174H5.117c0.021,0.29,0.123,0.523,0.317,0.701c0.188,0.176,0.419,0.27,0.698,0.27    c0.205,0,0.383-0.054,0.54-0.158c0.156-0.104,0.28-0.25,0.371-0.436h0.384c-0.125,0.299-0.289,0.521-0.513,0.68    c-0.228,0.158-0.48,0.238-0.772,0.238c-0.384,0-0.708-0.141-0.976-0.418C4.902,33.785,4.77,33.45,4.77,33.068    c0-0.407,0.123-0.743,0.385-1.004c0.265-0.26,0.599-0.396,1.002-0.396c0.402,0,0.729,0.139,0.98,0.412    c0.25,0.273,0.37,0.633,0.37,1.068L7.508,33.174L7.508,33.174z M3.765,32.162V31.57v-0.684h0.343v3.506H3.765v-0.398    c-0.115,0.15-0.265,0.263-0.444,0.344c-0.182,0.087-0.364,0.124-0.562,0.124c-0.382,0-0.702-0.134-0.963-0.405    c-0.261-0.268-0.393-0.603-0.393-0.988c0-0.391,0.127-0.717,0.386-0.985c0.256-0.267,0.586-0.397,0.97-0.397    c0.212,0,0.397,0.037,0.57,0.121C3.505,31.889,3.65,32.005,3.765,32.162 M14.281,33.973c-0.102,0.154-0.245,0.272-0.424,0.362    c-0.183,0.084-0.375,0.127-0.59,0.127c-0.384,0-0.709-0.134-0.965-0.397c-0.265-0.27-0.394-0.594-0.394-0.983    c0-0.397,0.132-0.729,0.396-0.998c0.268-0.267,0.597-0.397,0.994-0.397c0.205,0,0.393,0.037,0.566,0.121    c0.17,0.084,0.303,0.205,0.415,0.361v-0.425h0.334v2.649h-0.334v-0.42H14.281z M10.887,30.887h0.342v3.506h-0.342V30.887z     M18.152,30.887h0.745c0.214,0,0.385,0.006,0.515,0.033c0.128,0.02,0.237,0.059,0.319,0.107c0.151,0.091,0.273,0.213,0.354,0.361    c0.088,0.147,0.122,0.315,0.122,0.5c0,0.18-0.034,0.342-0.108,0.49c-0.077,0.154-0.177,0.271-0.312,0.361    c-0.095,0.063-0.204,0.105-0.331,0.132c-0.134,0.026-0.296,0.045-0.499,0.045h-0.459v1.474h-0.346V30.887z M3.776,33.098    c0-0.308-0.101-0.563-0.301-0.777c-0.196-0.211-0.438-0.321-0.706-0.321c-0.278,0-0.519,0.106-0.717,0.31    c-0.201,0.2-0.301,0.447-0.301,0.744c0,0.311,0.1,0.565,0.301,0.779c0.198,0.21,0.438,0.316,0.726,0.316    c0.26,0,0.492-0.106,0.697-0.316C3.675,33.618,3.776,33.376,3.776,33.098 M14.281,33.051c0-0.285-0.096-0.527-0.296-0.734    c-0.204-0.211-0.438-0.317-0.698-0.317c-0.282,0-0.526,0.106-0.727,0.317c-0.199,0.207-0.301,0.465-0.301,0.781    c0,0.293,0.102,0.541,0.301,0.746c0.2,0.197,0.443,0.305,0.72,0.305c0.268,0,0.509-0.109,0.705-0.322    C14.185,33.609,14.281,33.354,14.281,33.051 M7.138,32.878c-0.066-0.293-0.186-0.519-0.359-0.668    c-0.173-0.146-0.395-0.219-0.669-0.219c-0.257,0-0.476,0.077-0.66,0.239c-0.172,0.16-0.283,0.375-0.324,0.646L7.138,32.878    L7.138,32.878z M18.498,31.232v1.336h0.512c0.276,0,0.492-0.053,0.626-0.164c0.13-0.108,0.202-0.271,0.202-0.502    c0-0.23-0.072-0.4-0.202-0.512c-0.139-0.107-0.355-0.158-0.655-0.158H18.498z"/>
		<path fill="#7A7A7A" d="M20.567,33.072c0-0.391,0.136-0.721,0.403-0.998c0.262-0.276,0.584-0.418,0.946-0.418    c0.388,0,0.71,0.135,0.979,0.408c0.272,0.271,0.408,0.597,0.408,0.974c0,0.394-0.136,0.729-0.398,1.012    c-0.261,0.279-0.582,0.419-0.963,0.419c-0.386,0-0.71-0.14-0.972-0.41C20.703,33.786,20.567,33.455,20.567,33.072 M31.181,32.559    c-0.104-0.191-0.234-0.338-0.382-0.431c-0.15-0.095-0.326-0.137-0.534-0.137c-0.281,0-0.512,0.103-0.697,0.312    c-0.189,0.205-0.287,0.461-0.287,0.77c0,0.305,0.098,0.558,0.287,0.765c0.191,0.202,0.433,0.31,0.709,0.31    c0.206,0,0.387-0.055,0.543-0.158c0.159-0.098,0.276-0.244,0.361-0.428h0.375c-0.104,0.289-0.266,0.515-0.484,0.672    c-0.222,0.156-0.478,0.236-0.776,0.236c-0.388,0-0.708-0.14-0.977-0.41c-0.258-0.27-0.393-0.597-0.393-0.98    c0-0.395,0.135-0.725,0.401-0.996c0.268-0.273,0.591-0.412,0.976-0.412c0.286,0,0.545,0.078,0.76,0.23    c0.222,0.16,0.383,0.381,0.493,0.658H31.181L31.181,32.559z M44.386,33.174h-2.396c0.021,0.29,0.125,0.523,0.316,0.701    c0.19,0.176,0.425,0.27,0.703,0.27c0.199,0,0.38-0.054,0.536-0.156c0.16-0.104,0.284-0.252,0.367-0.438H44.3    c-0.121,0.299-0.287,0.521-0.512,0.68c-0.224,0.158-0.479,0.238-0.77,0.238c-0.383,0-0.714-0.141-0.98-0.418    c-0.265-0.266-0.395-0.602-0.395-0.982c0-0.407,0.125-0.743,0.391-1.004c0.257-0.26,0.593-0.396,1-0.396    c0.398,0,0.725,0.139,0.979,0.412c0.248,0.273,0.373,0.633,0.373,1.068V33.174z M53.917,33.174h-2.396    c0.021,0.29,0.127,0.523,0.316,0.701c0.188,0.176,0.422,0.27,0.701,0.27c0.204,0,0.382-0.054,0.538-0.156    c0.161-0.104,0.278-0.252,0.375-0.438h0.383c-0.127,0.299-0.294,0.521-0.513,0.68c-0.225,0.158-0.479,0.238-0.772,0.238    c-0.384,0-0.712-0.141-0.974-0.418c-0.271-0.266-0.403-0.602-0.403-0.982c0-0.407,0.132-0.743,0.39-1.004    c0.264-0.26,0.601-0.396,1.002-0.396c0.404,0,0.729,0.139,0.978,0.412c0.253,0.273,0.375,0.633,0.375,1.068V33.174z     M62.989,33.072c0-0.391,0.135-0.721,0.396-0.998c0.271-0.276,0.588-0.418,0.95-0.418c0.388,0,0.71,0.135,0.983,0.408    c0.271,0.271,0.4,0.597,0.4,0.974c0,0.394-0.13,0.729-0.393,1.012c-0.266,0.279-0.586,0.419-0.969,0.419    c-0.385,0-0.703-0.14-0.975-0.41C63.124,33.786,62.989,33.455,62.989,33.072 M68.566,33.072c0-0.391,0.131-0.721,0.396-0.998    c0.268-0.276,0.579-0.418,0.948-0.418c0.381,0,0.709,0.135,0.979,0.408c0.272,0.271,0.406,0.597,0.406,0.974    c0,0.394-0.134,0.729-0.398,1.012c-0.263,0.279-0.586,0.419-0.963,0.419c-0.392,0-0.705-0.14-0.974-0.41    C68.697,33.786,68.566,33.455,68.566,33.072 M77.098,33.072c0-0.391,0.135-0.721,0.401-0.998c0.263-0.276,0.58-0.418,0.946-0.418    c0.384,0,0.709,0.135,0.98,0.408c0.271,0.271,0.405,0.597,0.405,0.974c0,0.394-0.134,0.729-0.401,1.012    c-0.261,0.279-0.578,0.419-0.962,0.419s-0.707-0.14-0.97-0.41C77.232,33.786,77.098,33.455,77.098,33.072 M82.623,32.559    c-0.105-0.191-0.237-0.338-0.387-0.431c-0.146-0.095-0.327-0.137-0.534-0.137c-0.274,0-0.505,0.103-0.694,0.312    c-0.191,0.205-0.287,0.461-0.287,0.77c0,0.305,0.096,0.558,0.287,0.765c0.194,0.202,0.434,0.31,0.713,0.31    c0.201,0,0.383-0.055,0.541-0.158c0.158-0.098,0.276-0.244,0.361-0.428h0.374c-0.104,0.289-0.269,0.515-0.479,0.672    c-0.229,0.156-0.484,0.236-0.787,0.236c-0.383,0-0.699-0.14-0.973-0.41c-0.257-0.27-0.395-0.597-0.395-0.98    c0-0.395,0.138-0.725,0.4-0.996c0.266-0.273,0.596-0.412,0.979-0.412c0.289,0,0.543,0.078,0.758,0.23    c0.229,0.16,0.386,0.381,0.497,0.658H82.623L82.623,32.559z M34.56,33.973c-0.104,0.154-0.257,0.273-0.432,0.363    c-0.187,0.083-0.373,0.126-0.588,0.126c-0.382,0-0.711-0.134-0.97-0.397c-0.261-0.27-0.39-0.594-0.39-0.983    c0-0.397,0.136-0.729,0.395-0.998c0.268-0.267,0.602-0.397,0.993-0.397c0.21,0,0.395,0.037,0.563,0.121    c0.171,0.084,0.313,0.205,0.428,0.361v-0.425h0.327v2.649H34.56V33.973z M40.641,32.162v-0.59v-0.686h0.338v3.506h-0.338v-0.398    c-0.122,0.15-0.267,0.264-0.448,0.346c-0.175,0.086-0.363,0.123-0.563,0.123c-0.377,0-0.699-0.134-0.961-0.404    c-0.265-0.27-0.395-0.604-0.395-0.99c0-0.391,0.128-0.715,0.393-0.984c0.256-0.268,0.58-0.396,0.963-0.396    c0.214,0,0.406,0.037,0.579,0.121C40.379,31.889,40.519,32.004,40.641,32.162 M54.404,33.561h0.354v0.008    c0,0.162,0.047,0.301,0.145,0.412c0.094,0.105,0.209,0.164,0.35,0.164c0.132,0,0.243-0.043,0.332-0.127    c0.084-0.086,0.131-0.191,0.131-0.313c0-0.132-0.033-0.233-0.104-0.304c-0.069-0.084-0.195-0.157-0.379-0.223    c-0.299-0.102-0.491-0.211-0.582-0.316c-0.088-0.11-0.131-0.258-0.131-0.441c0-0.209,0.076-0.386,0.227-0.529    c0.154-0.144,0.332-0.219,0.542-0.219c0.228,0,0.409,0.068,0.543,0.195c0.136,0.129,0.204,0.309,0.213,0.537H55.68    c-0.014-0.123-0.049-0.227-0.119-0.291c-0.074-0.069-0.168-0.104-0.291-0.104c-0.117,0-0.207,0.04-0.279,0.115    c-0.078,0.072-0.113,0.17-0.113,0.273c0,0.078,0.021,0.146,0.046,0.197c0.032,0.053,0.086,0.104,0.154,0.151    c0.065,0.032,0.159,0.077,0.278,0.112c0.131,0.037,0.209,0.061,0.25,0.08c0.166,0.066,0.289,0.162,0.367,0.281    c0.077,0.116,0.116,0.266,0.116,0.451c0,0.227-0.081,0.412-0.237,0.566c-0.166,0.146-0.357,0.222-0.606,0.222    c-0.246,0-0.451-0.084-0.601-0.245C54.495,34.051,54.416,33.836,54.404,33.561 M59.003,33.973    c-0.11,0.154-0.255,0.273-0.435,0.363c-0.183,0.083-0.377,0.126-0.586,0.126c-0.387,0-0.711-0.134-0.967-0.397    c-0.263-0.27-0.394-0.594-0.394-0.983c0-0.397,0.137-0.729,0.397-0.998c0.268-0.267,0.6-0.397,0.99-0.397    c0.206,0,0.397,0.037,0.561,0.121c0.177,0.084,0.318,0.205,0.432,0.361v-0.425h0.326v2.649h-0.326L59.003,33.973L59.003,33.973z     M74.549,33.391h0.331c0.004,0.219,0.065,0.396,0.185,0.52c0.117,0.129,0.269,0.191,0.459,0.191c0.203,0,0.371-0.063,0.492-0.191    c0.115-0.124,0.178-0.301,0.178-0.52c0-0.313-0.246-0.556-0.742-0.721c-0.035-0.016-0.063-0.025-0.084-0.027    c-0.256-0.09-0.444-0.201-0.557-0.334c-0.117-0.134-0.168-0.313-0.168-0.535c0-0.279,0.09-0.512,0.262-0.687    c0.172-0.177,0.397-0.265,0.675-0.265c0.26,0,0.476,0.076,0.629,0.236c0.147,0.166,0.237,0.394,0.256,0.688h-0.325    c-0.02-0.188-0.072-0.337-0.175-0.441c-0.094-0.104-0.222-0.154-0.385-0.154c-0.175,0-0.313,0.055-0.431,0.168    c-0.105,0.113-0.158,0.265-0.158,0.438c0,0.091,0.015,0.166,0.047,0.235c0.031,0.066,0.084,0.126,0.156,0.184    c0.074,0.051,0.223,0.11,0.428,0.18c0.115,0.041,0.211,0.07,0.273,0.095c0.228,0.088,0.389,0.2,0.488,0.342    c0.104,0.131,0.154,0.313,0.154,0.535c0,0.343-0.094,0.616-0.273,0.825c-0.188,0.205-0.439,0.312-0.742,0.312    c-0.285,0-0.518-0.101-0.697-0.295C74.65,33.969,74.555,33.712,74.549,33.391 M87.148,33.973    c-0.099,0.154-0.246,0.273-0.426,0.363c-0.181,0.083-0.375,0.126-0.588,0.126c-0.384,0-0.711-0.134-0.967-0.397    c-0.259-0.27-0.387-0.594-0.387-0.983c0-0.397,0.132-0.729,0.393-0.998c0.266-0.267,0.6-0.397,0.993-0.397    c0.207,0,0.396,0.037,0.562,0.121c0.174,0.084,0.313,0.205,0.42,0.361v-0.425h0.336v2.649h-0.336V33.973z M23.976,30.887h0.339    v3.506h-0.339V30.887z M25.131,31.743h0.341v2.649h-0.341V31.743z M26.519,34.393v-2.311h-0.501v-0.34h0.501v-0.855h0.343v0.855    h0.501v0.34h-0.501v2.311H26.519z M27.908,31.743h0.338v2.649h-0.338V31.743z M47.814,30.887h0.994    c0.278,0,0.512,0.028,0.692,0.08c0.188,0.057,0.358,0.139,0.496,0.266c0.198,0.166,0.354,0.373,0.467,0.615    c0.111,0.246,0.165,0.508,0.165,0.785c0,0.309-0.055,0.59-0.178,0.846c-0.125,0.252-0.301,0.461-0.521,0.623    c-0.146,0.105-0.302,0.182-0.478,0.225c-0.173,0.047-0.437,0.066-0.794,0.066h-0.844V30.887L47.814,30.887z M60.479,34.393h-0.354    v-2.649h0.325v0.308c0.082-0.115,0.172-0.203,0.273-0.26c0.096-0.05,0.207-0.081,0.344-0.085v0.368    c-0.213,0.021-0.36,0.086-0.452,0.193c-0.099,0.104-0.138,0.28-0.138,0.524v1.601H60.479z M61.973,34.393h-0.346v-2.649h0.322    v0.308c0.083-0.115,0.17-0.203,0.271-0.26c0.098-0.05,0.213-0.081,0.346-0.085l0.002,0.368c-0.213,0.021-0.363,0.086-0.457,0.193    c-0.094,0.104-0.141,0.28-0.141,0.524v1.601H61.973z M66.395,30.887h0.34v3.506h-0.34V30.887z M67.549,30.887h0.342v3.506h-0.342    V30.887z M83.762,31.743H84.1v2.649h-0.338V31.743z M88.292,30.887h0.342v3.506h-0.342V30.887z M34.56,33.051    c0-0.285-0.103-0.527-0.305-0.736c-0.203-0.211-0.436-0.315-0.695-0.315c-0.282,0-0.532,0.104-0.728,0.315    c-0.198,0.209-0.301,0.467-0.301,0.783c0,0.293,0.103,0.541,0.301,0.741c0.195,0.202,0.436,0.31,0.718,0.31    c0.27,0,0.507-0.109,0.705-0.322C34.458,33.609,34.56,33.354,34.56,33.051 M40.649,33.098c0-0.308-0.096-0.563-0.3-0.777    c-0.199-0.209-0.431-0.321-0.705-0.321c-0.278,0-0.521,0.104-0.717,0.31c-0.202,0.2-0.301,0.447-0.301,0.744    c0,0.311,0.099,0.565,0.301,0.779c0.196,0.21,0.438,0.316,0.727,0.316c0.265,0,0.494-0.106,0.695-0.316    C40.553,33.618,40.649,33.376,40.649,33.098 M59.003,33.051c0-0.285-0.103-0.527-0.308-0.736c-0.201-0.211-0.43-0.315-0.693-0.315    c-0.283,0-0.527,0.104-0.727,0.315c-0.201,0.209-0.303,0.467-0.303,0.783c0,0.293,0.102,0.541,0.303,0.741    c0.197,0.202,0.44,0.31,0.716,0.31c0.274,0,0.507-0.109,0.704-0.322C58.902,33.609,59.003,33.354,59.003,33.051 M87.148,33.051    c0-0.285-0.09-0.527-0.295-0.736c-0.201-0.211-0.436-0.315-0.696-0.315c-0.28,0-0.528,0.104-0.726,0.315    c-0.201,0.209-0.304,0.467-0.304,0.783c0,0.293,0.103,0.541,0.304,0.741c0.196,0.202,0.441,0.31,0.717,0.31    c0.271,0,0.506-0.109,0.705-0.322C87.059,33.609,87.148,33.354,87.148,33.051 M20.923,33.068c0,0.306,0.103,0.556,0.294,0.764    c0.195,0.207,0.438,0.313,0.725,0.313c0.284,0,0.521-0.105,0.713-0.313c0.198-0.208,0.294-0.464,0.294-0.771    c0-0.313-0.096-0.574-0.294-0.774c-0.197-0.203-0.44-0.3-0.74-0.3c-0.273,0-0.506,0.104-0.697,0.31    C21.026,32.502,20.923,32.762,20.923,33.068 M63.344,33.068c0,0.306,0.098,0.556,0.291,0.764c0.198,0.207,0.442,0.313,0.725,0.313    c0.287,0,0.523-0.105,0.719-0.313c0.191-0.208,0.291-0.464,0.291-0.771c0-0.313-0.1-0.574-0.291-0.774    c-0.195-0.203-0.447-0.3-0.745-0.3c-0.272,0-0.506,0.104-0.697,0.31C63.441,32.502,63.344,32.762,63.344,33.068 M68.918,33.068    c0,0.306,0.1,0.556,0.29,0.764c0.196,0.207,0.44,0.313,0.728,0.313s0.521-0.105,0.715-0.313c0.192-0.208,0.291-0.464,0.291-0.771    c0-0.313-0.099-0.574-0.291-0.774c-0.197-0.203-0.442-0.3-0.746-0.3c-0.27,0-0.504,0.104-0.695,0.31S68.918,32.762,68.918,33.068     M77.456,33.068c0,0.306,0.099,0.556,0.289,0.764c0.196,0.207,0.44,0.313,0.726,0.313c0.288,0,0.525-0.105,0.717-0.313    c0.194-0.208,0.291-0.464,0.291-0.771c0-0.313-0.097-0.574-0.291-0.774c-0.198-0.203-0.443-0.3-0.748-0.3    c-0.27,0-0.502,0.104-0.693,0.31C77.553,32.502,77.456,32.762,77.456,33.068 M48.154,31.221v2.844h0.713    c0.449,0,0.796-0.125,1.035-0.377c0.242-0.252,0.356-0.606,0.356-1.065c0-0.226-0.041-0.442-0.12-0.636    c-0.08-0.195-0.197-0.355-0.353-0.492c-0.113-0.096-0.241-0.166-0.386-0.211c-0.135-0.042-0.342-0.063-0.615-0.063H48.154z     M44.013,32.878c-0.066-0.293-0.185-0.519-0.359-0.668c-0.169-0.146-0.393-0.219-0.669-0.219c-0.255,0-0.477,0.077-0.656,0.239    c-0.181,0.16-0.29,0.375-0.329,0.646L44.013,32.878L44.013,32.878z M53.542,32.878c-0.065-0.293-0.185-0.519-0.354-0.668    c-0.172-0.146-0.396-0.219-0.672-0.219c-0.256,0-0.473,0.077-0.651,0.239c-0.181,0.16-0.287,0.375-0.331,0.646L53.542,32.878    L53.542,32.878z M28.246,31.432h-0.338v-0.545h0.338V31.432z M84.1,31.432h-0.338v-0.545H84.1V31.432z M25.225,31.389h-0.219    l0.501-0.842h0.366L25.225,31.389z"/>
	</g>
</g>
</svg>