<?xml version="1.0" encoding="utf-8"?>
<!-- Generator: Adobe Illustrator 26.0.2, SVG Export Plug-In . SVG Version: 6.00 Build 0)  -->
<svg version="1.1"
	 id="svg2" xmlns:cc="http://creativecommons.org/ns#" xmlns:dc="http://purl.org/dc/elements/1.1/" xmlns:inkscape="http://www.inkscape.org/namespaces/inkscape" xmlns:rdf="http://www.w3.org/1999/02/22-rdf-syntax-ns#" xmlns:sodipodi="http://sodipodi.sourceforge.net/DTD/sodipodi-0.dtd" xmlns:svg="http://www.w3.org/2000/svg"
	 xmlns="http://www.w3.org/2000/svg" xmlns:xlink="http://www.w3.org/1999/xlink" x="0px" y="0px" viewBox="0 0 975.5 654.8"
	 style="enable-background:new 0 0 975.5 654.8;" xml:space="preserve">
<style type="text/css">
	.st0{fill-rule:evenodd;clip-rule:evenodd;fill:#21409A;stroke:#FFFFFF;stroke-width:0.75;}
</style>
<sodipodi:namedview  bordercolor="#666666" borderopacity="1" gridtolerance="10" guidetolerance="10" id="namedview40" inkscape:current-layer="svg2" inkscape:cx="620.7234" inkscape:cy="358.09527" inkscape:pageopacity="0" inkscape:pageshadow="2" inkscape:window-height="1001" inkscape:window-maximized="1" inkscape:window-width="1920" inkscape:window-x="-9" inkscape:window-y="-9" inkscape:zoom="0.78832258" objecttolerance="10" pagecolor="#ffffff" showgrid="false">
	</sodipodi:namedview>
<path id="CAM" class="st0" d="M820,489.5c-1,0.8-1.7,1.1-2.6,1.8c-1.1,0.9-1.2,1.1-2.6,1.2c-1.3,0.1-3.2,1-4.3,1.6
	c-0.6,0.3-0.8,1-1,1.6c-0.4,1.1,7-1.2,7.5-1.6c1.2-1,2.5-0.7,3.6-2C821,491.6,821.2,490.3,820,489.5L820,489.5z M802,445.1
	c-0.1-0.3,0-0.7-0.2-1c-0.1-0.1-0.3,0.1-0.4,0c-0.1-0.1-0.1-0.3-0.2-0.2l-0.2,0.2v0.6c0,0.1-0.4-0.1-0.4,0.4c0,0.2,0.1,0.6,0,0.8
	c-0.1,0.3-0.9,0-0.6,0.6c0.1,0.2,0.5,0.3,0.6,0.4c0.2,0.2-0.2,0.3,0.4,0.2c0.1,0,0.1-0.2,0.2-0.2c0.3-0.1,0.8,0.1,0.8-0.2v-0.2h0.2
	C802.4,446.5,802.4,446.2,802,445.1L802,445.1z M789.6,421.4l0.6-1c0.2-0.3-0.3-0.2-0.4-0.2c-0.3,0-0.7,0-1,0
	c-0.6,0,0.2-0.7-0.2-0.4c-0.1,0-0.4,0.5-0.4,0.6v0.6c0.1,0.1,0.1,0.2,0.2,0.2h0.2c0.2,0-0.2,0.3,0.4,0.2
	C789.5,421.4,789,421.4,789.6,421.4L789.6,421.4z M892.2,518.5v-52.4l-15.3-16.8l-0.6-10.2l-2.4,0.6l-1.5,2.1l-2.7-3.3h-1.5
	l-0.6-5.7l-10.5,0.6v-4.2l-3.9-0.3h-2.4l-0.6-10.5l-1.9-0.1c-2.1,5.6-2.6,13.8-2.6,17.6c0,2.8,3.3,6.2,3,10.8
	c-0.1,2.3-3.4,7.9-4.5,10.3c-3.4,7.8-0.1,12.6-6.6,17.8c-3.6,2.9-11.6,12.5-15.9,12.9c0.4,1.2,0.1,1.6,1.2,1.6
	c0.9,0,1.8-0.5,2.3-0.5s0.5,1.3,0.7,1.6c0.6,1,5,0.7,6.1,0.7c-2.5,0-6.6,0.1-4.7,4c0,0.1,1.2,0,2.1,0c1.8,0-2.2,0.4-2.6,0.5
	c-0.9,0.1-1.9,3.8-3.7,3c-4.4-1.7-2.4,4.5-6.3,4c-0.4-0.1-1.8-1.3-2.8-0.7c-1,0.6-0.7,3.3-1.6,3.3h-2.8c-1.7,0-1.3,0.2-1.4-1.4
	c0-0.8-0.4-0.6,0.9-0.7c0,0,1.6,0.2,1.2-0.5c-0.4-0.6-0.9-0.8-0.9-1.6c0-2.4-1.1,0.8-1.9-0.5c-1.5-2.5-2.1,1-3.7,0
	c-0.7-0.4,0,0-1.2-0.5c-0.2-0.1-0.9-1.1-1.2-1.2c-1.3-0.1-1.1,0.5-1.6,1.2c-0.5,0.1-2.4,0.5-3,0.2c-0.8-0.3-1.1-0.5-0.2-0.7
	c0.4-0.1,1.2,0,1.6,0c0.5,0,1.4,0.3,1.2-0.5c-0.2-0.5-0.4-0.8-0.5-1.4c0-0.5-0.1-0.5,0.2-0.7c1.8,0,3.4-0.1,4.9,0.5
	c0.7,0.3,1.5-0.7,2.6-0.7c0.6,0,1.2-0.6,0.7-1.2c-0.5-0.5-3.3-0.4-4.2-1.2c-1.7-1.4-4.6,0.7-6.1,1.4c-1,0.5-3.5,0.1-4.7,0.5
	c-1.5,0.5-2.5,0.2-3.5,0.5v1.4l2.8,0.8v2.9l1.7-0.2c0.2,0.4,0.3,0.8,0.4,1.2c0.1,0.4,1.6,0.2,2,0.2h0.6c0.4,0,1.5-1,1.6-0.4
	c0.2,0.9,0.6,0,1.2,0.4c0.3,0.2-0.3,0.2,0.4,0.2h1v7.5c1.5,0.1,0.8,3.9,1.8,3.9s1.5,0.1,2-0.4s3.3,1.6,4.1,1.8
	c0.3,0.1,1.6-0.1,1.8,0.2c0.7,0.9-1,1.8,0.8,1.8c0.8,0,3.6,0,4.1,0.6c0.9,1.1,2.3,1.2,3.9,1.2v-7.5h3c1.3,0,2.2,1,3.7,1.4
	c2.4,0.7,2.4-0.8,4.7,1c1.9,1.5,6.1-0.4,8.5,1.7v4.3C857.6,520.8,873.7,519.8,892.2,518.5L892.2,518.5z"/>
<path id="CHP" class="st0" d="M743.8,586.5c0-0.8-0.1-1.5-0.1-2.3c-0.1-1.4,0.6-1.2,0.6-2.3c0-1.7-0.4-1.5,1.3-1.6
	c0.6,0,0.3-1.9,0.3-2.6v-3.2c0-2.1-1.9-2.2-4.2-2.3l7.1-21.9c0.8-0.3,1.6-0.3,2-0.8c0.5-0.5-0.7-1.4,0.3-2.3c0.8-0.8,3.1,0.1,3.6-1
	c0.1-0.4,0.2-0.7,0.2-1c0.8-1.8,2.4,1.2,2.7-2.6c0.1-1.4,1.3-0.9,1.6-1.6c0.6-1.4,0.8-2.4,1.2-4c0.3-1.4,0.6-0.8,1.2-1.4
	c0.8-0.8-0.3-1.4,1.1-2.5c0.3-0.3,0.9-0.5,1.2-0.9c1.1-1.3,1-3.3-1.2-3.3l-0.2-3.2l1.1-3.7c1.4-0.6,1.3,0.4,1.8-0.7
	c0.2-0.4,0.8-0.2,1.1-0.4c0.5-0.3,1.1-0.1,1.8-0.2c0.4-0.1,0-0.7,0.7-0.7c0.6,0,2.4,0.8,1.2,1.4c-0.2,0.1-1-0.2-0.7,0.4
	c0.4,0.9,0.4,0.2,1.1,0.9c0.2,0.2,0.4,0.9,0.5,0.9c0.5,0,0.9-0.4,1.6-0.4c0.8,0,0.5,0.6,0.5,1.4c0,0.6,0.4,0.8,0,1.4
	c-0.4,0.7,1.4,0.7,1.6,0.7v6.3c0.5,0,1.4,0.7,1.4,1.2c0,1.4-0.4,1.6,1.2,1.6c0.8,0,1.6-0.2,2.5-0.2c2.4,0,0.9,0.1,1.9,1.2
	c0.2,0.2,0.5,0.1,0.4,0.4c-0.2,0.3-1.2,2.2-0.2,1.9c0.3-0.1,1.5-0.1,1.6,0.2c0.1,0.7-0.9,0.8-0.4,1.1c1.1,0.7,0.6,0.7,2.3,0.7
	c0.1-0.3,0.4-0.1,0.5-0.5c0.1-0.3,0.2-0.6,0.2-1.1c-0.1-0.4-0.1,0.1-0.2-0.4c-0.1-0.6,0.5-1.7,1.1-1.9c0.2-0.1,0.4-0.1,0.5-0.4
	c0.1-0.3,0.1-1.9,0.2-2.3c0.6,0,2.6,0,2.6-0.7c0-1.2,0.6-1,1.6-1.4c1.9-0.7,3.4,0.3,4.4-2.1c0.6-1.5-1-2.3,1.4-2.3
	c0.8,0-0.9,0.9,0.2-0.5c0.5-0.6,1.5-0.6,1.9-1.1c0.8-1,3.2-1.7,3.2-2.6c0-1,0-0.9,1.1-1.2c0.8-0.3,1.8,0,1.8-1.2
	c0-1.4,0.8-3.8,1.6-1.4c0.2,0.7,0.5,0.1,0.5,1.1c0,1.4,1.2,0.9,1.2,0.4c0.1-1,0.1-0.7,1.1-0.7s1.1,0.4,2.1,0.7
	c0.4,0.1,1,0.2,1.1,0.5c0.2,0.7,0,1.2,0.4,1.8c0.4,0.7-0.1,1-0.2,1.8c0.3,0.2,0.3,0.7,0.5,0.7c0.5,0,0.5,0,0.9,0.4
	c0.9,0.7,0.5,0.3,1.4,0.2c1.3-0.1,0.9,0,1.1,1.1c0.2,1,0.5-0.5,0.5,0.9c0,1.3,1.1,0.2,1.2,1.4c0.1,0.8-0.9,1.3-0.4,1.9
	c0.3,0.3,0.2,1,0,1.2c-0.6,0.5-1.3,0.4-0.5,0.9c0.2,0.1,0.2,0.7,0.2,1.1c-0.6,0.2,0,0.8,0.7,0.5c0.4-0.2,0.7-0.4,1.6-0.4
	c1.4,0,0.9,1.1,1.8,1.1c0.3,0,2.2-0.4,2.3,0c0.1,0.6,0.3,2.4,1.1,0.9c0.4-0.8,0.4-0.7,0.7-0.4c0.2,0.2,0.9,0.2,0.9,0.7
	c0,1.3-0.7,0.4-0.7,1.8c0,0.6-0.2,1.3-0.2,1.6c0.1,0.5,1.4-0.2,1.7,0.5h-0.9c0.4,0.8,0.5,0.9,1.2,1.3c0.2,0.1,0.1,0.1,0.3,0.1
	c0.7,0.3,0.2,0.4,0.6,1c0.3,0.4,0.6,0.7,1,0.7s0.9-0.1,1.1,0.1c0.3,0.3,1,0.3,1,0.8c0.2,0.6,0.1,0.9,0.7,1.1c1.1,0.4,1.7-0.2,1.7,1
	c0,1.3,1.1,0.8,1.3,2.2c0.1,0.6,4.2-0.7,3.2,0.8c-0.3,0.4-0.5-0.2-0.4,0.7c0.1,0.7,1,2.1,1.7,2.1c0.6,0,1.1-0.4,1.8-0.4
	c0,2.4,0.5,2.1,2.6,2.1c2.7,0,6.1,2.8,6.3,5.1c0,0.7,0.8,2.7,1.3,2.8c2.1,0.4,1.3,3.9,3.6,3.2c1.4-0.3,1.8-0.9,3.1,0.4
	c0.3,0.3,0.6,0.7,1,1c0.2,0.1,1.2-0.3,1.7-0.3v1.7c0,1-1,0.2-1.1,1c-0.2,1.2-1.1,1.8-0.8,3.1c0.2,0.9,0.6,5.3,1.4,5.6l-40.6,1.8
	l-15.2,29.7l4.7,3.9c0,4.3-2.1,6.9-2.1,11c0,1.9-0.6,2.6-0.6,4.4c0,1.9-1,2.7-1.7,3.6c-4.2-3.4-7.5-6.4-8.2-7.3
	c-7.5-10.9-20.1-16.9-30-26.2c-4.6-4.3-12.8-6.6-17.7-10.9C748.3,587.5,746.1,587,743.8,586.5L743.8,586.5z"/>
<path id="TAB" class="st0" d="M738.9,515.3l1.3,2.3c0,1.2,0.3,2.1,0.3,3.3c0,1.6,0.5,0.6,1,1.5c0.2,0.4-1.5,2.2-0.5,3.6
	c0.2,0.3,2.6-0.3,3.1,0c1.5,0.9-0.9,1.4,2,2.5c1.2,0.9,1.6,2.7,3.3,2.8c1.6,0.1,4,1.1,3.6,2.5c-0.5,1.7,2,1.6,2.3,2.3
	c0,0.1,0.5,4.4-0.3,4.8c-1.4,0.7,0,2.2,0,4.1c0.8-1.8,2.4,1.2,2.7-2.6c0.1-1.4,1.3-0.9,1.6-1.6c0.6-1.4,0.8-2.4,1.2-4
	c0.3-1.4,0.6-0.8,1.2-1.4c0.8-0.8-0.3-1.4,1.1-2.5c0.3-0.3,0.9-0.5,1.2-0.9c1.1-1.3,1-3.3-1.2-3.3l-0.2-3.2l1.1-3.7
	c1.4-0.6,1.3,0.4,1.8-0.7c0.2-0.4,0.8-0.2,1.1-0.4c0.5-0.3,1.1-0.1,1.8-0.2c0.4-0.1,0-0.7,0.7-0.7c0.6,0,2.4,0.8,1.2,1.4
	c-0.2,0.1-1-0.2-0.7,0.4c0.4,0.9,0.4,0.2,1.1,0.9c0.2,0.2,0.4,0.9,0.5,0.9c0.5,0,0.9-0.4,1.6-0.4c0.8,0,0.5,0.6,0.5,1.4
	c0,0.6,0.4,0.8,0,1.4c-0.4,0.7,1.4,0.7,1.6,0.7v6.3c0.5,0,1.4,0.7,1.4,1.2c0,1.4-0.4,1.6,1.2,1.6c0.8,0,1.6-0.2,2.5-0.2
	c2.4,0,0.9,0.1,1.9,1.2c0.2,0.2,0.5,0.1,0.4,0.4c-0.2,0.3-1.2,2.2-0.2,1.9c0.3-0.1,1.5-0.1,1.6,0.2c0.1,0.7-0.9,0.8-0.4,1.1
	c1.1,0.7,0.6,0.7,2.3,0.7c0.1-0.3,0.4-0.1,0.5-0.5c0.1-0.3,0.2-0.6,0.2-1.1c-0.1-0.4-0.1,0.1-0.2-0.4c-0.1-0.6,0.5-1.7,1.1-1.9
	c0.2-0.1,0.4-0.1,0.5-0.4c0.1-0.3,0.1-1.9,0.2-2.3c0.6,0,2.6,0,2.6-0.7c0-1.2,0.6-1,1.6-1.4c1.9-0.7,3.4,0.3,4.4-2.1
	c0.6-1.5-1-2.3,1.4-2.3c0.8,0-0.9,0.9,0.2-0.5c0.5-0.6,1.5-0.6,1.9-1.1c0.8-1,3.2-1.7,3.2-2.6c0-1,0-0.9,1.1-1.2
	c0.8-0.3,1.8,0,1.8-1.2c0-1.4,0.8-3.8,1.6-1.4c0.2,0.7,0.5,0.1,0.5,1.1c0,1.4,1.2,0.9,1.2,0.4c0.1-1,0.1-0.7,1.1-0.7
	s1.1,0.4,2.1,0.7c0.4,0.1,1,0.2,1.1,0.5c0.2,0.7,0,1.2,0.4,1.8c0.4,0.7-0.1,1-0.2,1.8c0.3,0.2,0.3,0.7,0.5,0.7c0.5,0,0.5,0,0.9,0.4
	c0.9,0.7,0.5,0.3,1.4,0.2c1.3-0.1,0.9,0,1.1,1.1c0.2,1,0.5-0.5,0.5,0.9c0,1.3,1.1,0.2,1.2,1.4c0.1,0.8-0.9,1.3-0.4,1.9
	c0.3,0.3,0.2,1,0,1.2c-0.6,0.5-1.3,0.4-0.5,0.9c0.2,0.1,0.2,0.7,0.2,1.1c-0.6,0.2,0,0.8,0.7,0.5c0.4-0.2,0.7-0.4,1.6-0.4
	c1.4,0,0.9,1.1,1.8,1.1c0.3,0,2.2-0.4,2.3,0c0.1,0.6,0.3,2.4,1.1,0.9c0.4-0.8,0.4-0.7,0.7-0.4c0.2,0.2,0.9,0.2,0.9,0.7
	c0,1.3-0.7,0.4-0.7,1.8c0,0.6-0.2,1.3-0.2,1.6c0.1,0.5,1.4-0.2,1.7,0.5l11-0.2l-0.1-7l-0.2-17.7c-2.3-2.1-6.6-0.2-8.5-1.7
	c-2.2-1.8-2.3-0.3-4.7-1c-1.4-0.4-2.3-1.4-3.7-1.4h-3v7.5c-1.6,0-2.9-0.1-3.9-1.2c-0.5-0.6-3.2-0.6-4.1-0.6c-1.8,0-0.1-0.9-0.8-1.8
	c-0.3-0.3-1.5-0.1-1.8-0.2c-0.7-0.3-3.6-2.3-4.1-1.8s-1,0.4-2,0.4s-0.4-3.7-1.8-3.9v-7.5h-1c-0.7,0-0.1,0-0.4-0.2
	c-0.6-0.4-1,0.5-1.2-0.4c-0.1-0.6-1.2,0.4-1.6,0.4h-0.6c-0.4,0-2,0.2-2-0.2c-0.1-0.4-0.2-0.8-0.4-1.2l-1.7,0.2v-3l-2.8-0.8v-1.4
	c-0.4,0.1-0.9,0.4-1.4,0.9c-1.9,0.6-3.2,1.3-4.7,2.1c-1.1,0.6-1.8,0.4-2.8,1.4c-2.1,2.1-5,4.6-8,4.7c-0.8,0-1.5,0.2-1.4,1.2
	c0.1,1.2-0.9,4-2.6,2.8c-2.1-1.4,2.3-2.8,1.2-2.8c-0.8,0-2.2,0.3-2.3,0.2c-0.7-0.7-2.5-0.7-3.7-0.7c-2.2,0-5.9,0-7,1.2
	c-3.4,3.6-10.5,1.9-12.9,5.9c-0.1,0.1-2.1,0.6-2.3,0.7C740,514.6,739.4,514.9,738.9,515.3L738.9,515.3z"/>
<path id="OAX" class="st0" d="M597.1,581.1c0.1,0,0.3-0.1,0.6-0.1c0.7-0.1,0.1-0.5,1.3-0.5c2.5-0.1,3.7,1.1,6.1,0.3
	c0-0.4-0.1-1,0-1.3c0.1-0.7,0.9-0.3,1-0.5c0.2-0.3,0.6-1.3,0.5-1.8c-0.1-0.9-1-1.8-1-2.5c0-1.4,0.7-1,2-1c0.6,0,0.6-0.1,0.8,0.5
	c0.1,0.5,1.5,0.3,2,0.3c1.4,0,0.7-4,3-4.6c2.5-0.6,1.5-6.6,1.5-8.9c0-1.6,1.5-2.2,3-2.5c-0.2-0.5-0.9-0.1-1.3-0.5
	c-1.1-1.2-1.4-0.5-2.8-0.8c-1.5-0.3-1-0.1-1-1.5c0-0.9-0.6-0.3-1-0.8c-0.8-0.8-1.2,0.1-2.5-0.8c-0.8-0.5-0.8-1.4-1-2.3l0.3-6.8
	c0.5-0.2,0.7-1.1,0.5-1.8c-0.6-1.8-1-0.9-3-1.3c-2-0.4,0.5-2.3-1.8-2.3c-0.6,0-1.5-1-1.5-1.3s0.3-0.3,0.5-0.8c0.5-1.4-2-2.1-0.5-3.3
	c0.3-0.2,1-0.2,1-0.5c0.2-1.2,0.5-1.5,0.5-2.3c0-0.1,0-0.2,0-0.3c0.6-0.1,1.2-0.8,1.9-0.7c0.4,0,5.8,2,4.9,0.2
	c-0.6-1.3,1.2-1.7,2.1-2.4c0.4-0.3,2-0.3,3.1,0.2c0.5,0.2,1-0.9,1.8-0.3c5.1,3.6,3.6-0.8,6.2-0.8c0.5,0,1,0.1,1.5,0
	c0.1,0,0.1-0.1,0.2-0.2c0.1-0.1,0.1-0.2,0.2-0.3c0.1-0.4,0.1,0.1,0.2-0.3c0.1-0.6,0-0.1,0.2-0.3c0.2-0.3-0.2-0.8-0.5-0.8
	c-0.2,0-0.6,0-0.8,0c-0.4,0.1-0.4,0.1-0.5,0.3s0,0.3-0.2,0.5c-0.1,0.1-0.1,0.1-0.2,0.2c-0.2,0.1-0.2,0.2-0.5,0.2s-0.2-0.2-0.2-0.5
	c0-0.8,0.4-1.1-0.2-1.6c-0.7-0.7-2.4-0.8-2.8-1.5c-0.5-1,0-1.6,0.3-2.3c0.3-0.6,0.3-1.5,0.8-1.6c0.9-0.2,1.2-0.7,1.3-1.5
	c0-0.3,3.3-0.6,4.4-0.6v1.8c0,0.8-0.2,1.9,0.7,2.1c1.3,0.3,2.5,1.3,2.9,2.4c0.1,0.2-0.1,0.5,0,0.7c0.1,0.1,1,1.8,1,1.8
	c1,0.1,2.6,0.3,2.6-0.8c0-0.9,0.4-1.8,1.5-1.8c2-0.9,1.8-2,3.9-2c1,0,2.1-1.3,3.3-0.3c1.5,1.2,3.2-0.1,4.2-0.4
	c1.8-0.4,1-1.9,2.9-1.9c1-0.2,1.5,0.1,2.5-0.2c1.6-0.4,0.6-2.6,1.5-2.8c0.6-0.2-0.3-1.5,0.1-1.7c0.8-0.4,1.8-0.3,1.8-1.3
	c0.7-0.3,1.5-0.9,1.5-1.3c0.1-1.5-0.2-3.1,0.2-4.5s0.1-2-1-2.7c-0.7-0.4-0.2-1.2-0.1-1.9h2.4l7.4,6.8c0.5,0.5,0.7,1.7,1.1,2.2
	c0.2,0.3,0.7,0.1,0.9,0.6c0.1,0.3-0.1,1.3,0,1.6c0.1,0.6,2.5,1.3,2.5,2.2c0,1.3,0.7,1.6,0.8,2.7c0.2,1.1,1.2,0.1,1.3,1.2
	c0.1,0,0.6,0.7,0.8,0.9c0.7,0.4,2.3-0.2,3.1,0.4c0.7,0.5,2,0.4,2.7-0.1c0.9-0.7,1.4-0.4,2.3-0.9c0.6-0.3,1.5-0.8,2.1,0
	c0.4,0.5,1.7,3.3,1.7,3.6c0,1.7,0.7,1.3,0.7,2.7c0,0.4,0.1,0.7,0.1,1.2c-1.2,0.6,0.3,1.7-2,2c-1.3,0.2,0.6,2.8-0.8,3.4
	c-3.2,1.4,3.3,3.6,3.8,4.8c0.7,1.7,2.1,2.7,4,2.5c2.1-0.2,1,0.5,2.7,0.7c0.6-0.4,0.7-1.1,1.6-1.4c0.9-0.3,0.4-1.4,1-2
	c0,0,1.3-0.2,1.6-0.5c0.4-0.3,1.3-1.6,1.6-1.8c1.6-0.6,0.3-2.5,2-2.8c0.7-0.1,1.3,0,1.9-0.3c2.2-1.2,1.8,3.1,1.6,4.2
	c-0.3,1.2-1.2,0.5-2.2,0.9c0,1.6,2.1,1.1,3.6,1.3c0.7,0.1,0.6,2.2,0.3,3.2c-0.4,1.3,1,3.1,1.3,2.3c0.1-0.2,0.1-0.3,0.3-0.3
	s0.4,0.1,0.3,0.3c-0.1,0.2-0.6,0.5-0.3,0.6c0.4,0.2,0.9,0,1.3,0c0.5,0.1,0-0.1,0.3,0.6c0.3,0.8,3.8,0.9,4.8,1l0.4,5.3l32.6-0.8
	l-7.1,22c2.3,0.1,4.2,0.2,4.2,2.3v3.2c0,0.7,0.3,2.5-0.3,2.6c-1.7,0.1-1.3-0.1-1.3,1.6c0,1-0.7,0.9-0.6,2.3c0,0.8,0.1,1.5,0.1,2.3
	c-2.6-0.6-5.3-1.1-7.1-2.5c-3.3-0.3-6.6-2.5-9.7-1c-0.7,0.3-5.4,0.3-6-0.2c-1.3-1.1,2.5-0.8,2.6-0.8c0.3,0,2.4-2.2,2.6-2.4
	c1.2-1.2-0.5-3.6-2.2-1.8c-0.8,0.8-0.3,0.3-1.6,0.4c-1,0.1-0.6,1.9-1.6,2.6c-0.9,0.6,0.1,0.9-1.8-0.8c1-0.3,0.4-1,0.4-2
	c0-0.2,0-1,0-1c-0.5-0.5-1.4,0.2-1.8-0.4c-0.3-0.4,0.1-0.8-1.2-0.2c-0.1,0.1-0.1,0.1-0.2,0.2c-1,0.8-0.6,0.6-0.2,1.6
	c0.4,1-0.4,1.4-1,0.8c-0.3-0.3-1.4-0.2-2-0.2c-0.5,0-1.3,0.3-1.6,0.6c-0.9,0.9,0.6,0.5,1.6,0.6c1.1,0.1,0.4-0.2,0.4,0.4
	c0,1.3,5.2,1.4,6.4,1.8c0,0.7-2.6,0.8-3.2,0.8c-1.4,0-2.4-0.6-3.6-0.8c-1.7-0.3-3.1,0.4-4.8,0.8c-1.4,0.3-1,1.1-1.2,2.8
	c0,0.3-1.1,0.8-1.4,1.1c-4.2,4.4-12.3,6.9-19.4,8.8c-1.7,0.5-2.7,2.8-6,3.7c-5.1,1.4-11.7,3.5-15,3.5c-8.8,0-14.6-4.9-22.8-6.5
	c-6.2-0.4-12-0.4-12.4,0.2c-1.7,3-5.9-4.3-9.4-5.4c-2.9-0.9-17.4-4.9-19.5-6.7C600.1,583.7,598.7,582.4,597.1,581.1L597.1,581.1z"/>
<path id="GRO" class="st0" d="M486.8,531.6c-0.1-0.1-0.2-0.2-0.3-0.3c-1.1-0.8-0.8-0.6-1.7-1.8c-0.8-1.1-0.3-3.3,0.1-4.6
	c0.5-1.5,2-1.1,3.4-1.1c0.6,0,2.3-2.2,3.3-2.4c0.6-0.1,4.3,0.4,4.3-0.9c0-0.5-0.8-1.2-1.2-1.5c-0.5-0.4-0.5-1.5-0.5-2.3
	c0-1.4-0.4-3-0.4-4.2c0-0.6,0.4-0.8,0.6-1.3c0.2-0.7,0.1-1.6,0-2.4c-0.1,0,1.5,0.3,2.1,0.3c0.7,0,1.4,0,2.2,0c0.6,0,1.4-0.9,1.7-0.7
	c0.9,0.5,1.8,1.1,3,1.4c0,1,1.4,2.5,2.4,2.5s4.2,0,4.6-0.8c0.6-1.2,9-1.1,10.5-1c0.2,0.4,1.5,2.9,1.6,2.9c0.7,0.4,2.3-0.3,3.1-0.4
	c0.3,0,0.7-0.7,1.4-0.7c2,0,1.8,0,2.3,1.5c0.7,1.7,2.4,1.7,4,2.8c0.8,0,0.7-3.8,0.5-3.9c-1-0.8-1.1-0.4-2.4-1.2
	c-1.7-1.1-1.9-1-1.9-2.9c0-1.3-0.8-1.1-1.1-2.2c-0.1-0.4,0.7-2,0.3-2.3c-1.6-0.5-2.3-3.6,0.1-3.4c0.6,0,2.1,1,2.6,0.4
	c0.6-0.9-0.3-1.1,1.2-1.1c1.2,0,0.2-1.2,1.5-1.4c-0.1,0.4-0.2,0.8-0.1,1.5c0.2,2.8,2.4,0.9,3.5,1.6c0.5,0.3-0.8,0.3-0.8,0.6
	c-0.1,1.8,1.3,0.8,2.2,0.5c0.4-0.2,1.5,0.2,1.1,0.8c-0.3,0.5-1.5,0.4-1.6,0.6c-0.4,0.8-0.2,2.8-0.2,3.7c0,0.7,3.2,0.5,2.4,2.2
	c-0.2,0.4-1.6,0.8-1.1,1.6c0.9,1.5,1.2,1,2.2,2.1c0.8,0.8,0.7,2.3,2.1,2.9c1.9,0.9,0.5-0.8,1.3-1.3c0.9-0.6,2.6-0.3,3.2-1.1
	c0.7-1.1-1.1-2.4,1-3.2c1.9-0.7,0.9-0.5,1.7-1.9c0.6-1,0-1.5,1.6-0.3c1.3,1,1.9,1.5,2.4-0.2c0.4-1.3,4.9-1.3,6.2-1.4V505
	c0-1.4,2.9,0.6,2.4-1.7c-0.1-0.4-0.6-2.4,0.3-2.2c1.9,0.4,0.7,0.3,1.9,1c0.1,0-0.1,1.1,0.6,1.6c0.9,0.6,2.2,1.6,3.3,1.6
	c0.2,0.6,0.2,1.2,0.5,1.8c0.6,1.2,1.8,0.6,2.3,1.7c0.1,0.1,0.4,1.1,0.4,1.1c0.4,0.2-0.5,0.9-0.3,1.3c0.8,1.4,0.3,0.9,3.1,0.9
	c0,1.6,1.2,0.9,2.6,0.9c0.6,0,0.4,0.3,0.8,0.4c1,0.1,1.3,0.2,2.1,0.6c0.1,0,0.2,0.2,0.2,0.2c0.2,0.2,0.2,0.2,0.4,0.5
	s0.9-0.2,1.1-0.1c0.1,0,0.1,1.3,0.1,1.5c0.1,0,0.3-0.1,0.4-0.1c-0.1,0.2-0.1,0.3-0.1,0.5c-0.1,0.5,0.2,1.4,0,1.8
	c-0.6,1.4,2.4,0,1.5,1.5c-0.8,1.3,1.4,0.5,1.5,1c0,0.2,2.1,0.8,2.8,2.1c0.2,0.4-0.2,2.4-0.2,2.4c0.8,0.5,2.7-0.4,3.4,0.3
	c0,0.8,0,1.6,0,2.4c0,0.3,0.7,0.2,1,0.2c1.2,0,0,1.1,1.5,1.1c0.7,0,1.8,0.4,2.6,0c0.1-0.1-0.2-0.8,0.2-1c0.7-0.3,0.5-0.5,1.3-0.5
	c1.5,1.8,1.3-0.5,2.6-0.5c1.8,0,0.9,2.5,2,3.6c0.3,0.3,0.6,0.4,0.8,0.4c0,0.1,0,0.2,0,0.3c0,0.8-0.4,1.1-0.5,2.3
	c0,0.3-0.8,0.3-1,0.5c-1.5,1.2,1,1.9,0.5,3.3c-0.2,0.4-0.5,0.4-0.5,0.8c0,0.3,0.9,1.3,1.5,1.3c2.3,0-0.2,1.9,1.8,2.3
	c2,0.4,2.4-0.5,3,1.3c0.2,0.6,0,1.6-0.5,1.8l-0.3,6.8c0.2,0.9,0.3,1.8,1,2.3c1.3,0.8,1.7-0.1,2.5,0.8c0.5,0.5,1-0.1,1,0.8
	c0,1.4-0.5,1.3,1,1.5c1.4,0.2,1.7-0.5,2.8,0.8c0.4,0.4,1.1,0,1.3,0.5c-1.5,0.3-3,1-3,2.5c0,2.3,1,8.3-1.5,8.9
	c-2.3,0.5-1.7,4.6-3,4.6c-0.6,0-1.9,0.3-2-0.3s-0.2-0.5-0.8-0.5c-1.4,0-2-0.4-2,1c0,0.8,0.9,1.7,1,2.5c0.1,0.5-0.3,1.4-0.5,1.8
	c-0.1,0.2-0.9-0.2-1,0.5c-0.1,0.3,0,0.9,0,1.3c-2.4,0.9-3.6-0.3-6.1-0.3c-1.2,0-0.6,0.4-1.3,0.5c-0.3,0-0.5,0.1-0.6,0.1
	c-2.4-2.1-5.2-4.3-7-4.5l-7.2-1.1c-0.3,0-0.1-1.8-1.1-1.3c-0.9,0.4-10.5-1.6-15.6-1.6c-2.5,0-3.1-1-4.8-2.1
	c-3.7-2.3-5.5-3.6-9.4-4.9c-8.1-2.6-15.7-7.8-26.9-8.2c-2.8-0.1-11.9-9.8-17.4-11.6c-8-2.7-9.7-13.7-15.9-15.3
	C489.7,530.3,488.1,531,486.8,531.6L486.8,531.6z"/>
<path id="VER" class="st0" d="M638.1,414.7c-0.1,0-0.1-0.2-0.2-0.3c0-0.1-0.1-0.1-0.2-0.2c-0.2-0.2-0.1-0.4-0.2-0.6
	c0-0.1-0.2-0.1-0.3-0.2s-0.1-0.2-0.2-0.3c-0.1-0.2,0.1-0.2,0.2-0.5c0-0.4,0-0.8,0-1.2c0-0.1-0.1-0.3,0-0.3c0.2-0.1,0.9,0,1.2,0
	s0.2,0.1,0.3,0.3c0.1,0.4,0.1,0,0.2,0.3c0,0.3,0,0.7,0,1.1c0,0.5,0,0.4-0.5,1.2C638.6,414.4,638.3,414.5,638.1,414.7z M626.8,410.1
	h-0.2v-0.2h-0.2c-0.1,0-0.1-0.2-0.2-0.3c0-0.3-0.1-0.6,0.2-0.6c0.5-0.1,0.2,0.1,0.3,0.2s0.2,0,0.3,0c0.6,0,0.1,0.1,0.5,0.3
	c0.1,0,0.2-0.1,0.3,0c0.2,0.2-0.1,0.3,0,0.8C627.6,410.1,627.2,410.1,626.8,410.1L626.8,410.1z M748.8,550.3l-32.6,0.7l-0.4-5.3
	c-1-0.1-4.5-0.2-4.8-1c-0.3-0.7,0.2-0.6-0.3-0.6c-0.4,0-0.9,0.2-1.3,0c-0.2-0.1,0.2-0.4,0.3-0.6c0.1-0.2-0.1-0.3-0.3-0.3
	s-0.3,0.1-0.3,0.3c-0.3,0.8-1.7-0.9-1.3-2.3c0.3-1,0.4-3.2-0.3-3.2c-1.4-0.1-3.6,0.3-3.6-1.3c1-0.3,1.9,0.3,2.2-0.9
	c0.3-1.1,0.6-5.4-1.6-4.2c-0.6,0.3-1.2,0.2-1.9,0.3c-1.7,0.3-0.4,2.2-2,2.8c-0.4,0.1-1.3,1.5-1.6,1.8c-0.4,0.3-1.6,0.5-1.6,0.5
	c-0.6,0.6,0,1.8-1,2c-0.8,0.2-1,0.9-1.6,1.4c-1.7-0.2-0.6-1-2.7-0.7c-1.9,0.2-3.2-0.8-4-2.5c-0.5-1.2-7.1-3.5-3.8-4.8
	c1.4-0.6-0.5-3.2,0.8-3.4c2.2-0.4,0.8-1.4,2-2c0-0.5-0.1-0.7-0.1-1.2c0-1.5-0.7-1.1-0.7-2.7c0-0.3-1.3-3.1-1.7-3.6
	c-0.6-0.8-1.5-0.3-2.1,0c-0.9,0.5-1.3,0.2-2.3,0.9c-0.7,0.5-2,0.6-2.7,0.1c-0.8-0.6-2.5,0-3.1-0.4c-0.3-0.2-0.8-0.9-0.8-0.9
	c-0.1-1.1-1.1-0.2-1.3-1.2s-0.8-1.4-0.8-2.7c0-0.9-2.4-1.6-2.5-2.2c-0.1-0.3,0.1-1.3,0-1.6c-0.2-0.4-0.7-0.3-0.9-0.6
	c-0.4-0.5-0.6-1.8-1.1-2.2l-7.4-6.8h-2.4c-0.1,0.7-0.6,1.4,0.1,1.9c1.1,0.6,1.4,1.3,1,2.7c-0.4,1.4-0.1,3-0.2,4.5
	c0,0.4-0.8,1-1.5,1.3c-0.7-0.2-1-0.5-1.1-1.3c0-0.3,0-0.5,0-0.8c-0.1-0.8-0.3,0.5-0.3,0.7s-0.6,0.4-0.7,0.3c-0.3-0.6,0.1-1-0.3-1.5
	c-0.4-0.5-0.1-1-1-1c-1.3,0-0.8,0-1.1-0.7c-0.5-0.7-1.4-0.7-2.4-0.7c-0.5,0-1.9,0.3-2,0.7c-1,1.5-0.2,1-2.1,1.3
	c-0.5,0.1,0.3,1.7-0.8,1c-1-0.7-0.7-2.2-0.7-3.3c0-0.2,0-0.5,0-0.7c-0.1-0.6-0.4,0.5-1,0.2c-0.5-0.3,0.3-2.1-1-2.1
	c-0.5,0-1,0-1.5,0.2c-0.8,0.2-0.4,0.5-1.3,0.5c0-0.8,0.1-0.6-0.2-0.8c-0.2-0.2-0.3-0.3-0.3-0.5c-0.1-0.4-0.7-0.8-1.1-1
	c-0.5-0.2-0.5-3.5-0.5-4.2c1.1,0,1.5,0.3,1.5-1c0-0.6-0.3-0.9,0.2-1.3c0.2-0.2,0.6-0.3,0.8-0.3c0.1,0,0.5,0,0.5,0s0.2-0.6,0.2-0.7
	c0-0.2-0.3-0.4-0.7-0.5c-0.9-1-1.1-2.2-0.7-3.6c0.3-0.8,1.8,0.2,1.8-1c0-0.5-0.3-0.6-0.3-0.8c-0.1-1.1,0.4-0.8,1.3-0.8
	c0.5,0-0.2-1.4,0.3-1.5c2.9-0.5,2,1.5,4.6,1.5c0-0.7-0.1-1.1-0.3-1.8c-0.3-0.8-0.2-0.9,0.2-1.3l0.2-0.2c0.4-0.4,0.6-0.2,0.8-0.8
	c0.2-0.4,0-1.5,0-2s-0.4-0.3-0.5-0.7c-0.1-0.4-0.2-0.8-0.2-1.3c-1.3,0.1-0.3,0.2-1.5,0.7c-0.6,0.2-1.3,0.2-2,0.2h-1.3h-1.8l-0.3-1.8
	l-4.2-0.7c-0.1-0.5-0.2-0.7-0.2-1.1c0-0.2-0.1-0.6,0-0.8c0-0.1,0.1,0,0-0.2c-0.1-0.1,0-0.3-0.2-0.3h-0.2v-0.2c0-0.3-1.3,0-1.6,0
	c0-2-0.2-2.6,0.3-4.1c0.2-0.5-1.2-0.9,0.2-1.1c1.9-0.3,2.9,1,2.9-1.5c0-1.9-0.8-2.9,0.2-4.6c0.7-1.2,0.2-1,0.3-2.4
	c0.1-0.5,1-1.4,1.5-1.6c0.4-0.2,0.6-2.7,0.8-3.1c0.1-0.2,1.2-0.2,1.6-0.8c0.5-0.6,0.5-0.7,0.5-1.8c-2.1-0.9-1.2-0.3-2.4-1.8
	c-0.4-0.5-3.7,0.4-4.4-0.3c-0.5-0.5-0.3-1.2-1.3-1.5c-1.1-0.3-2.3,1.5-2.4,2.3c-0.2,1.3,0.7,1.1-1.1,1.3c-0.5,0.1-0.4,1.3-0.8,1.6
	c-0.6,0.5-0.7-1.8-1.8-1.8c-0.3,0-1.9,0.1-2-0.2c-0.1-1.6-0.5-1-2.3-1c-1-1.7,1.2-0.8,0.8-1.8c-0.1-0.3-0.2-0.7-0.3-0.8
	c-0.8-0.8-1-0.1-1-1.5c0-1.9-1.9-7.2,2.1-4.1c0.6,0.5,1.8,1.8,2.8,1.1c0.1,0,0-1.8,0.5-2.3c0.4-0.4,1.5-1,1.5-1.5v-1.1
	c0-0.5-0.9-0.5-1.3-0.5c-1.3-0.1-3.4-0.1-4.4-0.8c-1-0.7-1.3-0.6-1.3-1.8c1.6-1.6,0.7-1.3,0.5-2.9c-0.1-0.8,0.4-3.4-0.2-3.9
	c-0.3-0.3-2.7-0.4-3.1-0.3c-1,0.3-1.2,1.3-1.6,2.3c-0.2,0.5-1.1,1.7-1.1,2.3c0,0.8,0.5,0.8,0.5,2c0,1-0.6,2.7-1.1,3.3
	c-0.2,0.2-0.9,0.3-1.7,0.3c0-0.1,0-0.1,0-0.1c-0.1-0.5-0.2-0.3-0.4-0.4c-0.4-0.3,0.1-0.3-0.6-0.4c-0.1,0-0.7-0.4-0.8-0.6
	c-1.1-2.9-4.1,1.9-5.3,3.4c-1.5,1.9-4.7,1.6-5.9,3.6c-0.4,0.7-0.8,1.1-1.3,1.9c-0.2,0.4-2.2-0.2-2.9-0.2c-0.6,0-0.4-2.2-0.4-2.9
	c0-1.6-0.6-2,0-3.1c0.7-1.3,0.8-0.9,1.5-1.3c0.6-0.4,1.3-1.9,1.7-2.5c1.3-1.1,2.3-0.7,2.3-1.5V437H601c-1.1,0-0.9,0.1-1.5,0.8
	c-0.5,0.6-1.4,0.4-2.3,0.4c-0.7,0-0.6-0.3-0.6-1c0.6-0.2,0.5-1.2,1.3-1.5c0.9-0.3,2-0.1,2.7-0.8c0.5-0.5,0.2-1.2,0.6-1.7
	c0.5-0.6,1.2-0.4,2.3-0.4c1.4,0,0.2,2,0.2,2.1c0,0.7,1,0.3,1,1c0,0.3-0.1,0.4,0.2,0.4c0.2,0,1,0,1.1,0c0.1-0.1,0.3-1.8,0.4-2.1
	c-0.2,0,1.1,0.2,1.1-1.5c0-1.3-0.4-1.9,0.3-2.6c0.9-1,1.6-2.6,2-3.5c0.6-1.1-1.4-7.9-4.2-4.5c-0.5,0.6-2,0-2.3,0
	c-0.4,0-1.8-0.2-2.2-0.5c-0.6-0.4,0.2-1.3-2.1-2.9l1-4.4l-1.6-0.1l-0.8-3.8H596c-0.6,0-0.5,0.2-0.5-0.4c0-0.8-0.1-1-0.1-1.8
	c0-0.4-0.2-0.3-0.3-0.4c-0.2-0.4-0.1-0.9-0.3-1.4c-0.1-0.3-0.3-0.8-0.3-1.1l4.6-2.3l-0.1-1.9c-0.4-1.7-1.1-1.2-2.7-1.6
	c-0.2-0.1,1,0,1.2-0.7c0.9-2.9-0.2-4.4,2.3-6.2c1.4-1,3.3-7.3,0.7-7.3c-1.4,0-4.3-0.4-4.6-1.6c-0.1-0.3-0.1-0.6-0.1-0.9
	c1.2-4.2,3.7,0,5.6-1.9c0.4-0.4,1.2,0,1.2-0.7c0.2-1.4,1.3-1.7,2.7-1.6c4.4,0.1,2.5,5.6,7.3,6c0.5,0,2.4,0.8,4.5,1.3
	c-0.6,0-2.9,0-2.2,0h0.2v0.2c0,0.5,0.9,0.2,1.4,0.3c0.4,0.1,0.9,0.1,0.9,0.6v0.2c0,0.2,1.1,0.3,1.2,0.3c0,4.6,2.3,7,4.2,10.5
	c0.9,1.6,2.8,4.7,4.2,5.6c2.1,1.3,4.6,1.8,5,4.5c0.6,1.9-0.3,5-0.3,6.6c0,1,0,1.4-0.3,2c-0.2,0.5,1.3,2.4,0.8,2.6
	c-2.4,0.6-2.6-2.7-2.6-4.2c0-2,0.3-3.4,0.3-5.4c0-1.2-1.8-0.3-1.8-1.7c0-0.9-1.7-2.3-2.7-2.7c-2-0.8-2-2.1-2.7-3.8
	c-0.7-1.8,1.3-1.9-1.8-2.4c0,3.3,1.1,3.4,1.8,5.6c0.6,2,1.2,6.4,3.5,6.6c1.5,0.1,1.1,3.6,1.8,4.5c1.3,1.9,2.3,4.2,3.3,6.3
	c0.8,1.8-0.7,2,2,4.3c1,3.9,8.2,15.6,10.6,17.7c5.3,4.4,16.1,15.5,19.3,23.6c2.8,7.1,3.3,15.2,7,15.8c2,0.3,5.6,4.8,7.3,6.3
	c5.3,4.8-2.9,5.5,7.8,9c1.8,2.3,3.2,1.6,6.8,1.6c5.3,0,9.3-0.5,14.8,0.2c1.2,0.2,4.2,4.2,4.2,4.2c5.4,0,4.2-0.6,6.8,3.7
	c1.3,2.2,3.4,1.9,4,3.5c1.2,3.2,2.3,7.1,6.8,6.1c0-1.4,5.1-0.4,6.8-0.9c1.6-0.5,2.5-1.4,3.6-2.1l1.3,2.3c0,1.2,0.3,2.1,0.3,3.3
	c0,1.6,0.5,0.6,1,1.5c0.2,0.4-1.5,2.2-0.5,3.6c0.2,0.3,2.6-0.3,3.1,0c1.5,0.9-0.9,1.4,2,2.5c1.2,0.9,1.6,2.7,3.3,2.8
	c1.6,0.1,4,1.1,3.6,2.5c-0.5,1.7,2,1.6,2.3,2.3c0,0.1,0.5,4.4-0.3,4.8c-1.6,0.9,0.6,2.8-0.3,5.1c-0.4,1.1-2.7,0.2-3.6,1
	c-0.9,0.9,0.2,1.8-0.3,2.3C750.4,550,749.7,550,748.8,550.3L748.8,550.3z"/>
<path id="PUE" class="st0" d="M583.6,515.9c0.3-0.1,0.6-0.1,0.9-0.1c0.4-0.1,0.4-0.6,0.6-0.9c0-0.1,0.3-0.6,0.4-0.7
	c0.2-0.4-0.1-0.4,0.4-0.4c0.2,0,0.4,0,0.7-0.1c0.2-0.5,2.3-0.3,2.3-1.2c0-1.3-0.1-1.5,1.3-1.7c0.5-0.1,1.4-0.4,1.2,0.1
	c-0.3,0.8,0.7,0.1,1,0.4c0.4,0.2-0.3,0.5,0.5,0.5c0.5,0,0.8,0.3,1,0.6c0.6,0.8,0,0.3,1,0.1c0.2-1.9,0.4-1.8-0.7-3.5
	c-1-1.5,1-3.5-1.4-3.6c-0.8,0,0.5-2.7,0.4-2.8c-0.2-0.2-0.7,0.1-0.6-0.4c0.1-1.2,1.4-2,1.2-2.8s1.1-0.7,1.9-1.2v-4.6l0.2-0.2
	l0.3-2.1l-0.6-0.5c-0.2-0.2-0.4,0.3-0.5-0.2c0-0.3,0.1,0,0.2-0.3c0.1-0.4,0.2-0.5,0.2-1c0-0.3-0.2-0.8,0.2-0.8
	c0.3,0,0.5,0.1,0.5-0.2c0-0.2,0.1-0.5,0-0.6s-0.2-0.1-0.3-0.2s-0.3-0.7,0-0.8c0.3-0.6,0.6-1.1,0.5-1.7c0-0.1-0.3-0.6-0.3-0.6
	s-0.4,0-0.5,0c-0.8,0-2.7-0.2-1.9-0.2h0.2c0.3,0-0.2-0.2,0.3-0.2h0.6l0.5-5.7l2.2,0.1l3.2,2.3l1.3,3.8l3.5,2.2l1.5,2
	c0.9,0,1.4-0.4,1.4,0.5c0,0.3,0.1,0.4,0.1,0.7c0,0.7,0.6-0.1,0.8,0.7c0.1,0.6-0.1,0.7,0.6,0.7c0.5,0,0.7-0.1,1.1-0.2
	c0.5-0.1,0.6-0.3,0.6-0.8l0.1-0.4c0-0.1,0.7-0.4,0.8-0.5l3.7-3.4c0.5,0,0.8,0.7,0.8,1.1c-0.1,0.5,1.1,0.3,1.4,0.4
	c0.5,0.1,0.7,0.1,0.7-0.4c0.1-1.2,1.9,0.6,1.9-1.4c0-3.1,0.5-2.3,3.1-2.3c1.2,0,2,0.2,3.2,0.2c1.3,0,1-0.6,1.6-0.8
	c0-0.1-3.2-2.5-2.9-2.3c0.6,0.6-1.2-0.1-1.7-0.3c-1.4-0.5-0.3-1.7-0.8-2.2c-0.6-0.5-1.7-1.1-2.4-1.1c-1.6-0.1-0.9-2.3-2.3-2.7
	c-0.5-0.1-1.3,0.3-1.4-0.2c-0.3-0.7,0.2-1.7-0.3-2.3l-4.3-1.2c0,0.9-0.3,0.9-1.1,1c-0.2,0,0.1,0.5-0.3,0.3c-0.7-0.4-1.1-0.8-2-1
	l-0.9-0.6c0.8-1.4-0.9-2.5-1.7-3.3c-1-1.2-0.7-2.9,0.4-3.6c2.4-1.4,2.6-5.7,4.4-8c0.9-1.1,0.2-0.8-0.8-1.9c-0.9,0-0.1-0.7-1.3-0.8
	c-0.5-0.1,0.1-1.6-0.8-1c-0.9,0.6,0.1,1.8-1.9,1.7c-1-0.1-1.8-0.6-1.3-1.9s2.9-0.6,4-0.8c0.7-0.1,1.8-2.3,2.1-2.9
	c0.2-0.5,0.5-2,0.8-2.1c1.7-0.4,1.3,0.2,2.3-1.5c0-0.8,0.4-1.3,0.5-2c0.7,0,1.4-0.1,1.7-0.3c0.6-0.6,1.1-2.3,1.1-3.3
	c0-1.2-0.5-1.1-0.5-2c0-0.6,0.9-1.8,1.1-2.3c0.4-0.9,0.7-2,1.6-2.3c0.4-0.1,2.8,0,3.1,0.3c0.5,0.5,0,3.1,0.2,3.9
	c0.2,1.6,1.1,1.4-0.5,2.9c0,1.1,0.3,1.1,1.3,1.8c1,0.7,3.1,0.7,4.4,0.8c0.4,0,1.3,0,1.3,0.5v1.1c0,0.5-1.1,1.1-1.5,1.5
	c-0.5,0.5-0.4,2.2-0.5,2.3c-1,0.7-2.1-0.6-2.8-1.1c-4.1-3.1-2.1,2.2-2.1,4.1c0,1.4,0.2,0.7,1,1.5c0.1,0.1,0.2,0.5,0.3,0.8
	c0.4,0.9-1.8,0.1-0.8,1.8c1.8,0,2.2-0.6,2.3,1c0,0.3,1.7,0.2,2,0.2c1.1,0,1.2,2.3,1.8,1.8c0.4-0.3,0.3-1.6,0.8-1.6
	c1.8-0.2,1,0,1.1-1.3c0.1-0.8,1.3-2.6,2.4-2.3c1,0.3,0.8,0.9,1.3,1.5c0.7,0.7,4-0.1,4.4,0.3c1.2,1.5,0.3,0.9,2.4,1.8
	c0,1.1,0,1.2-0.5,1.8c-0.5,0.6-1.5,0.6-1.6,0.8c-0.2,0.4-0.4,2.9-0.8,3.1c-0.5,0.3-1.4,1.2-1.5,1.6c-0.2,1.4,0.3,1.3-0.3,2.4
	c-0.9,1.7-0.2,2.7-0.2,4.6c0,2.5-1.1,1.1-2.9,1.5c-1.4,0.3,0,0.6-0.2,1.1c-0.6,1.5-0.3,2.1-0.3,4.1c0.3,0,1.6-0.3,1.6,0v0.2h0.2
	c0.1,0,0.1,0.2,0.2,0.3c0.1,0.1,0,0,0,0.2c-0.1,0.2,0,0.6,0,0.8c0,0.5,0,0.6,0.2,1.1l4.2,0.7l0.3,1.8h1.8h1.3c0.7,0,1.3,0.1,2-0.2
	c1.1-0.4,0.2-0.6,1.5-0.7c0,0.5,0,0.9,0.2,1.3c0.1,0.4,0.5,0.1,0.5,0.7c0,0.4,0.2,1.6,0,2c-0.2,0.6-0.4,0.4-0.8,0.8l-0.2,0.2
	c-0.4,0.4-0.5,0.5-0.2,1.3c0.3,0.7,0.3,1.1,0.3,1.8c-2.5,0-1.6-2-4.6-1.5c-0.5,0.1,0.2,1.4-0.3,1.5c-0.9,0.1-1.4-0.3-1.3,0.8
	c0,0.2,0.3,0.4,0.3,0.8c0,1.2-1.5,0.2-1.8,1c-0.5,1.4-0.3,2.6,0.7,3.6c0.3,0.1,0.6,0.2,0.7,0.5c0,0.1-0.1,0.6-0.2,0.7
	c0,0-0.4,0-0.5,0c-0.2,0-0.6,0.2-0.8,0.3c-0.5,0.4-0.2,0.7-0.2,1.3c0,1.2-0.3,1-1.5,1c0,0.8,0,4,0.5,4.2c0.4,0.2,1,0.6,1.1,1
	c0.1,0.2,0.1,0.3,0.3,0.5c0.3,0.2,0.2,0.1,0.2,0.8c0.9,0,0.5-0.3,1.3-0.5c0.5-0.1,0.9-0.2,1.5-0.2c1.3,0,0.4,1.8,1,2.1
	c0.5,0.3,0.9-0.7,1-0.2c0,0.2,0,0.4,0,0.7c0,1.1-0.4,2.6,0.7,3.3c1.1,0.7,0.4-0.9,0.8-1c1.9-0.3,1.1,0.2,2.1-1.3
	c0.1-0.4,1.5-0.6,2-0.7c1-0.1,2-0.1,2.4,0.7c0.4,0.6-0.1,0.7,1.1,0.7c0.9,0,0.6,0.5,1,1s0,0.8,0.3,1.5c0,0.1,0.6-0.1,0.7-0.3
	c0-0.1,0.2-1.5,0.3-0.7c0,0.3,0,0.5,0,0.8c0.1,0.8,0.4,1.1,1.1,1.3c0,1-1,0.9-1.8,1.3c-0.4,0.2,0.5,1.6-0.1,1.7
	c-0.9,0.3,0.1,2.4-1.5,2.8c-1,0.2-1.6,0-2.5,0.2c-2,0-1.1,1.5-2.9,1.9c-1,0.2-2.7,1.6-4.2,0.4c-1.2-0.9-2.2,0.3-3.3,0.3
	c-2.1,0-1.9,1.2-3.9,2c-1.1,0-1.5,0.9-1.5,1.8c0,1-1.7,0.9-2.6,0.8c0,0-1-1.7-1-1.8c-0.1-0.1,0.1-0.5,0-0.7
	c-0.5-1.2-1.7-2.1-2.9-2.4c-0.8-0.2-0.7-1.4-0.7-2.1v-1.8c-1.1,0-4.4,0.2-4.4,0.6c-0.1,0.8-0.3,1.3-1.3,1.5c-0.5,0.1-0.6,1-0.8,1.6
	c-0.3,0.7-0.9,1.3-0.3,2.3c0.3,0.6,2.1,0.8,2.8,1.5c0.5,0.5,0.2,0.8,0.2,1.6c0,0.3-0.1,0.5,0.2,0.5s0.2,0,0.5-0.2
	c0.1-0.1,0.1-0.1,0.2-0.2c0.1-0.2,0.1-0.3,0.2-0.5c0.1-0.3,0.1-0.3,0.5-0.3c0.2,0,0.6,0,0.8,0c0.3,0,0.7,0.5,0.5,0.8
	s-0.1-0.2-0.2,0.3c0,0.4-0.1-0.1-0.2,0.3c0,0.1-0.1,0.2-0.2,0.3c-0.1,0.1-0.1,0.1-0.2,0.2c-0.5,0.1-1,0-1.5,0
	c-2.6,0-1.1,4.4-6.2,0.8c-0.8-0.5-1.3,0.6-1.8,0.3c-1-0.5-2.7-0.5-3.1-0.2c-0.9,0.8-2.8,1.2-2.1,2.4c0.9,1.8-4.5-0.1-4.9-0.2
	c-1-0.1-1.8,1.3-2.8,0.3c-1-1.1-0.1-3.6-2-3.6c-1.3,0-1.1,2.3-2.6,0.5c-0.8,0-0.6,0.2-1.3,0.5c-0.3,0.2,0,0.9-0.2,1
	c-0.8,0.4-1.9,0-2.6,0c-1.5,0-0.3-1.1-1.5-1.1c-0.3,0-1,0.1-1-0.2c0-0.8,0-1.6,0-2.4c-0.7-0.7-2.6,0.2-3.4-0.3
	c-0.1-0.1,0.4-2,0.2-2.4c-0.7-1.3-2.7-1.9-2.8-2.1c-0.1-0.5-2.3,0.3-1.5-1c0.9-1.5-2,0-1.5-1.5c0.2-0.4-0.1-1.3,0-1.8
	C583.5,516.2,583.5,516.1,583.6,515.9L583.6,515.9z"/>
<path id="TLA" class="st0" d="M595,478.5l2.2,0.1l3.2,2.3l1.3,3.8l3.5,2.2l1.5,2c0.9,0,1.4-0.4,1.4,0.5c0,0.3,0.1,0.4,0.1,0.7
	c0,0.7,0.6-0.1,0.8,0.7c0.1,0.6-0.1,0.7,0.6,0.7c0.5,0,0.7-0.1,1.1-0.2c0.5-0.1,0.6-0.3,0.6-0.8l0.1-0.4c0-0.1,0.7-0.4,0.8-0.5
	l3.7-3.4c0.5,0,0.8,0.7,0.8,1.1c-0.1,0.5,1.1,0.3,1.4,0.4c0.5,0.1,0.7,0.1,0.7-0.4c0.1-1.2,1.9,0.6,1.9-1.4c0-3.1,0.5-2.3,3.1-2.3
	c1.2,0,2,0.2,3.2,0.2c1.3,0,1-0.6,1.6-0.8c0-0.1-3.2-2.5-2.9-2.3c0.6,0.6-1.2-0.1-1.7-0.3c-1.4-0.5-0.3-1.7-0.8-2.2
	c-0.6-0.5-1.7-1.1-2.4-1.1c-1.6-0.1-0.9-2.3-2.3-2.7c-0.5-0.1-1.3,0.3-1.4-0.2c-0.3-0.7,0.2-1.7-0.3-2.3l-4.3-1.2
	c0,0.9-0.3,0.9-1.1,1c-0.2,0,0.1,0.5-0.3,0.3c-0.7-0.4-1.1-0.8-2-1l-0.9-0.6c-0.1,0.1-0.1,0.2-0.2,0.3c-1.3-0.4-3-0.8-3.2,0.8
	c0,0.3-0.6,0.4-0.8,0.6c0,0-1.1,2.1-1.3,0.4c-0.1-1.1-0.7,0.1-1.1,0.2c-0.4,0.1-0.6-0.1-0.8,0.2c-0.2,0.2-0.7,0.9-1,1
	c-0.8,0.3-2.5,0-3.4,0c-0.3,0.3-0.6,0.4-0.8,0.6c-0.1,0.1-0.1,0.5-0.5,0.5c-0.6,0-1.2,0-1.3,0.5c-0.1,0.6-0.2,1-0.2,1.7
	c0,0.4,1.2,0.7,1.4,0.8L595,478.5L595,478.5z"/>
<path id="MOR" class="st0" d="M569.7,505.2c0.2,0.6,0.2,1.2,0.5,1.8c0.6,1.2,1.8,0.6,2.3,1.7c0.1,0.1,0.4,1.1,0.4,1.1
	c0.4,0.2-0.5,0.9-0.3,1.3c0.8,1.4,0.3,0.9,3.1,0.9c0,1.6,1.2,0.9,2.6,0.9c0.6,0,0.4,0.3,0.8,0.4c1,0.1,1.3,0.2,2.1,0.6
	c0.1,0,0.2,0.2,0.2,0.2c0.2,0.2,0.2,0.2,0.4,0.5s0.9-0.2,1.1-0.1c0.1,0,0.1,1.3,0.1,1.5c0.4-0.1,0.9-0.2,1.3-0.2
	c0.4-0.1,0.4-0.6,0.6-0.9c0-0.1,0.3-0.6,0.4-0.7c0.2-0.4-0.1-0.4,0.4-0.4c0.2,0,0.4,0,0.7-0.1c0.2-0.5,2.3-0.3,2.3-1.2
	c0-1.3-0.1-1.5,1.3-1.7c0.5-0.1,1.4-0.4,1.2,0.1c-0.3,0.8,0.7,0.1,1,0.4c0.4,0.2-0.3,0.5,0.5,0.5c0.5,0,0.8,0.3,1,0.6
	c0.6,0.8,0,0.3,1,0.1c0.2-1.9,0.4-1.8-0.7-3.5c-1-1.5,1-3.5-1.4-3.6c-0.8,0,0.5-2.7,0.4-2.8c-0.2-0.2-0.7,0.1-0.6-0.4
	c0.1-1.2,1.4-2,1.2-2.8s1.1-0.7,1.9-1.2l0.1-4.7l-2,2.1l-2.9,0.2l-2.4-2.2l-0.8-1.9h-1.2l-0.3,0.7l-0.4-0.3l-1.5,0.1l-1.3,0.9
	l-1.3-1l-4.4-0.3l-2.4-1.7l-0.1,5.2c0,0.5,0,0.5,0.3,1c0.1,0.1,0.5,0.8,0.3,1s-0.2-0.2-0.3,0.2c-0.1,0.4-0.6,0.6-0.6,1v0.2
	c0,0.1-0.2-0.2-0.3-0.2h-0.5l-1-0.5l-2.9,2.4L569.7,505.2L569.7,505.2z"/>
<path id="CMX" class="st0" d="M574.8,490.1l0.1-1.7c-0.4-0.2-1.1-0.5-1.1-0.8c0-0.4,0.3-0.9,0.2-1.1c-0.1-0.4-0.9,0.1-1.3-0.2
	c-0.3-0.2-0.3-0.4-0.3-0.8c0-0.3-0.2-1.6,0.2-1.6c0.1,0,0.9,0.1,1,0s0-0.8,0.2-1c0,0,0.4,0,0.5,0c1,0.1,0.1,0,0.6,0.2l3.1-3.3
	l-1-0.2l0.3-1.9l1.5,0.1l-0.1-1.5l0.8-2.8l1.4,1.3l-1.1,2.4l2.7,0.8l0.6,1.7l-0.2,1.6l3.7,2.1l-0.2,3l1.1,1l-1.1,0.4l0.2,3.8
	l-0.3,0.7l-0.4-0.3l-1.5,0.1l-1.3,0.9l-1.3-1l-4.4-0.3L574.8,490.1L574.8,490.1z"/>
<path id="HGO" class="st0" d="M598.1,414.6l1.6,0.1l-1,4.4c2.3,1.6,1.5,2.5,2.1,2.9c0.4,0.3,1.8,0.5,2.2,0.5c0.3,0,1.8,0.6,2.3,0
	c2.7-3.4,4.8,3.4,4.2,4.5c-0.5,0.8-1.1,2.5-2,3.5c-0.7,0.7-0.3,1.3-0.3,2.6c0,1.7-1.3,1.5-1.1,1.5c-0.1,0.3-0.3,2-0.4,2.1
	c0,0-0.8,0-1.1,0s-0.2-0.1-0.2-0.4c0-0.8-1-0.3-1-1c0-0.1,1.2-2.1-0.2-2.1c-1.1,0-1.8-0.1-2.3,0.4c-0.4,0.5-0.2,1.2-0.6,1.7
	c-0.8,0.8-1.8,0.5-2.7,0.8c-0.8,0.2-0.6,1.3-1.3,1.5c0.1,0.8-0.1,1,0.6,1c0.9,0,1.8,0.2,2.3-0.4c0.6-0.7,0.4-0.8,1.5-0.8h1.9v0.8
	c0,0.7-1,0.3-2.3,1.5c-0.4,0.6-1.1,2.2-1.7,2.5c-0.7,0.4-0.8,0-1.5,1.3c-0.5,1,0,1.4,0,3.1c0,0.7-0.2,2.9,0.4,2.9
	c0.7,0,2.7,0.7,2.9,0.2c0.4-0.8,0.8-1.2,1.3-1.9c1.2-1.9,4.3-1.7,5.9-3.6c1.2-1.4,4.2-6.3,5.3-3.4c0.1,0.3,0.7,0.6,0.8,0.6
	c0.7,0.1,0.2,0.1,0.6,0.4c0.2,0.2,0.4-0.1,0.4,0.4c0.1,0.8-0.4,1.3-0.4,2.1c-1,1.7-0.6,1-2.3,1.5c-0.3,0.1-0.6,1.6-0.8,2.1
	c-0.3,0.7-1.4,2.8-2.1,2.9c-1.1,0.2-3.5-0.5-4,0.8s0.3,1.8,1.3,1.9c2,0.2,1-1.1,1.9-1.7s0.4,1,0.8,1c1.1,0.1,0.4,0.8,1.3,0.8
	c1,1,1.7,0.8,0.8,1.9c-1.8,2.3-2,6.6-4.4,8c-1.1,0.6-1.5,2.4-0.4,3.6c0.8,0.9,2.6,2,1.5,3.6c-1.3-0.4-3-0.8-3.2,0.8
	c0,0.3-0.6,0.4-0.8,0.6c0,0-1.1,2.1-1.3,0.4c-0.1-1.1-0.7,0.1-1.1,0.2c-0.4,0.1-0.6-0.1-0.8,0.2c-0.2,0.2-0.7,0.9-1,1
	c-0.8,0.3-2.5,0-3.4,0c0-0.7,0.2-1.6-0.4-1.9c-0.8-0.4-2,0.1-2.9-0.2c-0.2-0.1,0.1-0.3,0.2-0.4c0.4-0.4,0.7,0,1-0.4
	c0.4-0.5,1.1-0.5,1.5-1c0-0.1,0.6-0.8,0.4-1c-0.2-0.2-0.6-0.3-0.6-0.6c-0.1-0.3-0.1-0.7-0.2-1c-0.2-0.6-0.3-1.8-0.6-1.9
	c-0.4-0.2-1.8-0.1-1.9,0.2c-2.4-0.2-0.9,0-4.8,0c-1.5,0-1.2,0.5-1.7,0.6c-0.2,0.1-3.4,3.8-3.2,1.3c0.1-0.5-0.7-1-0.6-1.7
	c0-0.4,1-0.1,1.3-0.4c0.5-0.5,1.5-1,1.5-2.1c0-1.8-3.8-0.7-3.4-1.5c0.5-0.8-1.9,0.4-1.9,0.4c-0.1,1,0.7,0-0.2,1.3
	c-0.4,0.6-0.8,4.2-1.5,4.2c-1,0-1.9,0.1-2.9,0.2c-0.6,0.1-0.9,0.4-1.3,1c-0.2,0.5-1.1,0-1.3,0.2c-0.3,0.3-0.6,2.4-0.6,0.6
	c0-1.1-2-3.8-2.7-4c-1.9-1.1-0.1-1.2,0-2.1c0.2-1.9,0.6-1.3-0.8-1.9c-0.4-0.2-1-3.8-1.5-4.2c-0.3-0.3-1.9-1.9-1.9-1.9
	c-1.2-0.3-3.9,1.1-4.4,0.6c-0.3-0.3-0.1-1.2-0.8-1.3c-1.8-0.1-1.7-1.4-3.1-2.4l0.6-8.7c0.7,0.3,2.6,0.8,3.2,0c0.8-1-0.6-0.5,0.7-0.9
	c0.9-0.3,2.4-0.3,2.5-1.2c0.1-0.5,1.6,0.2,2-0.7c0.6-1.7,1.8-0.7,1.8-2.8c0-0.9-1.5-7,1.1-5.9c0.9,0.4,2.3-0.3,2.3-1.4
	c0-1.5,1-0.7,1.2-1.8l0.2-0.9c0.1-0.3-1.9-0.8-2-1.2c-0.1-0.7,0.2-1.1,0.2-1.8c0-1.8-0.2-1.3,1.6-1.2c1.5,0.1,1.8,0.4,2.7,0.7
	c0.7,0.2,1.3,0.5,1.6-0.4c0.4-1,2.3-0.7,3.4-0.9c0.6-0.1,1.1-1.7,1.6-1.7l-0.3-2.5c0.3-0.5,1.3-1.8,2-1.4c0.9,0.5,1.1,1.2,2.2,1.4
	c0.2,0,0.3,1.5,0.4,1.8c0.2,0.4,1.5,0.9,2.2,0.9c1.1,0,3.3,0.9,4.2,0.4c0.3-0.2,0.6-0.6,0.8-0.8c0,0,0.1-0.2,0.1-0.3
	c0.1-0.2,0.4-0.2,0.5-0.4c0.2-0.2,0.4-0.6,0.7-0.7c0.2-0.1,1.1-0.4,1.1-0.7c-0.1-0.8-0.2-0.9-0.9-0.9c-0.2,0-0.5,0-0.7-0.1
	c-0.3-0.2-0.4-0.1-0.8-0.3c-0.3-0.1-0.5-0.6-0.5-0.8c0-0.5-0.1-0.9-0.1-1.5L598.1,414.6L598.1,414.6z"/>
<path id="MEX" class="st0" d="M596.3,474c-0.2,0.3-0.6,0.4-0.8,0.6c-0.1,0.1-0.1,0.5-0.5,0.5c-0.6,0-1.2,0-1.3,0.5
	c-0.1,0.6-0.2,1-0.2,1.7c0,0.4,1.2,0.7,1.4,0.8l-0.5,6h-0.6c-0.5,0-0.1,0.2-0.3,0.2h-0.2c-0.8,0,1.1,0.1,1.9,0.2c0.1,0,0.4,0,0.5,0
	l0.3,0.6c0.1,0.7-0.2,1.2-0.5,1.7c-0.3,0.1-0.1,0.6,0,0.8c0.1,0.1,0.3,0,0.3,0.2c0.1,0.2,0,0.4,0,0.6c0,0.3-0.2,0.1-0.5,0.2
	c-0.3,0-0.2,0.5-0.2,0.8c0,0.4-0.1,0.6-0.2,1c-0.1,0.3-0.2,0-0.2,0.3c0.1,0.4,0.3,0,0.5,0.2l0.6,0.5l-0.3,2.1l-2.1,2.2l-2.9,0.2
	l-2.4-2.2l-0.8-1.9H586l-0.2-3.8l1.1-0.4l-1.1-1l0.2-3l-3.7-2.1l0.2-1.6l-0.6-1.7l-2.7-0.8l1.1-2.4l-1.4-1.3l-0.8,2.8l0.1,1.5
	l-1.5-0.1l-0.3,1.9l1,0.2l-3.1,3.3c-0.6-0.2,0.4-0.1-0.6-0.2h-0.5c-0.1,0.1-0.1,0.9-0.2,1c-0.1,0.1-0.8,0-1,0
	c-0.3,0-0.2,1.2-0.2,1.6s0,0.6,0.3,0.8c0.4,0.3,1.1-0.2,1.3,0.2c0.1,0.2-0.2,0.7-0.2,1.1c0,0.3,0.7,0.6,1.1,0.8l-0.2,6.9
	c0,0.5,0,0.5,0.3,1c0.1,0.1,0.5,0.8,0.3,1s-0.2-0.2-0.3,0.2c-0.1,0.4-0.6,0.6-0.6,1v0.2c0,0.1-0.2-0.2-0.3-0.2H573l-1-0.5l-2.9,2.4
	v4.9c-1.1,0-2.4-1-3.3-1.6c-0.7-0.4-0.6-1.5-0.6-1.6c-1.2-0.6,0-0.5-1.9-1c-0.9-0.2-0.4,1.8-0.3,2.2c0.6,2.3-2.4,0.4-2.4,1.7v2.5
	c-1.3,0.2-5.8,0.1-6.2,1.4c-0.5,1.7-1.1,1.1-2.4,0.2c-1.6-1.2-1-0.6-1.6,0.3c-0.9,1.4,0.2,1.2-1.7,1.9c-2,0.7-0.3,2.1-1,3.2
	c-0.5,0.9-2.3,0.5-3.2,1.1c-0.7,0.5,0.6,2.2-1.3,1.3c-1.4-0.6-1.3-2.1-2.1-2.9c-1.1-1.1-1.3-0.5-2.2-2.1c-0.5-0.8,0.9-1.2,1.1-1.6
	c0.8-1.7-2.4-1.5-2.4-2.2c0-0.9-0.2-2.9,0.2-3.7c0.1-0.2,1.3-0.2,1.6-0.6c0.4-0.6-0.7-1-1.1-0.8c-1,0.4-2.3,1.3-2.2-0.5
	c0-0.4,1.3-0.3,0.8-0.6c-1.1-0.7-3.3,1.2-3.5-1.6c0-0.7,0-1.1,0.2-1.5l6.6-7.8c3.5-1.2,2-3.7,2-6.5c0-0.7,2.8-3.7,3.9-3.8
	c2.1-0.2,1.1-3.7,0.7-3.6c-1.8,0.4-0.7,0.2-1.3-1.3c-0.5-1.2-2.5-0.5-1.5-2.5c0.6-1.2,0.1-1.4,2-1.4s2-0.9,2-2.6s2.1-1.2,2.1-3.3
	c-0.3-1.1-2-1.2-2.2-2.3c0-0.2-0.2-1-0.2-1.6c1.9,0,1,0,1.9-1.2c0.3-0.4,0.4-0.3,0.7-0.5c0.6-0.6,0.3,0.5,1.2-0.2
	c0.8-0.6,0.2-0.6,1.4-0.7c0.5,0,0.4-1.1,0.4-1.6c0-1.4-1.6-0.8-0.7-1.8c0.1-0.1,0.4-1.5,0.5-1.8s-0.6-1.1,0-0.9
	c0.2,0.1,1.1,0.4,1.1,0c0-0.2-1-0.9,0.2-0.9c0.8,0,1.2,0.2,1.9,0.2c1.4,1,1.3,2.3,3.1,2.4c0.7,0,0.5,1,0.8,1.3
	c0.5,0.5,3.3-0.9,4.4-0.6c0,0,1.6,1.6,1.9,1.9c0.4,0.4,1.1,4,1.5,4.2c1.4,0.6,1.1,0,0.8,1.9c-0.1,0.9-1.9,1,0,2.1
	c0.7,0.2,2.7,2.9,2.7,4c0,1.7,0.4-0.3,0.6-0.6c0.2-0.2,1,0.3,1.3-0.2c0.3-0.7,0.7-1,1.3-1c1-0.1,1.9-0.2,2.9-0.2
	c0.6,0,1.1-3.6,1.5-4.2c0.9-1.3,0.1-0.3,0.2-1.3c0,0,2.4-1.2,1.9-0.4c-0.5,0.7,3.4-0.3,3.4,1.5c0,1.1-0.9,1.6-1.5,2.1
	c-0.3,0.3-1.2,0.1-1.3,0.4c-0.1,0.7,0.7,1.2,0.6,1.7c-0.3,2.6,2.9-1.2,3.2-1.3c0.5-0.1,0.2-0.6,1.7-0.6c3.9,0,2.4-0.2,4.8,0
	c0.1-0.3,1.5-0.4,1.9-0.2c0.3,0.1,0.4,1.3,0.6,1.9c0.1,0.3,0.1,0.7,0.2,1c0.1,0.4,0.4,0.4,0.6,0.6c0.2,0.2-0.4,1-0.4,1
	c-0.3,0.6-1.1,0.5-1.5,1c-0.3,0.4-0.6,0-1,0.4c-0.1,0.1-0.4,0.4-0.2,0.4c0.9,0.3,2.2-0.2,2.9,0.2C596.5,472.5,596.3,473.3,596.3,474
	L596.3,474z"/>
<path id="BCS" class="st0" d="M130.9,183.3L130.9,183.3c-0.3,0-0.5,0.1-0.8,0.1c-1.6,0.3-1,1.7-2.2,1.9c-0.7,0.1-2.8-1.3-3.7-1.5
	c0.6,0.8,2.3,3.7,3.2,4c0.2-0.3,0.3-0.4,0.3-0.7c0.6-0.2,0.8-1,1.5-1c2.9,0,0.3,3.6,0.3,5c0.9,0,0.8-0.1,1.5-0.3
	c0.2,0.6,0.5,1.4,0.7,2c0.3-0.1,0.3-0.1,0.5-0.3c0.3-0.8,0.4-0.6,0.5-1c1,0,1,0.5,1.3,1.3c0.2,0.6,1.3,0.3,1.9,0.3
	c0,0.8,0.2,1.5-0.8,1.5h-1.3c-0.7,0-0.8,0.3-1.3,0.3v0.3h-1.9c0-0.9-0.8-1.6-0.8-2.5c-0.5-0.1-1-1-1.5-1c-0.6-0.1-1.4,0-2,0
	c-0.1-0.7-0.5-1-0.5-1.5V189c-0.8-0.5-0.4-0.5-1-0.5c-0.1,0.2-0.7,0.4-0.8,1c-1.3,0.3-0.7,2.2-2.5,2.2c-1.3,0-1.7-0.3-2.7-0.5
	c-0.1-0.6-1.3-0.7-1.5-1.2c-0.5,0-1.7-0.6-1.9-1.2c-1.2-0.2-1.6-1.3-3.7-1.3s-3.6-0.7-5.4-0.7c-0.2-0.6-2.2-0.8-2.4-1.3
	c-0.7,0-1.7-0.2-2.5-0.2v0.5c0.3,0.1,0.8,0.3,0.8,0.8c0.2,0.1,0.3,0.2,0.3,0.5h0.7c2.8,1.2,4.2,2.2,4.2,5.4c2.1,0,5-0.4,5,1.8
	c0,7.2,7.9,3.9,7.9,11.9c0,3.8,0.8,4.5,4.7,4.5c2.9,0,1.1,2.1,2.9,2.4c0.7,0.1,2.5-2,2.5,0.2c0,2.6,2.5,1.2,2.5,3.9
	c0,2.2,4.7,0.3,5.7,0.3c1.8,0.8-0.6,4.4,1.7,4.4c0.3,1,1.7,0.6,1.9,2c0,0.4,1.8,2.4,2,2.5c0,0.6,0.3,0.6,0.3,1.2
	c0.8,0,1.1,0.4,1.9,0.3c0.6-0.1,0.5-0.9,1-1c0-0.6,0.5-1.2,0.5-1.8c0.6-0.1,1.8-0.5,2.4-0.5c0.1-0.3,0.3-0.4,0.7-0.5
	c0-0.6,0.3-0.5,0.8-0.5c0.2,0.9,0.3,2.5,0.3,3.4c1.5,0,2.7,0.2,4,0.2c0-0.7,0.2-1.3,0.2-2h0.7c0.1,0.3,1,0.8,1.5,0.8
	c0-0.6,0.6-2.1-0.3-2.4v-2.7c0.3-0.1,0.2,0,0.2-0.3c0.2-0.1,0.3-0.1,0.3-0.3h0.7c0,1.5-0.3,3.9,0.3,5c0.4,0.8,0.9,1.4,0.2,2.2
	c-0.3,0.4-1.3,2-1.5,2c0,3.9,1.1,1.5,2.5,1.5c2.6,0,0.7,2.4,2,3.5c2.7,2.2,3.6,2.4,5.2,5.4c0.3,0.5,1.6,1.4,2.2,1.9
	c0.7,0.6,0.3,4.5,2.9,3.2c6.6-3.3,6.9,4.6,8.8,7.4h-0.5v-0.2h-0.2c-0.4,0,0-0.3-0.3-0.5c-0.2-0.1-0.7,0-0.5,0.3
	c0.1,0.1,0.3,0.4,0.5,0.5s0.3-0.2,0.3,0.2v0.3c0,0.1,0.1,0.2,0.2,0.2h0.2v0.2c0,0.2,0.4,0.3,0.9,0.3c-0.1-0.3-0.3-0.4-0.3-0.7
	l-0.2-0.5v-0.2c0.4,0.5,0.8,0.9,1.4,0.9c0,4.1,2.4,5.7,3.9,8.6c1,1.9,0.3,4.8,0.3,7.1c0,2.3,0.6,5.6-1,7.1c-0.7,0.6-1.4,3.6-1.7,4.5
	c-0.8,2.2,0.7,3.1,0.7,4.9c0,2.5-1.8,2.6-0.7,5.7c0.8,2.2-0.6,3.3,1.3,5.2c3.5-4.6-0.1,0.8,4,0.8c0-1.6,0.8,0.6,0.8,1.3h-0.3
	l-0.2,0.2c0,2.5,2.5,1,2.5,4.2c1.1,0,0.3-1.2,0.2-1.7h0.7c0,0.7,0.3,1,0.3,1.7c0.8,0.3,1.1,2,2.7,2c0.1-0.5,0.4-0.5,0.5-0.8
	c0.6,0,1,0.2,1.5,0.2c0,1.4,0.8,4.4,2.4,4.4c0.9,3.4,9.8,7.1,9.8,7.4c2.9,1,9.3,9.4,11.9,9.4c0.1,0.6,0.8,1.9,1.3,2
	c0,4.4,7.7,7.4,7.7,7.9c1.4,0,4.9,0.5,4.9,2c1.2,0.4,2.9,6.5,2.9,7.4c1.2,0.4,1.7,1.7,1.7,3.2c-0.6,0.2,1.4,5.8,0.7,6.6
	c-0.9,1-0.6,3.5,0.3,3.7c0.1,0.5,0.4,0.9,0.5,1.3h0.3c0,8.9,10.2-1.4,11.8-1.9v-0.3c0.9,0,1.1-0.8,2-0.8c0.1-0.5,0.9-0.7,1.2-1.2
	c4.9-8.2,7.5-4.7,2.8-16.2c-0.6-1.4-3.9-1.6-4.6-5.2c-0.4-2.2-0.4-2.9-2.4-4.2c-1.4-1-2.6-2.5-2.7-3.5c-0.3-2.7-3.2-1.6-4.9-6.7
	c-2.4-2-4.3-1.5-4.9-5.7c-0.1-0.7-1.2-0.4-1.9-0.5c-3.2-0.5-2.6,0.4-2,0.8c1.3,0.9,1.9,3.3-0.2,3.5c-0.7,0.1-0.5,0.7-0.5,1.3
	c0,2.3,1.4,0.3,2.2,0.7c0.7,0.3-1.7,3.3-2.4,3c-2.4-1.1-1.4-3-2-4.9c-6.2-3.6-8.2-12.9-9.1-12.9c-3.2,0,3.7-6.7,1.6-10.4
	c-1.8-3.2-3.1-5.4-5.5-8.5c-4-5.2,0-12.4-6-15.4c-2.4-1.2-3.6-9.4-4.9-11.5c-2.5-4,4.6-8,1.1-7.1c-2.2,0.5-3-12.8-5.5-14.8
	c-0.9-0.7-2.5-5-3.3-6.3c-0.9-1.5-5.1-5-5.2-5.2c-1.1-0.5-2.2-1.6-2.2,0c0,2.4,0.2,1.7,1.6,2.7c2.3,1.6-2.7,5.3,2.2,5.8
	c3.2,0.3,3.3,3.8,0,3.6c-1.7-0.1-2.6-2.6-3.6-3.8c-1-1.3-2.7-0.8-2.7-3c0-0.8-0.2-2.2,0.3-2.7c0.9-1,0.6-2.7,0-3.6
	c-1.3-1.8-1.6-1.1-1.6-3.8c-0.5-2.1-3.4-3.9-4.9-6c-1-1.5-2.4-11.4-3.8-11.5c-9.4-1-8.6-10.3-10.2-16.7L130.9,183.3z M254,322.4
	c-0.4,0-4-0.5-3.6-1.4c1.1-2.1-1-2.6-2.2-3.6c-0.5-0.4,0-4,0-4.8c0-0.4-0.1-0.8,0.3-0.9c1.9-0.2,2,1.6,2.6,2.9
	c0.3,0.6,0.8,0.6,1.2,1.9c0.4,1.4,0.3,2.5,1.5,2.7c0.4,0.1,0.3,0.5,0.3,1C254.2,321.5,254,321.1,254,322.4L254,322.4z M238,312
	c0.1-0.6,0.2-0.6,0.2-1s0.5-0.5,0.9-0.7c0.3-0.2,0.2-0.9,0.2-1.4c0-0.6,0.2-0.6,0.3-1.2c0.1-0.2-0.3-0.5-0.2-0.9
	c0.1-0.3,1.3-0.4,0.7-0.2c-1.1,0.4-1-0.6-1.4-0.7c-0.6-0.2-0.6,0.2-0.7-0.5c-0.1-0.5-1.2-1.2-1.9-1.2c-1.1,0-0.7,0.7-0.7,1.7
	c0,0.3,0,0.3,0.2,0.5c0.2,0.3,0.2,1.1,0.2,1.7c0,0.7-0.3,0.6-0.3,1.4c0,0.2,0.1,0.5,0.2,0.5c0.4,0.2,0.6,0,0.7,0.3
	C236.5,311.5,237.3,311.7,238,312L238,312z M226.8,289.9c0.4,0.7,0.8,0.7,1.4,1l0.6,1.9c0.3,0.8,2,1.4,0.5,2.2
	c-0.4,0.2-0.8,1.3-0.8,1.8c0,0.3,0.1,2.1,0.3,2.1c1-0.1,1.2-1.4,1.3-2.2c0-0.4,1.2-0.9,1.6-1c1.3-0.5,0.9-1.8,0.9-3.2
	c0-0.6-0.6-0.8-0.6-1.7c-0.1-1.1,0.4-1.6-1-1.8c-1.6-0.2-1.9-0.7-3-1.9C226.5,285.4,225.2,287.4,226.8,289.9L226.8,289.9z
	 M228.2,283.7c-0.1,0-0.9,0.4-1.2,0.3c0,0-0.9-0.9-1-1c-0.4-0.4,0.2-1.2,0.1-1.4c-0.1-0.3-0.6,0.1-0.9-0.4c0-0.1-0.2-0.2-0.1-0.5
	c0.1-0.3,2.1-0.9,2.6-0.9c0.4,0,0.1,1.3,0.3,1.4c0.4,0.3,0.8-0.1,1,0.5c0.1,0.3-0.2,0.8-0.4,1c-0.1,0.1-0.2,0.1-0.1,0.1
	C228.7,283.1,228.4,283.2,228.2,283.7L228.2,283.7z M225.3,267c-0.2,0.5-0.5,1.2-0.9,1.3c-0.3,0.1-0.9,0.5-0.9,0.6
	c0,0.3,0,0.4,0.1,0.6c0.2,0.4-0.4,0.2,0.1,0.4c0.6,0.2,1.2-0.4,1.2,0.4c0,0.6-0.1,0.6,0.4,1c0.2,0.2,0.1,0.4,0.3,0.5
	c0.4,0.2,1-0.2,1-0.5c0-0.4-0.4-1.1-0.1-1.6c0.1-0.1,0.3-0.9,0.1-1.2c-0.2-0.4-0.5-0.6-0.6-0.9C225.6,267.2,225.6,267.5,225.3,267
	L225.3,267z M219.3,266.6c-0.5-0.3-0.6-0.6-1.2-0.6c-0.6,0-0.9-0.1-1.2,0.3c-0.2,0.3-0.4,0.9-0.4,1.2c0,0.3-0.1,1.3,0.3,1.3
	c0.5,0,0.6,0,1,0.1c0.6,0.1-0.1,0.9,0.9,1c0.6,0.1,0.9,0.1,0.9-0.5c0-0.5,0.3-1,0.3-1.7c0-0.5-0.3-0.1-0.5-0.4
	C219.3,266.9,219.3,267.1,219.3,266.6L219.3,266.6z M214.7,264c-0.4-1.7,0.7-1,2.1-1.3c0.8-0.2,0.2-2,0.5-2.7
	c0.2-0.4,0.5-0.2,0.6-0.5c0.6-0.9,1-2.3,0.3-3.4c-0.3-0.5,0.2-0.6-0.6-0.6c-1.9-0.1-1.7-0.5-1.8,1.4c-0.1,0.9-1.1,1.5-1.2,2.3
	c-0.1,0.9-0.2,1.4-0.3,2.1c0,0.1-0.3,0.5-0.4,0.6C213.6,262.5,213.4,265.7,214.7,264L214.7,264z M200.9,310.8c0-0.4-0.1-0.9-0.5-1
	s-0.6-0.2-1-0.2h-1.6c-0.7,0-0.4,0.4-0.2,0.7c0.2,0.4-0.1,0.2,0.3,0.3c0.1,0,0.9,0.4,0.9,0.4c0,0.5,1,0.5,1.5,0.5
	C201.2,311.5,201.1,311.6,200.9,310.8z M194.5,305c0-0.5,0.2-1.2-0.3-1.5c-0.1-0.1-0.1,0-0.2-0.1c-0.4-0.2-0.3,0.8-0.3,1
	c0,0,0,0-0.1,0.1s0,0.1-0.1,0.1c-0.3,0,0.1,0.2-0.2,0.2h-0.1c-0.3,0,0,1,0.4,1c0.3,0,0.4,0.2,0.5-0.1
	C194.4,305.5,194.3,305.3,194.5,305L194.5,305L194.5,305z M184.1,284.2c0,3.2-3.8,14.4,1.2,14.8c0.8,0.1-0.2,0.2-0.2,1.3
	c0,4,4.5,1.9,5.1,3.9c0.6,2.2,6.2,2.4,6.2,7.4c-0.6,0-2.5-0.5-2.3-1.1c0.3-0.8-0.2-0.9-0.9-1.2c-1-0.3-1-1.8-1.7-2.4
	c-0.5-0.4-2-1-2.6-1.3c-1.1-0.4-1.8-0.4-2.8-1.2c-0.4-0.3-2.6-2-2.8-2.6c-0.2-0.1-0.8-0.2-1-0.4c-0.3-0.3,0.7-0.5,0.6-1
	c0-0.3-0.4-0.4-0.5-0.7c-0.1-0.6-0.3-1.1-0.5-1.7c-0.2-0.8-0.8-1-0.8-1.7c0-0.6,0.2-0.8-0.5-0.6c-0.2,0.1-0.4,0.1-0.6,0.1
	c-0.4-0.1-0.4-0.3-1.1-0.5c-1.1-0.6-0.1-1.2,0.5-1.8c1.2-1.3,1.2-4,2-5.8C181.9,286.8,182.7,284.4,184.1,284.2L184.1,284.2
	L184.1,284.2z"/>
<path id="BCN" class="st0" d="M169.2,160c-0.3,0.1-0.7,0.3-1,0.2c-0.1,0-0.1-0.1-0.2-0.2c-0.1-0.1,0.1-0.3,0-0.4
	c-0.1-0.1-0.3,0.1-0.4,0c-0.1-0.1-0.2-0.1-0.2-0.2v-0.2l-0.2-0.2H167v-0.2c0-0.2-0.3,0.1-0.4-0.4c0-0.3-0.1-0.8,0.2-1
	c0.2-0.2,0.4-0.4,0.8,0c0.1,0.1,0.4,0.5,0.4,0.6s0,1,0,1h0.6c0.1,0,0.3-0.1,0.4,0C169.1,159.1,169,160.2,169.2,160L169.2,160z
	 M181.5,166l-0.2,1H179c-0.6,0-0.7-0.2-0.8,0.2c-0.1,0.2-0.2,0.4-0.4,0c-0.2-0.3,0-0.2-0.2-0.4c0,0-0.2-0.5-0.2-0.6
	c0-0.6,0.7-0.2,1-0.8c0.2-0.5-0.1-1.3,0.2-1.8c0,0,0.9-0.6,1-0.6c0.2,0,0.6,0,0.8,0c0.1,0,0.3-0.1,0.4,0c0.1,0.1,0.4,0.3,0.6,0.4
	c0.5,0.3-0.1-0.2,0.8,0.2c0.1,0.1,0.2,0.9,0.2,1c0,0.5-0.3,0-0.6,0.2C181.5,165,181.5,165.6,181.5,166L181.5,166z M175.1,168.8
	l-0.6,1.4c-2,0-1.9,0-2.9-1.8c-0.4-0.6-0.3-0.9-0.4-1.6c0-0.1-0.9-0.8-1-0.8c-0.5-0.2-1.1-0.6-1.2-1.4c0-0.3-0.6-1.5-0.4-1.8
	c0.4-0.4,2,0.5,2.7,0.6c1.3,0.1,0.1,1,1,1.4c0.3,0.1,0.7,0,1,0.2c0.2,0.1,0,0.4,0.2,0.6c0.5,0.5,0.9,0,1,1c0.1,0.7,0.3,0.6,1,0.8
	c0.1,0-0.2,0.1-0.2,0.2C175.2,168.1,175.4,168.3,175.1,168.8L175.1,168.8z M164.5,152.2l0.2,1.4c-0.9-0.1-2-0.2-2.9-0.4
	s-0.6-1.5-0.8-2.1c-0.1-0.3-0.5-1-0.6-1.2s-0.3-1.1-0.4-1.4c-0.4-1.3-0.8-0.7-1.8-1.8c-0.3-0.4-0.6-1.4-1-2
	c-0.6-0.6-1.1-1.1-1.6-1.8c-1-1.3-1.4-2.7-2.7-4.1c-0.6-0.6-0.1-3,0-3.7c0.2-1.4,0.5-1.3,2-1c0.1,0,1.3-0.1,1.4,0l0.2,0.6
	c0.4,1.3,1.5,2.4,1.8,3.3c0.2,0.8,1.1,0.7,1.2,2c0.1,0.8,0,1.7,0,2.5c0.7,0.1,1.9,0.7,2.3,0.2c0.1-0.1,0.6-0.8,0.8-0.8
	c0.3,0,0.1-0.4,0.4,0.2c0.5,1.1,0.1,2.2,0.2,3.9c0.1,1.2,0.5,0.6,0,1.8C162.6,149.2,163.4,152.2,164.5,152.2L164.5,152.2z M15.3,145
	c0.2-0.8,0.7-1.3,1-2.1c0.1-0.4,0.1-0.6,0.2-1.1c0.3-0.7,0.9-0.3,1-1.1c0.1-1,0.1-2.1,0.1-3.2c0-1.1-2.1-1.3-1.8-1.7
	c0.6-0.9-0.5-3.6-2-2.7c-0.5,0.3-0.4,1.1-0.7,1.6c-0.5,0.9-1.3,1.1-1.6,2.2c-0.3,0.8,0.2,1.9,1.1,1.6c0.9-0.3,0.6,3.8,0.9,4
	c0.7,0.7,0.2,0.3,0.6,1.2C14.2,144,14.8,145,15.3,145z M103.3,181.2c-1,0-2.1,0.5-2.1-0.4v-0.1c0-0.1-0.5-0.2-0.5-0.4
	c0-0.1-0.4-0.9-0.6-1.1c-0.3-0.3-0.5-0.2-0.9-0.2c-0.4-0.1,0.3-0.2-0.2-0.5c-0.3-0.2-1.1-0.1-1.5-0.1c-0.5,0-2-0.4-1.1-0.7
	c0.7-0.3,2.7-0.6,3.2-1.5c0.6-1,0.9-3,0.9-4.3c0-0.4-0.2-2.3,0.1-2.6c0.8-0.8,1.5-2.3,2.7,0c0.6,1,0,1.6,1.2,2.4
	c0.8,0.6,0.4,4,0,4.8C103.8,177.9,103.6,178.9,103.3,181.2z M92,171.8l0.6-0.2c-0.1,0.1-0.5,1.1-0.9,0.9c-0.1,0-0.1-0.2-0.1-0.4
	c0-0.5-0.4-0.2-0.9-0.2l-0.6-0.1l-0.7-0.5c-0.4-0.3-0.5,0.1-0.5-0.5c0-0.7,0.6-0.8,1.2-0.7c0.2,0,0.3,0.3,0.5,0.4
	c0.5,0.2,0.8-0.4,1.1,0.1C92,170.7,91.9,171.5,92,171.8z M62.4,25.4h67v3.1c0,0.6,0.6,1.8,0,1.8H129c-0.8,0-0.8,0.2-0.9,0.9
	c0,0.6,0,1.2,0,1.7c-0.6,0.1-1.3,0-2.2,0c-0.2,0-4.4,3.2-5.2,3.7c-0.6,0.4-0.8,0.9-1.2,1.7c-0.4,0.7-0.6,1.4-1,2
	c-1.3,2.1,2.4,2.4,2.2,4.2c-0.2,1.3-1,1.2-0.5,2.9c0.3,0.9,0.1,3.8,0.3,5.8c-0.7-0.6-1.4-1.2-2.4-1.8c-1-0.7,0-0.7,0,1.4
	c0,1,1.2,1.4,1.6,1.9c0.5,0.6-0.4,2.9,0.5,3.6c1.2,0.8,3.6-1.2,3.6,1.1c0,0.9-0.5,4.6-0.5,2.2c0-1.3,2.3,0.3,3,0.5l-0.1-0.2
	c-0.9,0.4-1.5,0.3-0.7-0.9c0.2-0.3,0.3-0.6,0.3-0.9c-0.1-0.4-0.3-0.7-0.5-1.1c-1.1-1-3.3-0.9-1.7,2c0.4,0.8,1.6,1.1,2.8,1.2l0,0
	c-1.3,3.9-5.2,4.1-5.2,11.2c0,3.1-1.3,9.9,1.1,12.3c0.7,0.7,2.2-3.2,2.2-0.5c0,12,0.5,14.6,0.5,25.5c0,1.8,3.2,1.5,2.5,1.9
	c-5.3,3.3,0.5,3.7,0.5,6.3c0,4.4,2.6-1.8,2.7-0.5c0.2,2.2-0.8,3-0.5,5.2c0.2,2.1,3.5,0.2,4.9,1.6s2.9,2.7,4.7,3.8
	c2.5,1.6,8.3,11.1,11.5,14c0,7.1,3.8,4.2,3.8,5.8c0,2.9-4.4,2.7-1.9,5.2c3.9,3.9-1.2-2.3,3,0c2.2,1.2,3,7.4,3,5.5
	c0-2.4,3.3-0.2,3.3,5.2c0,6.9,7.4,7,7.4,9.6c0,2.8,0.5,6.6,1.9,8.8c0.6,1,1,2.1,1.3,3.4l-42.3-3.1c0.6-0.1,1.1-0.1,1.7-0.1v-2.7
	l0.2-0.2h0.3c0.1-0.4,0.6-0.5,1-0.5c0.3-1.1,0.5-1.7,0.5-3c-0.9,0-1.2,0.2-1.7,0.3c0,0.3,0,0.2-0.2,0.5c-0.4-0.3-0.5-0.9-0.8-1v-1.5
	h0.3c0.1-0.4,0.7-0.6,0.8-1c0.6,0,0.7-0.5,1.2-0.7c0-0.7-0.2-2,0.8-2c0.3-0.8,0.8,0.1,1.2-1.7c0-2-1.9-3.2-1.9-5c0-3.4-1.8-2-3.4-3
	c-1.3-0.8-0.3-2.2-1.2-3c-1.2-1.2-3.2,0-3.2-3.7c0-2.9-4.9-1.2-4.9-4.5c0-4.9-6.9-6.6-6.9-11.8c-1,0-1.2-1.7-2.5-1.7
	s-2.1-0.3-3.4-0.5c-1.8,0-1.9-1.4-2.7-1.7c0-0.3,0.1-0.6-0.2-0.7c0-0.8-2.5-2.1-3-2.2c-0.1-0.3-2.2-1.7-2.7-1.9
	c0-0.7,0.1-0.3-0.3-0.5v-0.7c-0.2-0.1-0.3-0.1-0.3-0.3c-1.9,0-1.1-3.2-2.7-3.2c-0.4-1.3-1.9-1.3-2.7-0.3c-3.5-0.7-0.3-4.2-0.3-5.2
	c-1.8-0.4,0-2.8-1.2-3.4c-1.1-0.5-2.3-0.3-3.5-0.3c-0.1-0.3-0.1-0.4-0.3-0.5v-2h0.7c0.4-1.3,1.5-3.2,1.7-5c0.3-2.3-1.4-2.3-1.2-4.4
	c0.2-2.1,0.3-1.6-1.2-2.9c-1,0-0.5-0.1-0.5-1c0-1.1-0.6-0.6-0.8-1.7c0,0.8,0.6,2.5-0.7,2.5c-1,0,0.2-1.9-1-2.7c-0.8-0.5-1-1-1-1.9
	c0-1.4,0.3-1.1,1.3-1.9c2.4-1.7-0.7-1.3-0.8-2.4c-0.1-1.3-0.1-1.4,0.8-2c1.1-0.7,0.3-2.7-0.3-3.4c-0.9-0.9-2-1.1-2.9-2.4
	c-0.5-0.8-0.3-1.9-1.2-2.7c-0.7-0.6-3.2-0.1-3.2-1c0-0.6,0.3-0.1,0.5-0.3c0.2-0.2,0.3-2.2,0.3-2.9c0-0.1,0.2-0.3,0.2-0.5
	c0-0.4,0-0.9,0-1.3C79.4,75,79,74.5,79,73.4c0-2.1-2.5-2.4-2.5-4.2c0-1.1-0.1-2.3-1.2-2.9c0-1.1-2.6-2.1-2.9-2.9
	c-0.9,0-1.5-1.1-2.2-1.3c0-2.7,2-2.6,2-3.4c-0.6-0.1-0.8-0.3-1.5-0.3c0-0.6,0.5-1.6,0-2.2c-0.8-0.9-2.1-0.9-2.4-2.4
	c-0.8-0.2-1.5-1.1-1.9-1.2v-1c0.6-0.5,1.8,0.1,2.4,0.5v0.3c0.3,0.1,0,0.1,0.3,0.2v0.3H71l0.2,0.2c0.1,0.3,0,0.3,0.3,0.3
	c0.1,0.2,0.1,0.3,0.2,0.5h1c0.2-0.6,0.7-0.7,0.7-1.7c0-0.5,0.1-1.1-0.2-1.5C72,51,71,50.3,70,49.9v-3.2h-0.5
	c-0.2,0.3-0.2,0.2-0.2,0.5l-0.2,0.2h-1.7c0-1.2,0.2-2.2,0.2-3.4c-0.4-0.2-0.7-0.7-0.7-1.2c-1.8-0.4-1.7-2.1-1.7-3.5
	c0-1.1-0.3-2.3-0.3-3.2l-0.3-0.2c-0.5,0-0.8,0-1.3-0.2c-0.3,0.2-0.2,0.2-0.5,0.2c-0.3,0.3-0.4,0.4-0.8,0.5c-0.4-0.6-0.2-1.3,0.2-1.8
	c0.4-0.6,0.5-1.3,0.5-2l0.3-0.2v-0.5c-0.4-0.3-1.1-0.6-1.3-1l-0.2-0.2c-0.3,0-0.2,0-0.5-0.2v-3.7l0.3-0.3h0.5l0.2-0.3
	c0.3-0.1,0-0.1,0.3-0.2C62.3,25.8,62.3,25.6,62.4,25.4z"/>
<path id="SON" class="st0" d="M189.2,165.2c0,0.8,0.3,1.6-0.8,1.4c-1-0.2-0.9-1-1-1.8c0-0.2-0.9-1.1-1.2-1.4
	c-0.9-0.8-0.2-1.3-2.1-1.6c-0.3,0-0.5,0-0.8,0c-1,0-0.2-1.5-1-1.6s-0.8,0.4-1-0.6c-0.2-1.1-0.7-0.5,0.6-1.4c0.8-0.5,2.1-0.1,2.1-1.4
	c-0.7-1.3-0.4-0.8-0.8-2.1c-0.3-1.2,0.2-0.9,0.6-1.6c0.3-0.5-0.7-2.7-0.2-3.5c0.6-1,5.7-1.9,5.7,0.6c0,1.1,0,2.1,0.2,3.1
	c0.1,0.4,0.8,1.2,1,1.4c0.4,0.4-0.1,1.5,0,2.3c0.1,0.7,0.2,1.4-0.4,2c-1.1,1.1,0.3,1.7,0,2.5s-0.8-0.1-0.8,1
	C189.4,163.3,189.2,163.9,189.2,165.2L189.2,165.2z M128,33l102.4,48.1l62.6,3.5l0.7,22.6c1.9,0,3.9-0.7,4.5,1
	c0.3,0.8-0.1,2.3,0,3.1c0.1,0.6,0.8,0.4,0.8,1.3c0,2.6,0.5,5.4,0.5,8.1c0,1-2.6,14.7-0.5,14.7c0.3,1-0.9,8.4-1.8,8.9
	c-0.8,0.5-0.4,1.9-0.8,2.6c-0.3,0.6-1.8,1-1.8,1.8c-0.1,1.3,1.5,3.4-0.8,3.4c-1.8,0,0,9,0,10c0,5.9,3.7,1.4,3.7,6.8
	c2.4,3.2,2.6,3.9,2.6,7.6c0,2,0.3,3.2,0.3,5.2c0,2.1-0.6,2.3-2.6,2.1c-1.5-0.2-4.4-0.7-5,1c-1,3-8.4-2.5-10.5,1
	c2,3.5,2.2,10.2,5.5,12.1c1.4,0.8,0.2,2.9,1,3.4c2.8,1.6,3.7,0.3,3.7,4.7c0,2.1,3.7,7.7,1.8,10c-0.4,0.5-1.6,5.2-0.8,6
	c2.1,2.1,0.4-0.2,1.6,3.4l2.2,1.4l-5,11.7l-7.2,3.9v2.2l-7.2,2.8l-3.5-0.9c-0.3-1.4-3.1-7-4.4-7.9c-0.5-0.4-1.5-2.4-1.9-1.9
	c-2.5,2.5,2.8,1.4-1.9-1.4c-1.8-1.1-1.8,2.4-2.7,2.5c-0.8,0.1-2.8-0.9-3.5-1.3c-4.9-3,1.8-4.7-2.5-6.9c-3.1-1.6-3.1-8-5.5-7.7
	c-2,0.3-2.6,0.7-5.5-1.4c-1.2-0.9-4.6-3.5-5.8-4.6c-2.4-2.1-1-5.8-2.7-9.2c-3.4-6.7,3.1-2.8-1.6-5.8c-1.5-1,0.7-3.8,1.6-4.1
	c2.2-0.8-0.9-0.1-4.1-2.7c-0.5,0.5-10.2-8.9-4.1-0.3c5.7-1.5-8.1,0.9-14-10.7c-0.6-1.1-2.5-2.4-3-3.6c-2.1-4.7-8.5-2-8.5-8.5
	c0-3.7-5.3-3.1-4.1-4.9c2.8-4.4,0-3-1.4-3c-1.6,0-5.4-7.5-6-9.1c-1.3-3.3,2.3-9.1-2.2-9.1c-1.2,0-4.1,0.6-4.1-0.3
	c0-6.2,1-2.3,1.1-2.2c0-6.8-2.7-8.7-5.8-14.8c-2.6-5.3-6-15.2-5.8-19.2c0.3-4-5.2-8-5.2-11c0-6.5,2.7-10.4,2.7-15.9
	c0-6.2-16.7-1.1-16.7-8.2c0-6.3-2.9-4.7-6.3-8.2c-4.9-5.2-0.8,10.7-8.8,3.3c0-3.1-2.6-0.8-4.1-1.9c-1.4-1-4.5-3.7-5.8-5.5
	s-2.1,0.8-2.7,0.8c-0.6,0.1-1.5,0.1-2.4,0.1v-0.3c1.9-1,5.1-3.9,1.9-3.9c-0.9,0-0.2,1-0.5,1.4c-1.7,1.7-3.7-2.5-4.1-3
	c-1.1-1.2-2-2.1-3.1-3.1c-0.2-2,0-4.9-0.3-5.8c-0.5-1.7,0.3-1.6,0.5-2.9c0.2-1.8-3.5-2.1-2.2-4.2c0.4-0.6,0.6-1.3,1-2
	c0.4-0.8,0.6-1.3,1.2-1.7c0.8-0.5,5-3.7,5.2-3.7C126.6,32.9,127.4,33,128,33L128,33z"/>
<path id="CHI" class="st0" d="M293.1,84.5l0.7,22.6c1.9,0,3.9-0.7,4.5,1c0.3,0.8-0.1,2.3,0,3.1c0.1,0.6,0.8,0.4,0.8,1.3
	c0,2.6,0.5,5.4,0.5,8.1c0,1-2.6,14.7-0.5,14.7c0.3,1-0.9,8.4-1.8,8.9c-0.8,0.5-0.4,1.9-0.8,2.6c-0.3,0.6-1.8,1-1.8,1.8
	c-0.1,1.3,1.5,3.4-0.8,3.4c-1.8,0,0,9,0,10c0,5.9,3.7,1.4,3.7,6.8c2.4,3.2,2.6,3.9,2.6,7.6c0,2,0.3,3.2,0.3,5.2
	c0,2.1-0.6,2.3-2.6,2.1c-1.5-0.2-4.4-0.7-5,1c-1,3-8.4-2.5-10.5,1c2,3.5,2.2,10.2,5.5,12.1c1.4,0.8,0.2,2.9,1,3.4
	c2.8,1.6,3.7,0.3,3.7,4.7c0,2.1,3.7,7.7,1.8,10c-0.4,0.5-1.6,5.2-0.8,6c2.1,2.1,0.4-0.2,1.6,3.4l2.1,1.4l1.1-0.4h8.2
	c-0.1,1-0.2,2.1-0.5,2.8c-0.5,1.2,2.3,2.2,3.1,2.4c0.4,0.1,0.9,0.3,1.2,0.5c1.4,0.9-0.6,0.4,1,0.9c0.8,0.2,0.7,1.1,0.7,2.1
	c0,0.6-0.3,1.6-0.2,1.7c0.5,0.5-0.4,0.5-0.7,0.7c-0.2,0.1-0.1,1.1-0.3,1.2c-0.4,0.3-1.1-0.1-0.9,0.9c0.2,0.7,1.9,0.1,2.4,0.5
	l0.5,9.5l4.8,6.7h6.4c0.6,1.6,3.6-0.6,4,1c0.5,2.2,1.4,1.1,3.1,1.4c0.4,0.1,0.1,2.3,0.2,2.8c0,0.3,1,2.4,1.2,2.8
	c1.2,2.1,0.8,1.9,2.6,1.7c1.8-0.2,1,2.9,3.1,2.9l0.9,1v0.5c0,0.3,0.8,0.1,0.9,0.5c0,0.3,0,2.6,0,2.6c0.2,0.1,0.7-0.2,0.7,0v0.2
	c0,0.5,0.3-0.1,0.3,0.7c1.4,0.5,1.8,0.9,3.1,1c1.1,0.1,1.5,1.6,2.2,1.6c3.4,0-0.1,2.1,2.8,0.3c8.6-5.7,4.2-3.7,6-12.2
	c0.6-2.6,2.4-1.2,2.4-4.8c0-4.6,2.6-7.8,5.3-10.5c1.8-1.8-0.8-7.1,2.1-8.3c1.8-0.7,1.9-0.6,2.6-2.1c0.6-1.2,2.4-1.9,2.4-3.1
	c4.9-1.5,1.5,1.4,4.3,1.6c4,0.2,5.2,4.4,7.6,5.3c1.4,0.6,0.8-0.2,1.6-0.7c1.5-1.1,1.5,2,1.9,2.4c0.2,0.2,2.4,1.2,2.9,1.2
	c2.6,0.1,8.6,7.1,8.6,4.3c0-1.5-0.7-2.5,0.5-3.4c0.4-0.3,1.3,0.4,1.4,0.7c0.7,2,1.4,1.6,3.3,0.5c1.5-0.9,2.2-0.8,4-1.4
	c2.3,1,2.9,0.9,3.8,2.8c0.6,1.4,2.7,3,4.3,2.9c2.5-0.1,1.1-4.4,2.1-6c0.1-0.2,1.3-1,1.6-1.2c0.2-0.2,1.3-1.1,1.4-1.4l6.4-4.9
	l13.8,1.3l-5.9-40.9l16.7-33.4c-1.5-1-2.6-3.1-4-3.8c-1.2-0.6-1.5-0.7-2.9-0.8c-3.9-0.4-4.6-3.1-7.4-5.7c-7.7,0-7-4.3-13.5-6.5
	c-2.5-0.9-8-9.1-8.6-12.4c-0.8-4.3,0.5-8.1-2.1-11.8c-0.4-0.9-0.5-1.9-1.5-1.9h-0.2c-1.2,0-1.3-1.8-1.7-2.3
	c-0.3-0.3-0.3-0.3-0.4-0.6c-1-2.3,0-4.4-1.9-5.7c-1-0.7,0.1-1.2-2.1-1.9c-1.5-4.4-3.9-7.7-9-9.3c-7.3-2.2-7.1-7.8-13.3-10.3
	c-2.3-0.9-6.4-8.2-8.4-9.9c-2.5-2.1-4.1-4.7-6.1-6.7c-2.5-2.5-3.9-2.4-6.8-4.9l-47.7-1.8l-1.8,15.6L293.1,84.5L293.1,84.5z"/>
<path id="COA" class="st0" d="M439.1,240.4l9.9,4.5l1.6,5.2l2.3,4.8l-3,3.2c0,1.3,0.4,4.1-0.7,4.8c-0.8,0.5-0.8-0.1-0.7,1.1
	c0,0.4,0.2,0.2,0.2,0.9c0,0.3,0,0.7,0.2,0.9c0.3,0.4,0.7,0.5,1.1,1.1c0.4,2.6,0.9,6-0.2,8.2c-0.3,0.6-0.9,1.7-1.4,2.3
	c-0.6,0.7-1.5,0.1-1.8,1.1c0,0.6,0.2,0.6,0.5,1.1c0.3,0.6,0,3.1,0.5,3.2c0.8,0.1,0.9-0.3,1.1,0.7c0.1,0.3,0.6,0.5-0.2,0.7
	c-0.6,0.1-1.1,0.1-1.8,0.2c-0.7,0.1-0.5,1.5-0.5,2.3c-2.1,7.3,2.7,1.4,2.7,5.7c0,3.9,2.5,7.5,5.7,9.4c1.1,0.6,5.2,0.7,5.2,0.9
	c0.8,1.8,1.7,3.2,4.1,3.2l1.4-0.9c0.2-0.1,0.4-0.7,0.5-1.1l1.6-5l2.2-2.7l1.2-1.4l6.6,2.5l-0.2-3.6l6.8-0.5l10.5,3.2l3.9,5.2
	l1.6-0.9h2.7l0.2,4.3l5.9-1.1c0,1.6,1.3,2.1,2.3,1.1c0.6-0.6,1.7-0.5,3-0.5c3.4,0.1,0.4,1.2,1.4,3.2c0.2,0.3,1.6,1.1,1.8,1.1
	c1,0,1.8,3.8,4.3,2.3c0.9-0.6,4.9,1.2,5.9,1.4c-0.2-0.5-0.5-1.1-0.7-1.4c-0.1-0.1-0.2-0.1-0.2-0.2c-0.1-0.5,0-1.2,0-1.6
	c0-0.9,0.2-0.8,0.5-1.6c0-0.1,0-0.7,0-0.7c0.4-0.2,1.3,0,0.7-0.7l-0.2-0.2c-0.6-0.6,0.4-0.9-0.5-0.9l-2.1-2.3l2.1-5.2l-1.8,0.2
	l-0.2-4.3l5.9-5.7c1.3,0.6,1,0.8,1.6,1.8c0.5,0.9,1-0.1,2.1,0c1.4,0.1,1.5,0.2,2.3,1.1c0.7,0.9,3.4,0.4,4.1-0.5
	c0.7-0.9,2.9,0.4,3.4-1.1c-1.5-0.1-1.4-0.4-1.6-1.8c-0.2-1.7-1.9-0.7-3.2-0.7c-1.1,0-1-0.6-1.6-1.1c-0.4-0.3-1.9-0.5-2.7-0.5
	c-0.2-0.4-0.4-1-0.7-1.4c-0.3-0.3-0.6-0.6-0.7-0.9c-0.1-0.7-0.7-0.8-0.7-1.8v-1c0-0.5,0.2-1-0.2-1.1c-1.5-1.2-1.5-0.9-3.4-0.9
	c-2.3,0-0.1-2-0.2-2.7c-0.1-0.4-2.9,0.6-3.4-0.2c-0.3-0.5-0.6-2.7-1.1-3c-0.7-0.3-2.2,0-2.1-0.9c0.1-0.4,0.7-0.4,0.7-1.1
	c0-0.4-0.2-2,0-2.3c0.3-0.6,1.6-0.9,1.6-1.8c-0.8-0.2-1.6-0.3-2.5-0.2c-0.3,0-0.4,0.6-0.5,0c0-0.5,0-1.1,0-1.6c0-0.2-0.1-0.3,0-0.5
	c0.1-0.1,0.1-0.1,0.2-0.2c0.2-0.2,0.6-0.4,0.7-0.7c0.3-0.7-0.5-0.5-0.9-0.5l-8.4-10l13.2-12.5c0.4,0.7,1.1,1.5,0.9,2.3
	c-0.5,1.6,0.1,1.4,1.4,1.4c0.2,0,1.1-0.2,1.1-0.2c0.3-0.2-0.5-3.2,0.7-3.9c0.6-0.4,1-0.4,1.8-0.5c0.7-0.1,0.5-1,0.5-1.6V230
	l-5.2-2.5c-0.5,3.4,0,0.2,0,1.4c0,0.3-0.6,0.3-0.9,0.5c-0.4,0.2-1,0.9-1.4,1.4c-0.7,0.9-0.5,1.6-0.7,0.2c-0.1-0.5-0.5-0.3-0.5-0.5
	v-0.7h-0.2c-0.6,0-0.3-1.2,0.2-1.6c0.3-0.2,0.9-0.4,0.9-0.9c0.1-1.2,0-2.5,0-3.6c1.5-0.2,3.2-0.3,4.6-0.7c0.1,0,0.2-0.6,0.2-0.9
	c0.1-1.4,0.6-0.6,1.1-1.8c0.5-1.1,0.3-1.3,1.8-1.4c0.8-0.1,3.3-0.5,3.4-0.9c0.8-2.7,0.5-5.9,0.5-8.7l5.9-3.9l0.5,0.9
	c0.3,0.5,0.2-0.2,0.2,0.5v0.2h0.7c0.1,0,0.3,0.3,0.7,0.5c0.3,0.1,2.1,0.9,2.3,1.1c0.7,0.9,0.5,0.9,1.4,1.8c0.2,0.3,0.4,0.4,0.5,0.7
	l2.8-3.7c-1.2-1.4-2-3.3-2-6c0-1.2-10.4-12.8-11.6-16.8c-2-6.5-7.4-10.5-10.5-16.2c-1.3-2.4-0.6-6.7-2.7-8.2
	c-0.8-0.6-5.6-4.6-5.7-5.9c-0.6-0.8-2.7-1-4.1-1.8v-0.1c-0.1-0.7-2.5-0.1-2.9-0.2c-0.9-0.1-0.5-0.5-0.9-0.7
	c-0.6-0.3-4.7,0.6-4.9,0.3c-0.2-0.3,0.3-2.3,0.4-2.9c0-0.5,1.4-1.2,1-1.7c-0.5-0.5-0.9,0.1-0.9-1c0-0.6-0.4-2.1,0.3-2.1
	c0.7,0,2,3.4,2.2,4c0.9,0.6,1.9,0.2,2.8,0.8c0.1,0.1,0.2,0,0.2-0.1c-1.1-1.1-1.8-2.6-2.8-3.9c-2.7-3.3-6.2-5.4-11.2-4.2
	c-4,0.9-4.1-1.5-6.5-1.5c-3.1,0-6.2,0.2-9.9,0c-1.5-0.2-1.2-1.2-2.9-1.1c-0.8,0.1-0.9,0.5-1.3,0.6c-0.7,0.2-1.5,0.9-1.9,1.7
	c-0.3,0.5-5.6,2.1-6.3,2.3c-1.5,0.3-1.2,3-1.7,4c-0.6,1.3-2.1,0.6-2.9,1.5c-0.3,0.4-0.9,2.2-1.1,2.3c-1.7,1.5-0.5,7.5,0,9.7
	c0,0.3,0.1,0.4-0.2,0.4c-0.4,0-0.8,0-1.3,0c-1,0-1,0.1-1.9,0.4c-0.6,0.3-1.1,0.7-1.7,1.1c-1.4,0-1.5,3.2-2.1,4.2
	c-0.9,1.4-5.4,1-6.9,0.2c-0.1-0.1-0.3-0.1-0.4-0.2l-16.7,33.4L439.1,240.4L439.1,240.4z"/>
<path id="TAM" class="st0" d="M555.1,209.7l-3.8,3.8c0.9,0.3,2.2,0.4,2.2,1.4c0,1.4,2.2,1.4,3.1,1.4c0.9,0,0.7,0.7,0.4,1.2
	c-0.6,0.9-0.2,2.3-0.4,3.5c0,0.3-1,0.7-1,1c0.3,1.2,1.7,1,3,1c-0.1,0.5-0.7,2.5-0.4,3.1c0.2,0.3,0.6,0.5,0.8,0.8
	c0.4,0.7-0.1,1.3,1,1.4c1.1,0.1,0.1,0.9-0.4,1c-1.7,0.2-1.4,0.7-1.6,2.4c-0.1,0.5-0.1,0-0.4,0.2c-0.5,0.3-0.4,1.8-0.4,2.6l4.9,0.2
	l-1.8,6.5h4.1l2.8,4.3l-1.6,5.3l8.9,5.1v5.7l0.6,0.2h0.6l0.6,0.2c0.9,0.3,0.8,0.7,1.6,1c-1-5.1,1.5-2.7,2.8,0.2
	c0.1,0.1,2.7,0.8,2.8,0.4c0.2-1.6-0.2-1.2,2-1.2c0.8,0,0.8,0.5,1,0.2c0.3-0.6,0.5-1.2,1.4-1c0.7,0.2,1.9,0,2.6,0.4
	c1.5,0.9,1,0.8,3,0.8V279h4.7c-0.1,0.4-0.5,1.4,0,1.6c0.2,0,0.4,0.4,0.2,0.6c-0.1,0.1-0.5,0.1-0.6,0.2s-0.1,0.2-0.4,0.4
	c-0.1,0.1-0.4,0.1-0.4,0.4v0.6h-0.2c-0.1,0,0.1,0.3,0,0.4c0,0-0.1,0.5-0.2,0.6H596c-0.2-0.1-0.2-0.8-0.2-0.8c-0.1-0.1-1.3,0-1.6,0
	l-11.6,11h-2.8c0-0.6,0.1-1.5,0-2.2c-0.1-0.5-0.5-0.1-0.6,0.2c-0.1,0.3-0.1,0.5-0.2,1c-0.1,1.6-2.2,0.7-2.2,2.2
	c0,0.6,0.1,0.5-0.4,0.6c-0.6,0-0.5,0.6-0.6,1s-1.4,0.2-2,0.2c0,1.1-0.4,1.8,0.6,2c0.8,0.2-0.4-0.3,0.4-0.2c0.9,0.1,1.1,0.6,1.8,1
	c0.3,0.2,0.6-0.3,0.8,0.2s-0.5,0.4-0.6,0.6c-0.3,0.5,0.2,1.5,0,1.6c-1,0.3-2.4-0.5-2.4,0.8c0,1.6-3.4,1.6-3.5,0
	c-0.1-0.9,0-1.4-0.8-0.6c-0.3,0.3,0,1.4-0.4,1.6c0,0.1,0.1,1.8,0,1.8h-0.2c-1,0,0.3-0.3-0.4,0.8c0,0-1.4,0.4-1.4,0.2v-0.2
	c0-0.2-0.5-1.2-0.6-0.6c-0.1,0.7-0.2,0.2-0.6,0.8c0,0.1-0.2,0.4-0.2,0.4c-0.1,0.1-0.1,0.1-0.2,0.2c-0.1,0.3-0.4,0.6-0.4,0.8
	c-0.1,0.4-0.1,0.9-0.4,1H560l-0.2,5.3l2.8,2.4l0.6,12.4l4.1,3.9c-0.2,0.6-0.3,0.9-0.4,1.4c0,0.2-0.1,0.4-0.2,0.6
	c-0.2,0.6-1.1,0.8-1.8,1c-0.5,0.1-0.7-0.2-0.8,0.4c0,0.4,0.1,0.3-0.2,0.4h-9.1c-2,2.8-1.6,7.1-1.6,10.6c0,4-1.7,1.1-4.1,1.6
	c-2.7,0.5-0.1,5.9-3.2,6.6v1.7c0,0.4,0.6,0.5,1,0.5c1,0.3,0.8-0.1,0.8,1.2c0,1.2-0.1,1,1.1,1h1.8c0,1.5,0.1,1.6-1,2.2
	c-0.5,0.3-1,0.5-1.4,0.7c-1.4,0.6-1,0.1-1,2.1c0,0.9-0.2,2.7,0,3.4c0.2,0.5,1.6-1.2,1.6-1.2c0.4-0.4,0.8,1.8,0.5,2.2
	c-0.1,0.1-0.7,0.1-0.8,0.1c-0.9,0-0.3,1.4,0.1,1.6c0.2,0.1,0.7-0.3,1-0.4c1.3-0.4,3-0.3,4.7-0.3c1.4,0,1.1,0.2,1.4,1.4
	c0,0.6-0.1,1.2-0.1,1.8c0,0.9-0.4,1.5,0.7,1.5c1,0,1.5-0.4,2.1-0.7c1-0.5,0.4,0.1,1,0.3c1.3,0.5,1.4-1.2,2.3-1
	c1.7,0.5,2.6,1.7,4.2,1.9c0.9,0.1,0-2.4,0-2.9c0-1.6,1.7-1,2.1-0.1c0.6,1,1.6,2.6,2.7,3.2c0.5,0.3,3.1-0.4,3.2,0.1
	c0.1,0.6,0.1,0.9,0,1.5c0,0.2-0.1,0.4-0.1,0.7c0,0.9-0.2,0.8,0.8,0.8s0.4,0.4,0.3,0.8c-0.1,0.3-0.3,2.7-0.4,2.7
	c1.2,0.8,5.1-0.9,7.3-0.8c0.4,0,1.7,0.4,1.8,0.7c1,2.5-0.4,1.1,2.1,1.1c0.8,0,4.4,0.8,4.9-0.1c0.4-0.7,0.4-1.5,1.4-1.5
	c2.6,0,2.5,1.3,4,1.5c1.2-4.2,3.7,0,5.6-1.9c0.4-0.4,1.2,0,1.2-0.7c0.2-1.4,1.3-1.7,2.7-1.6c4.4,0.1,2.5,5.6,7.3,6
	c0.5,0,2.4,0.8,4.4,1.3l0,0h0.2h0.5c0.4,0,0.9,0.5,1.1-0.2c-0.8-2.6,1.1-2-1.8-3.6c-1.2-0.6-0.7-5.1-0.8-7s-0.3-3,0.4-4.9
	c0.6-1.5,3.5-11.7,1.9-13.3c0-0.7-0.2-2.4,0-3.1c0.1-0.4,0.5-2,0.1-2.3c-0.4-0.4-1.1,0-1.4-0.3c-0.4-0.5,0.7-0.9,0.7-1.5
	c0-3,0.5-5.7,0.5-8.7c0-0.7-0.4-2.6-0.9-2.8c-0.4-0.2-0.3-0.5-0.3-1.1c0.1-0.9-0.7-0.5-0.5-0.5c-1.3,0-1,0.1-1.1,0
	c-0.5-0.5,1.3-0.6,0.1-0.7c-1-0.1-1.8,0.4-1.5-1.1c0.1-0.5,0.1,0-0.1-0.3v-0.7c0.5-0.3,1.2,0.2,1.5,0.3c0.2,0,0.6-0.7,0.8-0.8
	c0.7-0.4,0.9,0,1.5,0.4c1.1,0.7,0.3-2.4,0.3-2.8c-0.6-0.2-0.5-0.1-0.3-0.7c0.3-0.6,0.3-0.5,0.3-1.1c0-0.9-1.9,0.5-1.9-0.8
	c0-0.4,0-0.9,0-1.4c0-0.4-0.3,0-0.4-0.1c-0.3-0.4,0.6-0.4,0.8-0.4c0.6-0.1,0.5-1.3,0.4-1.8c-0.2-0.6,0-0.9,0.5-1.1
	c0.3-0.1,0.7-0.2,0.7-0.5c0-1.3,0.1-1.3-0.7-2.3c-1-1.2-0.2-2-0.4-2.4c-0.7-1.1-0.1-5.1-2.3-3.4c-0.5,0.4-1.1,0-1.1-0.5
	c-0.1-1.2-1.6,0.6-0.9-0.9c0.3-0.6,0.3-2.7,0.7-2.7c2,0,1.8,2.2,2.3,3.9c0,0.1,0.3-0.5,0.3-0.5c0.6-0.9-0.7-1.3,0.5-2.6
	c3,0.3,0.6,2.9,0.9,4c0.3,1.2,0.4,1.4,0.6,2.6c0,0.3,0.2,0.3,0.2,0.8c0,1.5,0.8,0.9,0.8,2.1c0,2.3,0.6,5.8,0.9,1.5
	c0.2-2.3-1.3-3.8-1.3-6.4c0-0.8,0.7-0.4,0.9-1.3c0.7-2.5-0.5-4.7,0.8-6.6c0.1-0.2,0.8-2.7,0.8-3c0-1.2-0.6-1.7-1.7-0.9
	c-0.5,0.3-0.6,4-0.8,4.9c-0.1,0.9-1.3,0.3-1.3-1.1c0-2.5,1.3-1.6,1.3-3.6c0-0.5-1.1-1.2,0.4-1.5c0.7-0.1,1.3-0.7,1.3-1.5
	c-0.8,0-1,0.3-1.1-0.4c0-0.2-0.1-0.7-0.2-0.2c0,0.1,0,1.1,0,1.1c-0.3,0.3-0.6,0-0.8-0.4s-0.6-1.4-0.4-1.9c0.3-0.8,0.6-0.9,1.3-0.9
	c1.1-0.1,1-0.4,0.9-1.5c-0.1-0.7-0.4-0.3-0.9-0.4c-0.3,0-0.3-0.2-0.8-0.2c-0.4,0-0.6-0.1-0.8,0.2c-0.3,0.5-0.5,0.6-1.3,0.8
	c-1,0.1-0.5-0.2-0.4-0.4c0.2-0.3-0.3-0.6,0.2-0.8c0.3-0.1,0.6-0.3,0.9-0.4c0.3-0.1,0.3,0,0.4-0.4c0-0.1,0.1-0.5,0.2-0.6
	c0.3-0.5,0.7-0.8,0.9-1.3c0.1-0.3,0.2-0.5,0.4-0.8c0.8-1,1.2-0.9,0-0.9c-0.9,0-1.8,0-2.7,0c-0.4,0-0.1-0.8,0-0.9
	c0.2-0.3,0.8-0.2,1.1-0.2c1.4,0,1.3,0.3,1.3-0.8c0-1.4,0.1-0.4,1.1-0.9c0,0,0-0.5,0-0.6c0-0.4,0.1-0.5-0.2-0.6c-0.4,0-0.9,0-1.3,0
	c-0.5,0,0.1,1.1-0.4,0.6c-0.2-0.2-0.2-0.4-0.4-0.6c-2-3-0.6-0.1-0.6-1.1c0-0.3-0.5-0.2-0.8-0.2c-0.7,0-0.1,0.2-0.6,0.4
	c0.2-0.3,0.4-0.6,0.6-0.9c0.1-0.2-0.2-0.5,0-0.6c0.4-0.2,1.1,0.7,1.3,0c0.1-0.4-0.2-0.7-0.2-1.1c0-0.9,0.2-0.9,0.9-0.9
	c0.3,0,1.1-0.1,1.3,0c0.4,0.2,0.5,0.8,0.6,1.1c0.3,0.8,0.3,0.8,0.9,0.9c0.4,0.1,0,0.5,0,0.9c0,0,1,0.7,1.1,0.2
	c0.2-0.6-0.7-1.3,0.2-1.3c0.4,0,1.7,0.1,1.9,0c0.1-0.1,0-0.3,0-0.4c0-0.4,0.1-0.8,0-1.1c0-0.1-0.5,0.2-0.6-0.4
	c-0.1-1.3,1.7-0.4,2.1,0.2c0.2,0.3-0.8,1.4-0.9,1.5c-0.2,0.1-0.4,0.4-0.4,0.8c0,0.5,0.2,0.4,0.2,0.9c-0.1,1.2-0.3,4-0.9,4.5
	c-0.5,0.4-0.4,1-0.4,1.7c0,1.2-1.1,2.8-1.9,3.8c-0.6,0.8-0.4,4.8-0.4,6.2c0.9-0.9,1.1-1,0.4-1.9c-0.2-0.2,0.2-0.7,0.2-0.8
	c0.1-0.6-0.2-2,0-2.5c0.3-0.6,0.9-1.6,1.3-2.3c0.5-0.9,0.9-1.1,1.5-1.9c2.4-2.9,4.9-10.4,4.9-12.7c0-6.2,5.3-8.6,5.3-14.2
	c0-2,0-3.8-0.1-5.3c-2.1,0.3-4.5,1.2-5,2.1c-0.6,1-2.4-0.1-2.9,0.6c-2,2.5-4.1,1.2-5.7-1.1c-1.9-2.7-7.3-2-10.9-2.1
	c-1.9,0-4.3,0.5-5.7,0.6c-3.9,0.2-3.4-0.9-6.1-3.4c-0.8-0.7-3.6,0.1-4-0.8c-1-2.4-0.4-1.1-2.3-2.1c-2.4-1.3-3.9-3.2-7.2-2.9
	c-2.3-0.3-6-1.6-8.9-3.4c-0.1,0.1-0.3,0.1-0.8,0.1c-1.6,0-2.1-2-3.6-2.6c-0.7-0.3-0.6-1.3-0.7-2c-0.3-1.8-2.2,0.4-2.2-1.6
	c0.3,0,1.2-0.7,1.2-1.1c0-1.3-0.7-1-0.7-2.3c0-0.5-0.8-1.2-1.3-1.2c-0.9,0,0,1-1.2,0.8c-1.2-0.3,0.1-1.3,0.1-1.9
	c0.1-1.1-0.5-0.3-0.8-1.4c-0.2-0.7,0.2-1.2-0.3-1.8c-0.5-0.8-0.8-1.6-0.8-2.7c-1.1-4.4-2.5-10.5-2.9-15.7
	C560.9,213,557.8,211.6,555.1,209.7L555.1,209.7z"/>
<path id="NLE" class="st0" d="M555.1,209.7c-1.5-0.9-2.7-2.3-2.9-2.5l-2.8,3.7c-0.1-0.2-0.2-0.4-0.5-0.7c-0.8-0.9-0.7-1-1.4-1.8
	c-0.2-0.2-2-1-2.3-1.1c-0.4-0.2-0.6-0.5-0.7-0.5h-0.7v-0.2c0-0.6,0,0.1-0.2-0.5l-0.5-0.9l-5.9,3.9c0,2.8,0.4,6-0.5,8.7
	c-0.1,0.4-2.7,0.9-3.4,0.9c-1.5,0.1-1.3,0.3-1.8,1.4c-0.6,1.2-1.1,0.5-1.1,1.8c0,0.3-0.1,0.9-0.2,0.9c-1.4,0.4-3.1,0.5-4.6,0.7
	c0,1.2,0.1,2.5,0,3.6c-0.1,0.5-0.6,0.7-0.9,0.9c-0.5,0.4-0.8,1.6-0.2,1.6h0.2v0.7c0,0.1,0.4-0.1,0.5,0.5c0.2,1.4,0,0.7,0.7-0.2
	c0.3-0.4,1-1.2,1.4-1.4c0.3-0.2,0.9-0.2,0.9-0.5c0-1.2-0.5,2,0-1.4l5.2,2.5v7.3c0,0.6,0.3,1.5-0.5,1.6s-1.2,0.1-1.8,0.5
	c-1.2,0.7-0.4,3.7-0.7,3.9c-0.1,0-0.9,0.2-1.1,0.2c-1.3,0-1.9,0.2-1.4-1.4c0.2-0.8-0.5-1.6-0.9-2.3l-13.2,12.5l8.4,10
	c0.4,0,1.3-0.2,0.9,0.5c-0.1,0.2-0.5,0.5-0.7,0.7c-0.1,0.1-0.1,0.1-0.2,0.2c-0.1,0.1,0,0.3,0,0.5c0,0.5,0,1.1,0,1.6
	c0,0.6,0.2,0,0.5,0c0.9-0.1,1.7,0,2.5,0.2c0,1-1.3,1.2-1.6,1.8c-0.2,0.3,0,1.9,0,2.3c0,0.8-0.6,0.7-0.7,1.1
	c-0.1,0.9,1.4,0.6,2.1,0.9c0.5,0.3,0.9,2.5,1.1,3c0.5,0.8,3.3-0.2,3.4,0.2c0.2,0.8-2.1,2.7,0.2,2.7c1.9,0,1.9-0.3,3.4,0.9
	c0.4,0.1,0.2,0.7,0.2,1.1v1.1c0,1.1,0.6,1.1,0.7,1.8c0,0.3,0.4,0.6,0.7,0.9s0.5,1,0.7,1.4c0.8,0,2.4,0.1,2.7,0.5
	c0.6,0.6,0.5,1.1,1.6,1.1c1.3,0,3-1.1,3.2,0.7c0.2,1.5,0.1,1.7,1.6,1.8c-0.5,1.5-2.7,0.3-3.4,1.1c-0.7,0.8-3.4,1.3-4.1,0.5
	c-0.8-1-0.8-1.1-2.3-1.1c-1.1-0.1-1.6,0.9-2.1,0c-0.6-1.1-0.3-1.2-1.6-1.8l-5.9,5.7l0.2,4.3l1.8-0.2l-2.1,5.2l2.1,2.3
	c0.8,0-0.1,0.3,0.5,0.9l0.2,0.2c0.7,0.7-0.3,0.5-0.7,0.7c0,0,0,0.6,0,0.7c-0.2,0.8-0.4,0.7-0.5,1.6c0,0.4-0.1,1.1,0,1.6
	c0,0.2,0.1,0.1,0.2,0.2c0.2,0.2,0.5,0.9,0.7,1.4l0.5,0.6c0,0.4,0.9,1,1.4,1.2c0.4,0.2,0.6,1.6,1,1.6c0.2,0,0.9-0.6,1.4,0
	c0.2,0.2-0.3,0.3-0.2,0.6c0.1,0.5,0.8,0.8,1,1.2c0.1,0.1,0,1.1,0,1.4c-0.1,0.7-0.5,0.4-0.6,0.8c-0.1,0.6,0,1.2,0,1.8
	c0,1-0.2,0.5,0.4,0.8c1.1,1.4,0.2,1.9,1.8,2c0.3,0,0.3,0.7,0.2,1c-0.4,1.1-0.4,2.1-0.4,3.5c0,2.8,0.5,4.2,1.2,6.3
	c0.7,2.2,1.4-0.4,1.4,3.1c0,1.6,0.3,1.4,1.6,1.8c0.1,0.4,1.1,1.3,0.6,2.2c-0.2,0.3-3.5-0.6-3.9-0.2c0,0-0.2,6.3-0.2,6.7
	c0,3.5,1.4,0.7,1.4,2.4c0,1.5-1.3,3.4-1,4.9c0.3,1.3,4.1,0.1,3.5,1.4c-0.3,0.7-0.7-0.4-0.6,1c0.1,0.8,3.5-0.1,3.9-0.2
	c-0.7-0.2,0.1-4.9,0.2-4.9c1.8-1,1.1,2.2,3,2.2c4.2,0,1.1-6.2,3.9-6.7c2.5-0.4,4.1,2.4,4.1-1.6c0-3.5-0.4-7.9,1.6-10.6h9.1
	c0.3-0.1,0.2,0,0.2-0.4c0.1-0.6,0.3-0.3,0.8-0.4c0.6-0.1,1.6-0.4,1.8-1c0.1-0.2,0.2-0.4,0.2-0.6c0.1-0.5,0.2-0.8,0.4-1.4l-4.1-3.9
	l-0.6-12.4l-2.8-2.4l0.2-5.3h5.3c0.3-0.1,0.3-0.6,0.4-1c0-0.2,0.2-0.5,0.4-0.8c0.1-0.1,0.1-0.1,0.2-0.2c0,0,0.2-0.3,0.2-0.4
	c0.4-0.6,0.5-0.1,0.6-0.8c0.1-0.6,0.6,0.4,0.6,0.6v0.2c0,0.2,1.3-0.1,1.4-0.2c0.7-1-0.6-0.8,0.4-0.8h0.2c0.1,0,0-1.7,0-1.8
	c0.4-0.1,0.1-1.2,0.4-1.6c0.8-0.8,0.7-0.3,0.8,0.6c0.1,1.6,3.5,1.6,3.5,0c0-1.3,1.4-0.5,2.4-0.8c0.2-0.1-0.3-1,0-1.6
	c0.1-0.2,0.8,0,0.6-0.6c-0.2-0.5-0.5,0-0.8-0.2c-0.6-0.4-0.9-0.9-1.8-1c-0.8-0.1,0.5,0.4-0.4,0.2c-1-0.2-0.6-0.9-0.6-2
	c0.6,0,1.8,0.2,2-0.2c0.1-0.4,0-0.9,0.6-1c0.5,0,0.4,0.1,0.4-0.6c0-1.5,2-0.6,2.2-2.2c0-0.5,0.1-0.7,0.2-1c0.1-0.3,0.5-0.7,0.6-0.2
	c0.1,0.6,0,1.6,0,2.2h2.8l11.6-11c0.3,0,1.4-0.1,1.6,0c0,0,0,0.7,0.2,0.8h0.6c0.1-0.1,0.2-0.5,0.2-0.6c0.1-0.1-0.1-0.4,0-0.4h0.2
	v-0.6c0-0.3,0.3-0.3,0.4-0.4c0.3-0.2,0.3-0.3,0.4-0.4c0.1-0.1,0.5-0.1,0.6-0.2c0.2-0.2,0-0.5-0.2-0.6c-0.5-0.1-0.1-1.2,0-1.6h-4.7
	v-16.3c-1.9,0-1.4,0.1-3-0.8c-0.7-0.4-1.8-0.2-2.6-0.4c-0.8-0.3-1.1,0.4-1.4,1c-0.1,0.3-0.1-0.2-1-0.2c-2.1,0-1.8-0.4-2,1.2
	c0,0.4-2.7-0.3-2.8-0.4c-1.2-2.9-3.7-5.3-2.8-0.2c-0.8-0.3-0.7-0.7-1.6-1l-0.6-0.2H575l-0.6-0.2v-5.7l-8.9-5.1l1.6-5.3l-2.8-4.3
	h-4.1l1.8-6.5l-4.9-0.2c0-0.8-0.1-2.3,0.4-2.6c0.3-0.2,0.3,0.3,0.4-0.2c0.2-1.6-0.1-2.2,1.6-2.4c0.5,0,1.5-0.9,0.4-1
	c-1-0.1-0.5-0.7-1-1.4c-0.2-0.3-0.6-0.4-0.8-0.8c-0.3-0.6,0.3-2.6,0.4-3.1c-1.3,0-2.7,0.3-3-1c-0.1-0.3,0.9-0.7,1-1
	c0.1-1.3-0.2-2.6,0.4-3.5c0.3-0.4,0.5-1.2-0.4-1.2s-3.1,0.1-3.1-1.4c0-0.9-1.2-1-2.2-1.4L555.1,209.7z"/>
<path id="SIN" class="st0" d="M325.1,320.7c-0.5,0-0.9-0.3-1.3-0.6c-0.1-0.4-0.5-0.7-0.5-1.2c0.1-0.4-0.2-0.7-0.5-0.9
	c-0.2-0.3-0.7-0.6-1.1-0.5c-0.2,0.3-0.4,0.8,0,1.1c0.3,0.2,0.5,0.7,1,0.5c0.4-0.1,0.8,0,1.2,0.1c0.6,0,0.3,0.7,0.7,1
	C324.9,320.3,325,320.5,325.1,320.7L325.1,320.7z M274.3,246.7c0,0.2,0,0.3,0,0.3c0,2-0.3,1.9,1.6,1.9c3.1,0,1.4,1.8,1.4,3.3
	c0,1.3,1.2,3.2,1.9,4.4c0.3,0.5-3.3,0.1-3.6-2.2c-0.1-1,0.3-2.6-0.3-3.3c-1.6-1.9-1.9-1.2-1.9,0.8c0,1.1-1,1.1-1.6,1.6
	c-1.8,1.6-0.4,3.3-2.2,4.4c-1,0.6-2,0.1-3,1.1c-1.5,1.5-1.2,4.7,0.8,3c1.1-0.9,0.3,2,0,2.5c-0.4,0.5-1.5,0.9-2.2,1.4
	c1,0.8,1.6,0.6,2.5,1.5c1.3,1.4-3.5,1.6-0.7,3.8c0.8,0.6,2.3,1.1,2.4-0.2c0.1-0.7,1.2,1.4,1.8,1.5c3.9,0.9,7.8,4.4,11.3,6
	c1.6,0.7,1.1,2.3,2.9,2.4c0.8,0.1-1.3-3.3-1.3-4.4c0-3.8,2.8,0.5,3.3,1.5c1.7,3.6-1.8,5.5,4,5.5c1.8,0,5.1,2.1,5.5,3.1
	c0.7,1.6,0.2,3.8,2,4.4c3.2,0.7-0.6-1.7-0.4-2.7c0.6-3.8,1.6-1.5,2.9,0.7c0.5,0.8,1.5,4.8,2,4.9c1.5,0.2-1,2.1,0.7,3.8
	c0.3,0.3,1.3,2,1.3,2c0.5,1.5,1.7,2.4,2.9,4c2,2.6,6.5,3.5,7.1,6.6c0.3,1.5,3.5,6.4,4.9,6.4c2.5-2.6-1.6-4,1.3-6.6
	c1.2-1.1,3.7,5.9,3.8,6.2c1,7,5.3,3.8,7.5,6.8c2.1,2.9,0.7,8.1,5.7,8.8c3.2,0.5,4.5,14.6,11.5,17c5.3,1.8,2.1,4.2,5.1,6.8
	c3.2,2.9,4.2,3.8,6.9,7.1c0.3,1.9,0.6,1.8,1.1,2.9c0.5,1.2,2.5,2.4,3.5,2.4c1.5,0.1,0.9,0.4,1.5,1.3c0.4,0.6,0-0.4,0.2,1.3
	c0.1,0.7,2.6,3.2,3.1,4.9c0.5,1.7,1.8,1.3,1.8,3.8c0,0.8,0,2.5,0.2,3.3c0.1,0.2,3.1,0.8,3.1-0.4c0-3.1-0.9-5.8-0.9-9.3
	c0-1.9-0.6-3.5,1.8-2.2c1.2,0.7,1.3,3,1,5.5c0.8,0,1.6,0,1.9,0.4c0.7,0.9,1.4,1.6,2.7,1.6c3.1,0.1,1-3.2,0.9-4.8
	c0-0.5-1.7-0.8-1.6-1.8c0.1-1.4,0.4-3.6,1-4.8c0.6-1-1.3-4.9,0.9-4.9c0.7,0,2.6-1.2,3-1.9c-0.4-0.7-0.5-1-0.6-1.9
	c0-0.4,0-0.4-0.4-0.4c-1,0-1.7-0.6-2.8-0.6c-0.9,0-1-0.1-1,0.7c0,0.3-1.2,0.8-1.5,0.6c-0.4-0.2,0-1.7-0.1-1.8
	c-0.3-0.2-0.8,0.2-0.9-0.3c0-0.3,0-0.7,0-1c0-2.1,0.2-1.9,2.2-1.9c0-0.6-4.8-0.4-5.1-1.8c-0.1-0.7-1-0.8-0.6-2.2
	c0.4-1.5,1.5-4.1-0.7-4.9c-0.4-0.2-0.3-1-0.3-1.5c0-1-0.4,0-1-0.9c-0.2-0.2-1.2-1.2-1.5-0.4c-0.3,0.7-0.4,0.7-0.4,1.5
	c0,1.9-0.8-0.6-1.2-1.2c0-2.9,0.7-6.8-0.3-8.4c-0.8-1.3,5.8-2,1.8-3.3c-2.4-0.8-3.4-6.5-3.4-9c0-2.3-6.8-3.4-7.3-5.8
	c-1,0.6-0.3,1.4-1.5,1.6c-0.8,0.2-1.6,0-1.6,0.9c0,0.2,0,1,0,1c-0.4,0.2-1,0.4-1.3,0.6c0,0,0,0.9,0,0.7c-0.4-1.2-0.5-0.7-1.8-0.7
	c-0.4,0-1.3-0.1-1.3-0.4c-0.3-1.2-0.1-0.9-1.3-0.9c-0.6,0-1.4-0.5-1.6-1c-0.4-0.8,0-4.6,0-5.5c0-1.2-0.8-0.3-1.3-0.1
	c-0.9,0.2-0.8-1.5-0.6-1.9c0.7-2-1.5-1.9-1.5-2.8c0-1.1-0.8-2.5-0.9-3.9c-0.1-0.7-1-0.4-1.3-0.7c-0.8-0.9-1.8,0.2-2.1-1.9
	c-0.2-1.5-2.5-1.6-2.5-3c0-1.1-2-0.9-3-0.9c-1.7,0-1.5-2-1.5-3.4v-6.4h-1.2c-1.3,0-0.7,0.1-2.3-0.9c0-2.9,0.6-1,2.3-2.7
	c1.8-1.7-1.1-4.5-0.4-6.5c0.6-1.8,1.9-1.1,3.9-1.2c1,0,1.7-0.3,2.3-0.6c0-0.7-0.3-0.1-0.3-0.6v-0.2c0-0.2-0.5,0.1-0.7,0
	c0,0,0-2.3,0-2.6c0-0.4-0.9-0.2-0.9-0.5v-0.5l-0.9-1c-2.1,0-1.3-3.1-3.1-2.9c-1.8,0.2-1.4,0.4-2.6-1.7c-0.2-0.3-1.2-2.5-1.2-2.8
	c0-0.5,0.2-2.7-0.2-2.8c-1.7-0.3-2.6,0.8-3.1-1.4c-0.4-1.6-3.3,0.5-4-1h-6.4l-4.8-6.7l-0.5-9.5c-0.5-0.4-2.2,0.2-2.4-0.5
	c-0.2-1,0.4-0.6,0.9-0.9c0.2-0.1,0.2-1.1,0.3-1.2c0.3-0.2,1.2-0.1,0.7-0.7c-0.2-0.2,0.2-1.1,0.2-1.7c0-0.9,0.1-1.9-0.7-2.1
	c-1.7-0.5,0.4,0.1-1-0.9c-0.3-0.2-0.8-0.4-1.2-0.5c-0.8-0.2-3.6-1.2-3.1-2.4c0.3-0.7,0.5-1.8,0.5-2.8H299l-1.1,0.4l-5,11.7l-7.2,3.9
	v2.2l-7.2,2.8L274.3,246.7L274.3,246.7z"/>
<path id="DUR" class="st0" d="M387.1,360c0.2,0.1,0.3,0.2,0.4,0.4c0.1,0.6,0.9,1.3,0.6,2c-0.3,0.8-0.5,0.2-0.2,1H398v2.6
	c0,0.6-0.2,0.7,0.2,0.8c0.9,0.4,0.1,0.4,0.4,1.2c0.2,0.6,3.6,1.8,2,3c-1.2,0.9-5.3-0.3-5,2.2c0.2,1.5,0.9,1.2,2.2,1.2
	c1.5,0,1.8,0,1.8,1.6c-0.4,1.1-0.7,1.1-0.6,2.2c0,0.7,2-0.1,2.2-0.4c0.4-0.8,1.8-0.6,2-1.2c0.1-0.3,0-0.9,0-1.2
	c0-0.4,0.1-1.6,0.4-1.6c0.6-0.1,1.4-0.1,1.6,0.4c0,2.4,0.2,3.7,2.4,3.8c0.8,0.1-0.1,4,2.6,4h9.3c0-1.1,0-2.1,0-3.3v-2.2
	c0-0.6,0.7-0.5,1.1-0.8c1.1-0.8-0.4-4.4,0.7-5.2c0.8-0.6,1-0.5,1.8-0.8c1-0.4,1.8,0.3,2.6-0.7c0-0.3-0.1-2.8,0-2.9
	c0.7-0.8-1.5-0.1-1.5-1.5c0-0.7,0.1-1.2,0.1-2c0-0.9-1.1-1.3-1.1-1.5c0-2.7-0.8-4,2.5-4c0-1.4-0.5-2.2,0.5-3.1
	c0.9-0.8-0.4-4.3,1.1-4.9c0.5-0.2,1-1.2,1.4-1.6c1.2-1.5,3.1-0.6,4.1-3.3c0.4-1.1,2.7-1.5,2.7-2.7s-0.6-1.9-0.6-2.9
	c0-0.7,0.1-1.5,0.1-2.1c0-1.4-0.9-2.1-0.9-3.6c0-1,0.4-2.1,0.4-3.2c1.3-0.3,2.5-0.5,2.8-1.9c0.4-1.4,0.1-1.4,1.9-1.4
	c0.8,0,3.3-0.2,3.3-1.2c0-2.1,0.1-1.7,0.8-2.9c0.3-0.5,0.3-1,0.7-1.4c0.1-0.1,2.1-0.6,2.5-0.7c2.7-0.7,0.6-4.6,2.6-5.3
	c1,0.8,2.6,0.8,3.6,1.5c0.7,0.5,1.9,1,2.6,1.2c0.6,0.1,0.8-0.1,1.3-0.2c1.3-0.5,1.3-0.5,1.4-2c0.1-1.7,5.9,0.6,6.9,1.2
	c1.8,1.5,0.4,2,2.9,2c1.4,0,1.2,0,2.2,0.8c2,1.7,1-0.9,1.5-1.8c0.6-1.1,3.6-0.5,4.8-1.2c0.8-0.9,0.1-2.9,0.1-4.1
	c0-1.1-1.7-3.6-2.6-3.6c-1,0,0.6-1.2,0.6-2.4c0-1.3-0.7-6.1-1.2-6.1c-2.1-0.2-2.9-2.2-3.5-3.8l-2.3,2.7l-1.6,5
	c-0.1,0.4-0.2,1-0.5,1.1l-1.4,0.9c-2.4,0-3.3-1.4-4.1-3.2c-0.1-0.2-4.2-0.3-5.2-0.9c-3.2-1.8-5.7-5.4-5.7-9.4c0-4.3-4.8,1.6-2.7-5.7
	c0-0.8-0.3-2.2,0.5-2.3c0.7-0.1,1.2-0.1,1.8-0.2c0.8-0.1,0.3-0.4,0.2-0.7c-0.2-1-0.4-0.6-1.1-0.7c-0.5-0.1-0.2-2.6-0.5-3.2
	c-0.2-0.5-0.5-0.6-0.5-1.1c0.3-1,1.2-0.4,1.8-1.1c0.5-0.6,1.1-1.7,1.4-2.3c1.2-2.2,0.6-5.6,0.2-8.2c-0.4-0.6-0.8-0.8-1.1-1.1
	c-0.2-0.2-0.2-0.6-0.2-0.9c-0.1-0.7-0.2-0.5-0.2-0.9c-0.1-1.2-0.1-0.6,0.7-1.1c1.1-0.7,0.7-3.5,0.7-4.8l3-3.2l-2.3-4.8l-1.6-5.2
	l-9.9-4.5l-13.8-1.2l-6.4,4.9c-0.1,0.3-1.2,1.2-1.4,1.4c-0.2,0.2-1.4,1-1.6,1.2c-0.9,1.7,0.5,5.9-2.1,6c-1.6,0.1-3.7-1.6-4.3-2.9
	c-0.8-1.9-1.5-1.8-3.8-2.8c-1.8,0.6-2.5,0.5-4,1.4c-1.8,1.1-2.6,1.5-3.3-0.5c-0.1-0.3-1-1-1.4-0.7c-1.2,1-0.5,1.9-0.5,3.4
	c0,2.8-6-4.2-8.6-4.3c-0.6,0-2.8-1-2.9-1.2c-0.4-0.4-0.4-3.5-1.9-2.4c-0.8,0.5-0.1,1.2-1.6,0.7c-2.4-0.9-3.6-5.2-7.6-5.3
	c-2.8-0.1,0.6-3-4.3-1.6c0,1.2-1.8,1.9-2.4,3.1c-0.7,1.5-0.8,1.3-2.6,2.1c-2.9,1.2-0.3,6.5-2.1,8.3c-2.7,2.7-5.3,6-5.3,10.5
	c0,3.6-1.8,2.2-2.4,4.8c-1.8,8.5,2.6,6.5-6,12.2c-2.8,1.9,0.6-0.3-2.8-0.3c-0.8,0-1.2-1.4-2.2-1.6c-1.3-0.1-1.7-0.5-3.1-1.1
	c-0.6,0.4-1.3,0.6-2.3,0.6c-1.9,0.1-3.2-0.7-3.9,1.2c-0.7,2.1,2.1,4.9,0.4,6.5c-1.8,1.7-2.3-0.2-2.3,2.7c1.6,1,1,0.9,2.3,0.9h1.2
	v6.4c0,1.4-0.2,3.4,1.5,3.4c1,0,3-0.2,3,0.9c0,1.4,2.3,1.5,2.5,3c0.3,2.1,1.2,1.1,2.1,1.9c0.3,0.3,1.3,0,1.3,0.7
	c0.1,1.4,0.9,2.8,0.9,3.9c0,0.9,2.2,0.8,1.5,2.8c-0.2,0.5-0.3,2.1,0.6,1.9c0.5-0.1,1.3-1,1.3,0.1c0,1-0.4,4.7,0,5.5
	c0.3,0.6,1,1,1.6,1c1.3,0,1-0.3,1.3,0.9c0.1,0.4,1,0.4,1.3,0.4c1.3,0,1.4-0.5,1.8,0.7c0,0.1,0-0.7,0-0.7c0.4-0.2,1-0.4,1.3-0.6
	c0,0,0-0.8,0-1c0-0.9,0.8-0.7,1.6-0.9c1.2-0.3,0.5-1.1,1.5-1.6c0.5,2.5,7.3,3.5,7.3,5.8c0,2.4,1.1,8.2,3.4,9c4,1.3-2.6,2-1.8,3.3
	c1,1.6,0.3,5.4,0.3,8.4c0.4,0.6,1.2,3.1,1.2,1.2c0-0.8,0.2-0.8,0.4-1.5c0.3-0.8,1.3,0.2,1.5,0.4c0.6,0.9,1-0.1,1,0.9
	c0,0.5-0.1,1.3,0.3,1.5c2.2,0.9,1.2,3.4,0.7,4.9c-0.4,1.4,0.5,1.6,0.6,2.2c0.3,1.4,5.1,1.2,5.1,1.8c-2.1,0-2.2-0.2-2.2,1.9
	c0,0.3,0,0.7,0,1c0.1,0.5,0.6,0.1,0.9,0.3c0.2,0.1-0.2,1.6,0.1,1.8c0.3,0.2,1.5-0.3,1.5-0.6c0-0.9,0.2-0.7,1-0.7
	c1.1,0,1.8,0.6,2.8,0.6c0.4,0,0.4,0,0.4,0.4C386.6,359.1,386.8,359.3,387.1,360L387.1,360z"/>
<path id="NAY" class="st0" d="M360.2,418.7c-0.1,0.4-0.3,1-0.8,1s-1.1-0.2-1.6,0.2c-0.1,0.5-0.9,0.2-0.5-0.3
	c0.3-0.4,0.1-1.2-0.5-0.9c-0.4,0.2-1.1,0.4-1.4-0.1c-0.2-0.2-0.3-0.6,0.1-0.5c0.5-0.1,1.3-0.4,1.1-1c-0.1-0.4,0.1-0.7,0.4-0.7
	c0.3-0.3,0.8-0.7,1.2-0.3c0.3,0.4,0,1.1,0.6,1.4c0.4,0.4,1,0.5,1.4,0.9C360.2,418.4,360.2,418.6,360.2,418.7L360.2,418.7z
	 M351.7,411c0.8,0,2.8-0.3,2.8,0.6c0,0.8-0.1,0.6,0.2,1c0.5,0.6-0.2,0.2,0.6,0.2h0.6c0.7,0,1.1-0.2,1,0.6c-0.1,0.7-0.3,0.4-0.8,0.6
	c-0.1,0-0.1,0.2-0.2,0.2c-0.2,0-0.2,0.1-0.4,0.2c-0.1,0.1-0.1,0.1-0.2,0.2s-1.1,0.4-1.4,0.6c-0.2,0.5-0.6,0.3-0.8,0.6
	c-0.1,0.2,0.1,1.4-0.4,1.2c-0.3-0.1-1.4-1.4-1.4-1.8c0-1.9,0.6-1.1-1-1c-1.7,0.1-2.1-0.1-1.4-1.4c0.5-0.9-0.9-2.8-2.2-2.4
	c-2.2,0.9-2.2-2.3-2.2-3.9c0-2,5.1-2.5,5.7-1.6c0.2,0.3,0.4,1.5,0.4,1.8c0.1,0.4,0,0.9,0,1.4c0,1.1,0.6-0.3,1.4-0.4
	c1-0.2,0.6,0.3,0.2,0.4C351.3,408.2,351.3,409.2,351.7,411L351.7,411z M369.4,401.7c0.3-0.4,0.7-0.7,0.8-1.2c0-0.3,0-0.7,0-1
	c-0.1-0.2-0.4-0.2-0.6-0.1c-0.3,0-0.6-0.1-0.9,0.1c-0.3,0.1-0.2,0.4,0,0.6c0,0.2-0.1,0.5,0.1,0.7C369.1,401,369.2,401.4,369.4,401.7
	L369.4,401.7z M344.4,403.7c0.5-0.1,1-0.3,1.6-0.2c0.3-0.1,0.3-0.5,0.3-0.8c0.1-0.3,0.2-0.7-0.1-1c-0.3-0.2-0.3-0.6-0.7-0.7
	c-0.3-0.1-0.6-0.4-0.9-0.3s-0.7,0.3-0.8,0.6c-0.1,0.3,0.2,0.5,0.2,0.9s0.1,0.7,0.2,1.1C344.3,403.4,344.4,403.6,344.4,403.7
	L344.4,403.7z M378.3,376.3c0.8,0,1.6,0,1.9,0.4c0.7,0.9,1.4,1.6,2.7,1.6c3.1,0.1,1-3.2,0.9-4.8c0-0.5-1.7-0.8-1.6-1.8
	c0.1-1.4,0.4-3.6,1-4.8c0.6-1-1.3-4.9,0.9-4.9c0.7,0,2.6-1.2,3-2c0.2,0,0.3,0.2,0.4,0.4c0.1,0.6,0.9,1.3,0.6,2
	c-0.3,0.8-0.5,0.2-0.2,1H398v2.6c0,0.6-0.2,0.7,0.2,0.8c0.9,0.4,0.1,0.4,0.4,1.2c0.2,0.6,3.6,1.8,2,3c-1.2,0.9-5.3-0.3-5,2.2
	c0.2,1.5,0.9,1.2,2.2,1.2c1.5,0,1.8,0,1.8,1.6c-0.4,1.1-0.7,1.1-0.6,2.2c0,0.7,2-0.1,2.2-0.4c0.4-0.8,1.8-0.6,2-1.2
	c0.1-0.3,0-0.9,0-1.2c0-0.4,0.1-1.6,0.4-1.6c0.6-0.1,1.4-0.1,1.6,0.4c0,2.4,0.2,3.7,2.4,3.8c0.8,0.1-0.1,4,2.6,4h9.3
	c0,0.7-0.2,2.6-0.4,3.2c0,0.1-0.8,0.2-0.8,0.6c-0.2,1.2,0.1,1.3-0.6,2.2c-0.3,0.4-0.2,1.1-0.2,1.6c0,1-1.2,0.3-1.2,1.8
	c0,1.3,0.1,3-0.2,4c2,0.9,2.3-0.3,4-0.2c0.1,0,1.5,0.3,2,0.4c1,0.2,1.7,2.5,0.8,3.2c-1,0.8-0.5,4.4,1.8,3.2c0.7-0.4,1.7-0.2,2.6,0.4
	c0.8,0.6,0.2,1.4,1.8,1.4c0.4,1.8-0.1,1,1,1.8c0.9,0.6-0.5,5.3,0.2,6c0,0,0.5,0,0.6,0c0.2,0,0.2,0.2,0.4,0.2
	c4.4,0.8,1.6,2.5,1.6,5.4c0,1.8,0,2.8-1.2,3.8c-1.2,0.9-1.9-1.5-3.2-0.8c-0.1,0-0.2,0.4-0.2,0.6c0,1.3-0.8,1-1,2.2
	c-0.7-0.2-1-0.2-1.6-0.2c-0.3,0-0.7,0-1,0c-0.7-0.1-0.1,0.1-0.6-0.4c-0.1-0.1-0.2-0.2-0.4-0.2c-0.6-0.1-0.2,0.2-0.6,0.2
	c-0.7,0.1-1.5,0-2.2,0v8l-3.4,3.4l2.4,3l0.4,5.6c-0.6-1-0.4-1.3-0.6-2.4c-0.3-1.3-1.9-0.6-2.6-1.8c-0.3-0.5-0.7-1.9-1.2-2.6
	c-0.8-1.1-5.9-2.3-6-3.6c-0.2-1.7-1.2-1.6-2.8-1.6c-0.4,0-0.7-1.4-0.8-1.8c-1.8-0.8-6.5-1.7-7,0.8c-0.5,2.6-2.9,0.5-4.2,1.6
	c-1.1,0.9-2.1,0.8-2.8,2c-0.8,1.3-3.4,1.4-3.8,3c-0.3,1.2-0.3,1.8-0.8,2.5c-0.2-0.5-0.8-0.8-1.8-0.9c-1.7-0.1-3.4-0.2-5.1-0.2
	c0.2-2.6,2.4-3.4,2.9-4.9c1-2.7,5.1-2.8,5.7-5.1c0.8-3.1-1.9-5.9-0.7-9.3c1-3,1.7-4.8-1.5-7.1c-1.1-0.8-3.7-6.8-5.5-7.1
	c-1.6-0.2-4.8-7.7-4.9-9.1c-0.2-1-0.5-0.7-0.4-1.8c0-0.8,0.6-1.3,0.7-1.8c0.2-1.2-1.3-3.8-1.3-5.3c0-0.5-0.2-2,0.2-2
	c1.3,0,0.3,0.1,0.7,0.7c0.5,0.9,0.9,2.2,0.9,3.5c0,1.8-0.1,1.1,0.9,2c0.4,0.4,0.4,2.5,0,2.7c-1.5,0.6,0.2,1.2,0.2,1.1
	c0.6-0.8,1-1.2,1.8-1.5c1.1-0.5,0.5,0.5,0.7,0.9c0.1,0.2,0.7,0.6,0.7,0.7c0.8,1.3,1.4,0.9,2.9-0.2c0-2.2-3.3-1.4-5.1-3.3
	c-0.7-0.8-1.1-6-1.5-7.1C377.3,382.6,378,379.3,378.3,376.3L378.3,376.3z"/>
<path id="SLP" class="st0" d="M505.4,402.1c3.7,1,8.7,0.4,12.9,0.9c3.5,0.4,10.1,6.1,12.4,8.7c2.2,2.6,9.9-5.5,12.1-6.2
	c1.7,0.4,3.2,0.4,3.4,2.3c0.3,2.7,4.3,3.4,6.2,4.2c0.9,0.4,1.6,0.4,2.8,0.4c1.3,0,1.7,0.4,2.8,0.4l2.2-3.7h2.2l4.6,5.3
	c0.6-1.2,1.6-0.9,2.4-1.8c0.2-0.2,1.5-0.5,1.6-0.8c0.1-0.6,0.5-1,0.5-1.6c0-2.7,3.8,0.5,3.8-1.9c0-1,0.4-1.5,1.1-2.2
	c0.5-0.5,2.5,0.1,1.6,0.1c0.3,1,0.3,1.8,0.3,2.8c0,0.7-0.1,0.7,0.5,0.8c0.8,0.1,0.5,3.1,0.1,3.7c-0.4,0.7-0.4,1.1-0.4,2
	c0,1.8,1.6,2.2,2.6,3.8c0.3-0.5,1.4-1.9,2-1.5c0.9,0.5,1.1,1.2,2.2,1.4c0.2,0,0.3,1.5,0.4,1.8c0.2,0.4,1.5,0.9,2.2,0.9
	c1.1,0,3.3,0.9,4.2,0.4c0.3-0.2,0.6-0.6,0.8-0.8c0,0,0.1-0.2,0.1-0.3c0.1-0.2,0.4-0.2,0.5-0.4c0.2-0.2,0.4-0.6,0.7-0.7
	c0.2-0.1,1.1-0.4,1.1-0.7c-0.1-0.8-0.2-0.9-0.9-0.9c-0.2,0-0.5,0-0.7-0.1c-0.3-0.2-0.4-0.1-0.8-0.3c-0.3-0.1-0.5-0.6-0.5-0.8
	c0-0.5-0.1-0.9-0.1-1.5l5.8-1.4l-0.8-3.8H596c-0.6,0-0.5,0.2-0.5-0.4c0-0.8-0.1-1-0.1-1.8c0-0.4-0.2-0.3-0.3-0.4
	c-0.2-0.4-0.1-0.9-0.3-1.4c-0.1-0.3-0.3-0.8-0.3-1.1l4.6-2.3l-0.1-1.9c-0.4-1.7-1.1-1.2-2.7-1.6c-0.2-0.1,1,0,1.2-0.7
	c0.9-2.9-0.2-4.4,2.3-6.2c1.4-1,3.3-7.3,0.7-7.3c-1.4,0-4.3-0.4-4.6-1.6c-0.1-0.3-0.1-0.6-0.1-0.9c-1.5-0.2-1.3-1.5-4-1.5
	c-1,0-1,0.8-1.4,1.5c-0.5,0.9-4.2,0.1-4.9,0.1c-2.4,0-1,1.4-2.1-1.1c-0.1-0.3-1.3-0.7-1.8-0.7c-2.2-0.1-6.1,1.6-7.3,0.8
	c0.1,0,0.3-2.4,0.4-2.7c0.1-0.4,0.8-0.8-0.3-0.8c-1,0-0.8,0.1-0.8-0.8c0-0.3,0.1-0.5,0.1-0.7c0.1-0.6,0.1-0.9,0-1.5
	c-0.1-0.5-2.6,0.1-3.2-0.1c-1.1-0.6-2.1-2.1-2.7-3.2c-0.3-0.9-2.1-1.5-2.1,0.1c0,0.4,0.9,3,0,2.9c-1.6-0.3-2.5-1.4-4.2-1.9
	c-0.9-0.3-1,1.4-2.3,1c-0.6-0.2,0-0.8-1-0.3c-0.6,0.3-1,0.6-2.1,0.7c-1.1,0-0.7-0.6-0.7-1.5c0-0.6,0.1-1.1,0.1-1.8
	c-0.3-1.2,0-1.4-1.4-1.4c-1.6,0-3.3-0.1-4.7,0.3c-0.3,0.1-0.8,0.5-1,0.4c-0.4-0.3-1-1.6-0.1-1.6c0.2,0,0.7,0,0.8-0.1
	c0.2-0.4-0.2-2.6-0.5-2.2c0,0-1.5,1.7-1.6,1.2c-0.2-0.7,0-2.5,0-3.4c0-1.9-0.5-1.5,1-2.1c0.4-0.2,0.9-0.4,1.4-0.7c1-0.6,1-0.7,1-2.2
	h-1.8c-1.2,0-1.1,0.2-1.1-1c0-1.3,0.2-1-0.8-1.2c-0.4-0.1-1-0.2-1-0.5v-1.7c-0.2,0.1-0.5,0.1-0.8,0.1c-1.8,0-1.2-3.2-3-2.2
	c-0.1,0.1-0.9,4.7-0.2,4.9c-0.4,0.1-3.9,0.9-3.9,0.2c-0.1-1.4,0.3-0.3,0.6-1c0.6-1.3-3.3-0.1-3.5-1.4c-0.3-1.6,1-3.4,1-4.9
	c0-1.6-1.4,1.1-1.4-2.4c0-0.4,0.2-6.6,0.2-6.7c0.4-0.4,3.8,0.5,3.9,0.2c0.6-0.8-0.5-1.8-0.6-2.2c-1.3-0.4-1.6-0.2-1.6-1.8
	c0-3.5-0.7-0.9-1.4-3.1c-0.6-2.1-1.2-3.5-1.2-6.3c0-1.5,0-2.5,0.4-3.5c0.1-0.3,0.1-1-0.2-1c-1.6-0.1-0.6-0.5-1.8-2
	c-0.6-0.3-0.4,0.2-0.4-0.8c0-0.6-0.1-1.2,0-1.8c0-0.4,0.5-0.1,0.6-0.8c0-0.3,0.1-1.3,0-1.4c-0.2-0.4-0.8-0.6-1-1.2
	c-0.1-0.3,0.4-0.4,0.2-0.6c-0.4-0.6-1.1,0-1.4,0c-0.4,0-0.5-1.4-1-1.6s-1.4-0.8-1.4-1.2l-0.6-0.6l-0.9-0.2l-8.1,13.7h-1.6
	c-0.8,0-0.8-0.5-2-0.4c-1,0.1-0.1,0.3-0.4,0.8c-0.4,0.6-0.8,0.2-0.4,0.8c0.1,0.2,0.4,0.1,0.4,0.4c0,0.4,0,0.8,0,1.2
	c0,0.9-0.3,1.8,0.4,2L497.2,347c-2.4-2-1.9-2-2-2c-2.8-0.7-0.4,0.3-1.2,0.8c-0.7,0.5-2.3-0.5-2.4,1.2c-0.1,1.2-0.8,2.2-0.8,3.4
	c-1.5,0-4,1.7-6,1.4c-2.4-1.7-4.9-4-4.9-1.6c0,0.6-1.1,14.2,2.1,17.4c1,1,2.7,1.9,4,2.8c1.5,1,1.5,4.9,4,4.9c3.3,0,4.2,0.7,6.1,1.9
	c2.2,1.3,1.1,1.3,3.2,1.3c1.7,0,3,0.6,3.2-1.2c0.1-0.4,0.1-1.8,0.4-2c2.1-1,0.2-0.3,1.2-0.8c3.1-1.7,0.2,0.8,1.2-0.8
	c0.1-0.2,0.2-0.2,0.4-0.4c0.1-0.1,0.6-0.4,0.8-0.4c0.7-0.2,0.8-0.4,1.6-0.4c3,0.2,1.8,1,2,4c0.1,1.2,0.8,2.1,0.8,4c0,1.8-2,1.6-2,4
	c0,3.4,1.6,5.4,0.8,8.9c-0.2,1.1-2.2,2.8-2.8,4C507,398.7,506.3,401,505.4,402.1L505.4,402.1z"/>
<path id="QRO" class="st0" d="M548.3,462.2c0-0.5-0.1-0.9,0-1s0.9-1.9,0.9-2c0.1-1.1-1.2-0.3-1.3-1.3c0-0.3-1.3-0.4-1.5-0.5
	c-0.1,0-0.4-0.9-0.6-1.1c-0.5-0.4-1.5-0.4-2.1-1c-0.5-0.5-0.7-1.5-1.1-2.3c-0.3,0-0.6,0.2-0.8,0.5c-0.6-1-1.3-2.2-1.3-2.5
	s0.2-1-0.2-1.1c-0.7-0.1-2.8,0.3-3.2,0c-0.3-0.3,0.2-3.4,0-4.1c-0.3-0.8-0.2-4.2-0.7-4.3c-0.6,0-1.8,0.3-1.8-0.4
	c0-2.9,4.5-2.5-0.2-2.7c-2.4-0.1-1.5-3.1,0-4.1c1-0.6,1.9-2.6,2.5-3.9c0.6,0.6,1,1.8,2.3,1.8c1.6,0,3.5,0.4,3.9-1.1
	c0.4-1.3-1.5-2,0.9-2c0.5,0,0.4,0.4,0.4,0.5c-0.4,1.3,0.9,0.9,1.8,0.9c0.3,0,1.1-1,1.2,0c0.1,0.4,1.2,0.2,1.2-0.4
	c0.2-1.8,0.2-1.6,2.1-1.6l-0.5-7.1c0.2-0.1,1.7-0.7,1.6-0.2c-0.2,0.9-0.2,0.8,1.1,0.9c1.4,0.1,0.3-1.8,2.5-0.9
	c0.8,0.3,1.3,0.3,0.9,0.9c-0.5,0.7,0.4,0.9,0.9,0.9c0.9,0,0.8,0,1.4-0.5c0.9-0.7,1.3-1.2,1.8-2.1c0.1-0.3,2.2-0.5,2.5-0.5
	c-0.1-0.4-0.1,0-0.4-0.2v-0.5c0-0.1-0.1-0.1-0.2-0.2c-0.1-0.1,0-0.2,0-0.4c-0.1-0.2-0.3-0.3-0.4-0.4c-0.3-0.3,0.1-0.3-0.5-0.4
	c-0.8-0.1-0.5,0.1-1.4-0.4l-1.1,0.9l-1.2-6l2.2-3.7h2.2l4.6,5.3c0.6-1.2,1.6-0.9,2.4-1.8c0.2-0.2,1.5-0.5,1.6-0.8
	c0.1-0.6,0.5-1,0.5-1.6c0-2.7,3.8,0.5,3.8-1.9c0-1,0.4-1.5,1.1-2.2c0.5-0.5,2.5,0.1,1.6,0.1c0.3,1,0.3,1.8,0.3,2.8
	c0,0.7-0.1,0.7,0.5,0.8c0.8,0.1,0.5,3.1,0.1,3.7c-0.4,0.7-0.4,1.1-0.4,2c0,1.8,1.6,2.2,2.6,3.7l0.3,2.5c-0.4,0-0.9,1.7-1.6,1.7
	c-1.1,0.1-3-0.1-3.4,0.9c-0.3,0.9-0.9,0.6-1.6,0.4c-0.9-0.3-1.2-0.6-2.7-0.7c-1.8-0.1-1.6-0.5-1.6,1.2c0,0.6-0.3,1.1-0.2,1.8
	c0,0.4,2,1,2,1.2l-0.2,0.9c-0.3,1-1.2,0.3-1.2,1.8c0,1.1-1.4,1.8-2.3,1.4c-2.6-1.2-1.1,5-1.1,5.9c0,2.1-1.1,1.2-1.8,2.8
	c-0.4,0.9-1.9,0.2-2,0.7c-0.1,0.9-1.6,1-2.5,1.2c-1.3,0.4,0.1-0.2-0.7,0.9c-0.6,0.8-2.5,0.3-3.2,0l-0.5,8.7c-0.7,0-1.2-0.2-2-0.2
	c-1.1,0-0.2,0.7-0.2,0.9c0,0.4-0.9,0.1-1.1,0c-0.6-0.2,0.1,0.6,0,0.9s-0.4,1.7-0.5,1.8c-0.9,0.9,0.7,0.4,0.7,1.8
	c0,0.4,0.1,1.6-0.4,1.6c-1.3,0.1-0.7,0.1-1.4,0.7c-0.9,0.7-0.6-0.5-1.2,0.2c-0.3,0.3-0.4,0.2-0.7,0.5
	C549.3,462.1,550.1,462.2,548.3,462.2L548.3,462.2z"/>
<path id="ZAC" class="st0" d="M505.4,402.1l-7.8-7H494l-0.7-0.5c-0.1-1.5,0.4-1.7-1.2-2c-0.4-0.1-0.8,1.9-1.6,0.4
	c-0.1-0.2,0-0.5,0-0.8c-0.1-0.7-0.8-0.2-1.2-1.2c-0.3-0.9,1.4-3.6,0.4-3.6h-0.4c-1,0-1.3-1.5-2-1.6c-2.4-0.4-1.8-1-3.2-2.4
	c-0.9-0.9-2.4-1-2.8-2.4c-1.4,0.5-3.6,0.3-3.6,1.6c0,2.8,0.5,3.2-2.4,3.2c-6.6,0-5.2,0-5.2,4.8c0,0.9-0.7,1-1.6,1.6
	c-0.5,0.4-1.6,2.9-1.6,4c0,1.6-1,1-1.2,2.4c-0.6,4.4-0.1,5.5,3.1,6.3c-0.1,0.3-2,0-2.3,0c0.2,0.6,0.2,1.6,0.2,2.1s-0.3,0.8-0.3,1.4
	c0,1.2,1.1,1.2,1.6,1.9c0.3,0.4,0.6,1.1,1.3,0.8c0.4-0.2,0.5,0,1,0.4l0.1,5.8c-1.7,0-2.2,0.6-3.5,0.6c-0.3,0-1.2,1.4-1.6,1.6
	c-1,0.6-1.8-0.8-2,1.1c-0.1,0.6,0,2.2-1,1.5c-0.4-0.3,0.6-1-0.6-1c-1.4,0-2.6,0-4-0.3l0.3,6.3l-5,0.6c-0.4,0.1,0,0.2-0.6,0.4
	c-0.4,0.1-0.8,0.1-1.1,0.3c-0.2,0.1-1.1,0.4-1.1,0.5c-0.2,0.4-0.1,0.3-0.8,0.3c-0.4,0-0.6,0.1-0.8-0.3c-0.3-0.6-0.6-0.5-0.9-0.9
	c-0.2-0.2-0.3-0.9-0.4-1.1c-0.3-0.7-0.4-1.1-0.8-1.9c0-0.8-2-1-2.8-0.9c-0.6,0.1-0.1,1-1.1,1.3c-0.2,0.1-1,0.6-1.1,0.1
	c-0.2-0.7-0.1-1.4-0.1-2.1c0-1.7,0.1-1.6-1.4-1c-1.8,0.7,0.1-1.8-0.9-2.4c-0.3-0.2-0.7-0.8-0.9-1.1c-0.2-0.6-0.2-0.8-0.9-0.9
	c-0.6-0.1-0.5,0-0.5-0.9c0-1.2-0.2-2.1,1.1-2.1c1.4,0-0.2,1,1.6,1c0.9,0,1,0.2,1.5-0.4c0.9-0.9,1.4,0.7,1.4-1.5
	c0-0.8-1.5,0.1-2.1-0.1c-0.3-0.1-1.3-1.2-1.9-0.5c-0.1,0.2-0.4,0.6-0.5,0.8c-0.1,0.1-0.5,0-0.5-0.1c0-0.4,1-0.3,0.5-1
	c-0.6-0.9,0.3-1.6,0.9-1.6c0.5-0.1,0.5-1.1,0.6-1.5c1.2-0.4,2-0.6,3.3-0.6c0.4,0,0.8-0.9,1-1.4c0.2-0.3-0.2-1.2,0-1.5
	c0.1-0.1,1-1.7,0.6-1.9c-0.9-0.5-2.4-0.5-1.5-1.8c-0.5,0-0.4-0.6,0.5-0.6c0.7,0,1.3-0.1,1.8-0.3c0.8-0.3,0.4-2,1.9-2.3
	c1-0.1,1.4-0.6,1.6-1.3c0.3-1,1.4-0.3,1.9-1c0.4-0.5,0.2-0.6,1-0.9s0.5,0.2,1.3,0.3c1.2-0.3,2.9-0.3,3.8-1.3v-1.1
	c0-1.4,0-0.8-1.1-1.4c-0.4-0.2,0.2-0.9,0-1.3c-0.3-0.6-0.2-1.3,0.3-1.8c0.4-0.4,0.5-1.5,0.5-2.1c0-1.2-0.4-1.5-0.4-2.6
	c0-0.8-0.6-0.9-1.3-1.3c-0.9-0.6-0.6-0.4-0.9-1.1c-0.1-0.4-0.3-0.1-0.6-0.4c-0.9-0.6,0-0.5-1.4-0.5c-0.4,0.5-1.4,1-1.8,1.5
	c-0.2,0.3-0.8,0.7-0.8,0.8c-0.1,1.2-0.6,1.9-0.1,2.9c0.2,0.5,0.6,0.4,0.8,0.9c0.1,0.3-1.1,1.2-1.4,1.4c-0.2,0.1-1.1-0.1-1.3,0
	c-0.3,0.3,0,1.3-0.1,1.6c-0.3,0.9-0.3-0.7-0.6,1.1l-8-0.1c-0.7-2.2,0.9-0.4,1.3-2c0.4-1.5,0.5-2.7,1.4-3.6c0,0,0.3-1,0.6-1.1
	c0.6-0.3,0.4-1.9,0.6-2.5c0.3-0.6,0.7-0.3,0.9-1c0.4-1.3-0.5-0.2-0.5-1.4c0-1.2-1,0.2-1-1c0-1.8,0-1.8-1.5-1.8h-3.8l-3.4,13.5
	l-1.3-11.5c0-0.5,0.3-0.5,0.3-1.1c0-0.3-0.1-1.8,0.1-1.9c0.6-0.2,3.5,0,3.6-0.1c0.8-0.8-0.6-1.4,1-2c0.4-0.1,0.4-0.3-0.1-0.3
	c-1,0-0.6-1.6-0.6-2.4l-6-0.5c-1.1-0.3-2.5,1.4-1.6,2.3c0.7,0.7,1.2,1.3,1.1,2.4c0,0.3-0.2,0.2-0.3,0.5c-0.1,0.5-0.2,0-0.3,0.4
	c-0.1,0.3,0.5,0.5,0.8,0.6c0.3,0.3,0.2,3.1,0.1,3.6c-0.1,0.7-1.5,0.4-1.5,1.3c0,1.1-0.2,1-1.1,1.4c-1.5,0.7-0.8-0.5-1.1-1.3
	c-0.5-1.2-0.8-0.8-0.5-2.1c0-0.4-0.3-0.4-0.6-0.8c-0.1-0.1-0.1-0.9-0.1-1c0-0.8-0.8-0.8-1.5-0.6c-0.8,0.2-0.9,1.5-0.9,2.5
	c0,1.6-1,0.6-1.6,1.4c-0.1,0.2-0.1,0.6-0.3,0.6c-0.1,0-0.5,0-0.8,0V382c0-1.1,0-2.1,0-3.2v-2.2c0-0.6,0.7-0.5,1.1-0.8
	c1.1-0.8-0.4-4.4,0.7-5.2c0.8-0.6,1-0.5,1.8-0.8c1-0.4,1.8,0.3,2.6-0.7c0-0.3-0.1-2.8,0-2.9c0.7-0.8-1.5-0.1-1.5-1.5
	c0-0.7,0.1-1.2,0.1-2c0-0.9-1.1-1.3-1.1-1.5c0-2.7-0.8-4,2.5-4c0-1.4-0.5-2.2,0.5-3.1c0.9-0.8-0.4-4.3,1.1-4.9
	c0.5-0.2,1-1.2,1.4-1.6c1.2-1.5,3.1-0.6,4.1-3.3c0.4-1.1,2.7-1.5,2.7-2.7s-0.6-1.9-0.6-2.9c0-0.7,0.1-1.5,0.1-2.1
	c0-1.4-0.9-2.1-0.9-3.6c0-1,0.4-2.1,0.4-3.2c1.3-0.3,2.5-0.5,2.8-1.9c0.4-1.4,0.1-1.4,1.9-1.4c0.8,0,3.3-0.2,3.3-1.2
	c0-2.1,0.1-1.7,0.8-2.9c0.3-0.5,0.3-1,0.7-1.4c0.1-0.1,2.1-0.6,2.5-0.7c2.7-0.7,0.6-4.6,2.6-5.3c1,0.8,2.6,0.8,3.6,1.5
	c0.7,0.5,1.9,1,2.6,1.2c0.6,0.1,0.8-0.1,1.3-0.2c1.3-0.5,1.3-0.5,1.4-2c0.1-1.7,5.9,0.6,6.9,1.2c1.8,1.5,0.4,2,2.9,2
	c1.4,0,1.2,0,2.2,0.8c2,1.7,1-0.9,1.5-1.8c0.6-1.1,3.6-0.5,4.8-1.2c0.8-0.9,0.1-2.9,0.1-4.1c0-1.1-1.7-3.6-2.6-3.6
	c-1,0,0.6-1.2,0.6-2.4c0-1.3-0.7-6.1-1.2-6.1c-2.1-0.2-2.9-2.2-3.5-3.8l1.2-1.4l6.6,2.5l-0.2-3.6l6.8-0.5l10.5,3.2l3.9,5.2l1.6-0.9
	h2.7l0.2,4.3l5.9-1.1c0,1.6,1.3,2.1,2.3,1.1c0.6-0.6,1.7-0.5,3-0.5c3.4,0.1,0.4,1.2,1.4,3.2c0.2,0.3,1.6,1.1,1.8,1.1
	c1,0,1.8,3.8,4.3,2.3c0.7-0.5,3.4,0.6,5,1.1l-8.1,13.7h-1.6c-0.8,0-0.8-0.5-2-0.4c-1,0.1-0.1,0.3-0.4,0.8c-0.4,0.6-0.8,0.2-0.4,0.8
	c0.1,0.2,0.4,0.1,0.4,0.4c0,0.4,0,0.8,0,1.2c0,0.9-0.3,1.8,0.4,2l-17.4,16.5c-2.4-2-1.9-2-2-2c-2.8-0.7-0.4,0.3-1.2,0.8
	c-0.7,0.5-2.3-0.5-2.4,1.2c-0.1,1.2-0.8,2.2-0.8,3.4c-1.5,0-4,1.7-6,1.4c-2.4-1.7-4.9-4-4.9-1.6c0,0.6-1.1,14.2,2.1,17.4
	c1,1,2.7,1.9,4,2.8c1.5,1,1.5,4.9,4,4.9c3.3,0,4.2,0.7,6.1,1.9c2.2,1.3,1.1,1.3,3.2,1.3c1.7,0,3,0.6,3.2-1.2c0.1-0.4,0.1-1.8,0.4-2
	c2.1-1,0.2-0.3,1.2-0.8c3.1-1.7,0.2,0.8,1.2-0.8c0.1-0.2,0.2-0.2,0.4-0.4c0.1-0.1,0.6-0.4,0.8-0.4c0.7-0.2,0.8-0.4,1.6-0.4
	c3,0.2,1.8,1,2,4c0.1,1.2,0.8,2.1,0.8,4c0,1.8-2,1.6-2,4c0,3.4,1.6,5.4,0.8,8.9c-0.2,1.1-2.2,2.8-2.8,4
	C507,398.7,506.3,401,505.4,402.1L505.4,402.1z"/>
<path id="AGS" class="st0" d="M494,395.1c-0.3,0.1-0.8,3-1,3.8c-0.5,2.1-1,2.2-2.6,3.1l-7.3,4.3c-2.6,1.5,0.3,3.3-4.8,2.4
	c-0.8,0-0.9-1-1.1-1.5c-0.1-0.3-2.1-1.1-2.6-1.3c-0.7-0.2-0.4-0.5-0.8-0.9c-0.6-0.6-2.5,0.6-3-0.8c-0.1-0.3,0.2-0.7-0.3-0.8
	c-0.1,0-0.9,0.3-1.3,0.4c-1.1,0.2-0.4,0.4-0.7,1c-3.2-0.7-3.7-1.9-3.1-6.3c0.2-1.4,1.2-0.9,1.2-2.4c0-1.1,1.1-3.7,1.6-4
	c0.9-0.6,1.6-0.7,1.6-1.6c0-4.9-1.4-4.8,5.2-4.8c2.9,0,2.4-0.4,2.4-3.2c0-1.3,2.2-1.1,3.6-1.6c0.5,1.4,1.9,1.5,2.8,2.4
	c1.4,1.4,0.9,2.1,3.2,2.4c0.8,0.1,1.1,1.6,2,1.6h0.4c1,0-0.7,2.7-0.4,3.6c0.4,1,1.1,0.5,1.2,1.2c0,0.3-0.1,0.6,0,0.8
	c0.9,1.5,1.2-0.5,1.6-0.4c1.6,0.3,1.1,0.5,1.2,2L494,395.1z"/>
<path id="GTO" class="st0" d="M487.9,450.4c0-3.4,0.3-4,1.5-6.4c0.3-0.6,0.5-0.2,0.8-0.5c1.3-2,1.6-1.2,0.1-3.5
	c-0.2-0.3,0.3-1.2,0.1-1.3c-2.2-1.1-2.6,1-2.6-1.8c1.7,0,1.5-3.6,2-4.6c0.9-2,3.6-3.4,5.1-4.9c1.9-1.9,2.9-6.7,4.8-7.7
	c2.6-1.4,1.7-3.1,3-5.3c-1.7-0.4-0.4-2.6-0.4-3.8c0-1.4,0.4-2.6,0.9-3.8c0.2-0.6,0.8-0.9,0.9-1.9s0.3-2.6,1.2-3
	c3.7,1,8.6,0.4,12.9,0.9c3.5,0.4,10.1,6.1,12.4,8.7c2.2,2.6,9.9-5.5,12.1-6.2c1.7,0.4,3.2,0.4,3.4,2.3c0.3,2.7,4.3,3.4,6.2,4.2
	c0.9,0.4,1.6,0.4,2.8,0.4c1.3,0,1.7,0.4,2.8,0.4l1.1,6l1.1-0.9c0.9,0.4,0.7,0.3,1.4,0.4c0.6,0.1,0.3,0.1,0.5,0.4
	c0.1,0.1,0.3,0.1,0.4,0.4c0,0.1-0.1,0.3,0,0.4s0.2,0.1,0.2,0.2s0,0.5,0,0.5c0.2,0.2,0.2-0.2,0.4,0.2c-0.3,0.1-2.3,0.3-2.5,0.5
	c-0.5,1-0.9,1.4-1.8,2.1c-0.6,0.5-0.5,0.5-1.4,0.5c-0.5,0-1.3-0.2-0.9-0.9c0.4-0.6-0.1-0.6-0.9-0.9c-2.2-1-1.1,0.9-2.5,0.9
	c-1.2-0.1-1.3,0.1-1.1-0.9c0.1-0.5-1.4,0-1.6,0.2l0.5,7.1c-2,0-1.9-0.2-2.1,1.6c-0.1,0.6-1.2,0.8-1.2,0.4c-0.1-1-1,0-1.2,0
	c-0.9,0.1-2.2,0.4-1.8-0.9c0-0.1,0.2-0.5-0.4-0.5c-2.4,0-0.5,0.7-0.9,2c-0.4,1.5-2.3,1.1-3.9,1.1c-1.3,0-1.7-1.1-2.3-1.8
	c-0.6,1.3-1.5,3.3-2.5,3.9c-1.5,1-2.4,4,0,4.1c4.7,0.2,0.2-0.3,0.2,2.7c0,0.7,1.2,0.3,1.8,0.4c0.5,0,0.4,3.5,0.7,4.3
	c0.2,0.6-0.3,3.8,0,4.1c0.4,0.3,2.5-0.1,3.2,0c0.3,0,0.2,0.7,0.2,1.1c0,0.2,0.7,1.4,1.3,2.5c-0.3,0.3-0.4,0.8-0.4,1.3
	c0,0.8-0.7,1.6-0.7,1.9c0.1,1.1,0.3,0.7-0.7,1.3c-0.3,0.2,0.8,2.1,1.1,2.4c1.5,1.5-1.2,1-1.6,1.9c-0.3,0.8,0.4,0.6-0.6,1.3
	c-0.2,0.2-0.3,0.3-0.6,0.4c-0.6,0.1-1.4,0-2,0.3c-0.2-0.5-2.4-0.3-2.9-0.3c-0.7,0-1.5,0.5-2.2,0.6c-0.4,0.1-0.1,0.3-0.6,0.5
	c-0.7,0.2-0.4,0.5-1.3,0.5c-1.1,0-2-1-2.9-1c-1.6,0-2.2-0.1-3.1-1.2c-0.5-0.6-1.2,0.1-1.7-0.7c-0.7-1.2-0.4-1.4-0.8-2.6
	c-0.6-1.8-2.8-1.1-4.5-0.7c-0.7,0-0.4,0.4-0.8,0.8c-0.2,0.2-0.6,0.6-0.7,0.8c-0.1,0.2-0.3,0.5-0.4,0.7c-0.6,1.2-2.5,1.3-3.6,0.5
	c-0.1-0.1-1.2-0.2-1.4-0.2c-0.4-0.1-0.8-1.3-0.8-1.8c0-1.5-0.1-0.6-0.7-1.4c-0.3-0.4-0.2-0.9-0.2-1.4c0-0.7,2.5-0.4,1.2-2.4
	c-0.5-0.7-1.4-3.1-1.8-3.2c-1.9-0.5-7.3,0.9-7.5,3c-0.1,1.2-3.6,0.9-4.9,0.9c-4.9,0-1.5-4-4.8-5
	C489.2,450.4,488.7,450.6,487.9,450.4L487.9,450.4z"/>
<path id="JAL" class="st0" d="M387.5,438.9c0.3,0.7,0.2,1.7,0.2,2.9c0,1.6-0.3,2.8-1.5,3.3c-1.8,0.8-5.2-0.2-6,0.2
	c-1.4,0.7-2-0.6-3.5,0.9c-1,1-0.1,2-2,2c0.8,5.3,1.4,7.4,3.8,12.2c0.5,1,2,6.4,2.4,6.6c5.7,3.5,9.9,5.2,11.7,10.2
	c2.6,7.1,8.7,9.2,14.7,11.5c0.2-0.1,0.3-0.2,0.3-0.2c1.4,0,3.7-1.5,4.8-2.5c2.5-2.4,7.4-0.8,10.3-2.1c3.2-1.4,0.3-3.6,3.3-4.9
	c1.4-0.4,1,0.4,2,0.6c1.4,0.3,1.4-0.7,2.1,0.8c0.4,0.9,2.6,0,3.3,0.8c0.2,0.3,0,1,0.3,1.1c1.2,0.7,2.2-1.8,2.4-2.4
	c0.6-1.8,1.8-0.3,3.3-1.6c2-0.7,1.1,3.4,2.8,3.6c1,0.1,0.6,1.4,1.3,1.5c0.3,0,1.8-0.2,2,0.1c0.4,0.5-1,0.3-1.1,0.4
	c-0.8,0.1-0.9,3.5-0.6,4.1c0.2,0.4,0.9,0.2,0.5,1.3c-0.1,0.3-1.8,0.4-2.3,0.8c-0.1,0.1,1.1,2.8,1.1,4c0,1.6,1,0.3,1,1.6
	c0,0.4,0,0.4,0.1,0.9c0,0,3.5,0.7,4.4,0c0.6-0.5,1.1-1.8,2-1.3c1.5,0.9,0.8,0.4,1.6,0.1c1.4-0.5,1.4,1.1,1.4,2
	c0,2.2,1.9,1.2,2.3-0.4c0.4-1.9,0.7-1.9,2.4-2.6c1-0.4,1.1-1.3,1.3-2.4c0.2-0.7,0.4-1.2,0.8-1.8c0.4-0.5,3.1,0.2,3.6-0.3
	c0.3-0.2,0.4-0.8,0.5-1.3c1.2-0.1,0.8-0.9,2.4-0.9c1.3,0,0.1,1.1,1.3,1.3c2.9,0.3,1.3-0.5,2.1-1.3c0.6-0.6,0.6-1.5,1.1-2.6
	c0.4-0.9,0.5-1,0.9-1.4c0.6-0.7,0.5-0.8,0.8-1.6c0.2-0.7,0.3-1,0.5-1.6c0.4-0.1,0.3-1.9,0.3-2.4c0-1.2-1.7-0.6-2.6-0.8
	c-2.7-0.5-0.9,2.7-3.3,1.6c-0.5-0.2,0.1-1.5-0.5-1.6c-1.6-0.5-0.3-2.6-1.6-2.9c-1.3-0.3-1.2-0.1-1-1.4c0.2-1.1,0.3-2.6,0.1-3.9
	c-0.5-0.2,0.2-0.5,0.3-0.5c0.3-0.2,0.9-0.1,1.4-0.3c0.9-0.2,1.8,0,1.8-1.1c0-0.8-0.3-1.6-0.6-2.5c-0.7-0.2-1.8-0.4-2.8-0.4
	c-1.3,0-2-1.6-3.3-1.3c-0.5,0.1-1.8,0.2-2,0.6c-0.1,0.3,0,1.1-0.5,1.1c-1.8,0.1,0.1-1.1-2-1c-0.5,0,0,0.9-0.6-0.3l2.9-6.9
	c1-0.8,0.1-1,2.1-1c1,0,1.3-0.4,1.8-0.4c0.8,0,0.4,0.4,0.8,0.6c1.5,0.7,2.1,1.3,3.9,1.1c1-0.1,0.8-0.8,1.3-1.5
	c0.2-0.2,0.9-0.3,1-0.5c0.2-0.4,0.1-0.8,0.8-0.8h1.4c0.2-0.6,0.8-0.9,0.9-1.9c0.1-0.8,1.5-1.7,2-2c0.4-0.2,0.2,0.6,0.4,0.8
	c0.5,0.7,2.6,0.1,3,0c0.3-0.1,3.9-0.7,4-0.6c0.2,0.1-0.3,1.2,0.3,1.3c1,0.1,2.2-1,2.5-1.6c0.4-0.8,2.1,0,2.9,0.1
	c0-3.4,0.3-4,1.5-6.4c0.3-0.6,0.5-0.2,0.8-0.5c1.3-2,1.6-1.2,0.1-3.5c-0.2-0.3,0.3-1.2,0.1-1.3c-2.2-1.1-2.6,1-2.6-1.8
	c1.7,0,1.5-3.6,2-4.6c0.9-2,3.6-3.4,5.1-4.9c1.9-1.9,2.9-6.7,4.8-7.7c2.6-1.4,1.7-3.1,3-5.3c-1.7-0.4-0.4-2.6-0.4-3.8
	c0-1.4,0.4-2.6,0.9-3.8c0.2-0.6,0.8-0.9,0.9-1.9s0.3-2.6,1.3-3l-7.8-7H494c-0.3,0.1-0.8,3-1,3.8c-0.5,2.1-1,2.2-2.6,3.1l-7.3,4.3
	c-2.6,1.5,0.3,3.3-4.8,2.4c-0.8,0-0.9-1-1.1-1.5c-0.1-0.3-2.1-1.1-2.6-1.3c-0.7-0.2-0.4-0.5-0.8-0.9c-0.6-0.6-2.5,0.6-3-0.8
	c-0.1-0.3,0.2-0.7-0.3-0.8c-0.1,0-0.9,0.3-1.3,0.4c-1.1,0.2-0.4,0.4-0.6,1c-0.2,0.5-1.9,0.1-2.4,0.1c0.2,0.6,0.2,1.6,0.3,2.1
	c0,0.5-0.3,0.8-0.3,1.4c0,1.2,1.1,1.2,1.6,1.9c0.3,0.4,0.6,1.1,1.3,0.8c0.4-0.2,0.5,0,1,0.4l0.1,5.8c-1.7,0-2.2,0.6-3.5,0.6
	c-0.3,0-1.2,1.4-1.6,1.6c-1,0.6-1.8-0.8-2,1.1c-0.1,0.6,0,2.2-1,1.5c-0.4-0.3,0.6-1-0.6-1c-1.4,0-2.6,0-4-0.3l0.3,6.3l-5,0.6
	c-0.4,0.1,0,0.2-0.6,0.4c-0.4,0.1-0.8,0.1-1.1,0.3c-0.2,0.1-1.1,0.4-1.1,0.5c-0.2,0.4-0.1,0.3-0.8,0.3c-0.4,0-0.6,0.1-0.8-0.3
	c-0.3-0.6-0.6-0.5-0.9-0.9c-0.2-0.2-0.3-0.9-0.4-1.1c-0.3-0.7-0.4-1.1-0.8-1.9c0-0.8-2-1-2.8-0.9c-0.6,0.1-0.1,1-1.1,1.3
	c-0.2,0.1-1,0.6-1.1,0.1c-0.2-0.7-0.1-1.4-0.1-2.1c0-1.7,0.1-1.6-1.4-1c-1.8,0.7,0.1-1.8-0.9-2.4c-0.3-0.2-0.7-0.8-0.9-1.1
	c-0.2-0.6-0.2-0.8-0.9-0.9c-0.6-0.1-0.5,0-0.5-0.9c0-1.2-0.2-2.1,1.1-2.1c1.4,0-0.2,1,1.6,1c0.9,0,1,0.2,1.5-0.4
	c0.9-0.9,1.4,0.7,1.4-1.5c0-0.8-1.5,0.1-2.1-0.1c-0.3-0.1-1.3-1.2-1.9-0.5c-0.1,0.2-0.4,0.6-0.5,0.8c-0.1,0.1-0.5,0-0.5-0.1
	c0-0.4,1-0.3,0.5-1c-0.6-0.9,0.3-1.6,0.9-1.6c0.5-0.1,0.5-1.1,0.6-1.5c1.2-0.4,2-0.6,3.3-0.6c0.4,0,0.8-0.9,1-1.4
	c0.2-0.3-0.2-1.2,0-1.5c0.1-0.1,1-1.7,0.6-1.9c-0.9-0.5-2.4-0.5-1.5-1.8c-0.5,0-0.4-0.6,0.5-0.6c0.7,0,1.3-0.1,1.8-0.3
	c0.8-0.3,0.4-2,1.9-2.3c1-0.1,1.4-0.6,1.6-1.3c0.3-1,1.4-0.3,1.9-1c0.4-0.5,0.2-0.6,1-0.9s0.5,0.2,1.3,0.3c1.2-0.3,2.9-0.3,3.8-1.3
	v-1.1c0-1.4,0-0.8-1.1-1.4c-0.4-0.2,0.2-0.9,0-1.3c-0.3-0.6-0.2-1.3,0.3-1.8c0.4-0.4,0.5-1.5,0.5-2.1c0-1.2-0.4-1.5-0.4-2.6
	c0-0.8-0.6-0.9-1.3-1.3c-0.9-0.6-0.6-0.4-0.9-1.1c-0.1-0.4-0.3-0.1-0.6-0.4c-0.9-0.6,0-0.5-1.4-0.5c-0.4,0.5-1.4,1-1.8,1.5
	c-0.2,0.3-0.8,0.7-0.8,0.8c-0.1,1.2-0.6,1.9-0.1,2.9c0.2,0.5,0.6,0.4,0.8,0.9c0.1,0.3-1.1,1.2-1.4,1.4c-0.2,0.1-1.1-0.1-1.3,0
	c-0.3,0.3,0,1.3-0.1,1.6c-0.3,0.9-0.3-0.7-0.6,1.1l-8-0.1c-0.7-2.2,0.9-0.4,1.3-2c0.4-1.5,0.5-2.7,1.4-3.6c0,0,0.3-1,0.6-1.1
	c0.6-0.3,0.4-1.9,0.6-2.5c0.3-0.6,0.7-0.3,0.9-1c0.4-1.3-0.5-0.2-0.5-1.4c0-1.2-1,0.2-1-1c0-1.8,0-1.8-1.5-1.8h-3.8l-3.4,13.5
	l-1.3-11.5c0-0.5,0.3-0.5,0.3-1.1c0-0.3-0.1-1.8,0.1-1.9c0.6-0.2,3.5,0,3.6-0.1c0.8-0.8-0.6-1.4,1-2c0.4-0.1,0.4-0.3-0.1-0.3
	c-1,0-0.6-1.6-0.6-2.4l-6-0.5c-1.1-0.3-2.5,1.4-1.6,2.3c0.7,0.7,1.2,1.3,1.1,2.4c0,0.3-0.2,0.2-0.3,0.5c-0.1,0.5-0.2,0-0.3,0.4
	c-0.1,0.3,0.5,0.5,0.8,0.6c0.3,0.3,0.2,3.1,0.1,3.6c-0.1,0.7-1.5,0.4-1.5,1.3c0,1.1-0.2,1-1.1,1.4c-1.5,0.7-0.8-0.5-1.1-1.3
	c-0.5-1.2-0.8-0.8-0.5-2.1c0-0.4-0.3-0.4-0.6-0.8c-0.1-0.1-0.1-0.9-0.1-1c0-0.8-0.8-0.8-1.5-0.6c-0.8,0.2-0.9,1.5-0.9,2.5
	c0,1.6-1,0.6-1.6,1.4c-0.1,0.2-0.1,0.6-0.3,0.6c-0.1,0-0.5,0-0.9,0c0,0.8-0.2,2.2-0.3,2.8c0,0.1-0.8,0.2-0.8,0.6
	c-0.2,1.2,0.1,1.3-0.6,2.2c-0.3,0.4-0.2,1.1-0.2,1.6c0,1-1.2,0.3-1.2,1.8c0,1.3,0.1,3-0.2,4c2,0.9,2.3-0.3,4-0.2
	c0.1,0,1.5,0.3,2,0.4c1,0.2,1.7,2.5,0.8,3.2c-1,0.8-0.5,4.4,1.8,3.2c0.7-0.4,1.7-0.2,2.6,0.4c0.8,0.6,0.2,1.4,1.8,1.4
	c0.4,1.8-0.1,1,1,1.8c0.9,0.6-0.5,5.3,0.2,6c0,0,0.5,0,0.6,0c0.2,0,0.2,0.2,0.4,0.2c4.4,0.8,1.6,2.5,1.6,5.4c0,1.8,0,2.8-1.2,3.8
	c-1.2,0.9-1.9-1.5-3.2-0.8c-0.1,0-0.2,0.4-0.2,0.6c0,1.3-0.8,1-1,2.2c-0.7-0.2-1-0.2-1.6-0.2c-0.3,0-0.7,0-1,0
	c-0.7-0.1-0.1,0.1-0.6-0.4c-0.1-0.1-0.2-0.2-0.4-0.2c-0.6-0.1-0.2,0.2-0.6,0.2c-0.7,0.1-1.5,0-2.2,0v8l-3.4,3.4l2.4,3l0.4,5.6
	c-0.6-1-0.4-1.3-0.6-2.4c-0.3-1.3-1.9-0.6-2.6-1.8c-0.3-0.5-0.7-1.9-1.2-2.6c-0.8-1.1-5.9-2.3-6-3.6c-0.2-1.7-1.2-1.6-2.8-1.6
	c-0.4,0-0.7-1.4-0.8-1.8c-1.8-0.8-6.5-1.7-7,0.8c-0.5,2.6-2.9,0.5-4.2,1.6c-1.1,0.9-2.1,0.8-2.8,2c-0.8,1.3-3.4,1.4-3.8,3
	C388,437.5,388,438.2,387.5,438.9L387.5,438.9z"/>
<path id="MIC" class="st0" d="M444.9,496.6c0,0.2,0,0.4-0.1,0.6c-0.4,0.7-0.8,0.6-1.2,1.6c-0.3,0.8-1.3,0.2-1.8,0.6
	c-1.9,1.5-6,1.3-6.2,4.4c-0.1,1.4-0.4,0.2-1,1.2c-0.1,0.2-0.2,0.4-0.3,0.7c3.9,2.5,3.7,9.5,8,11.9c7.1,4,16,6.3,25,8.8
	c4.5,1.3,12.7,6.5,16.1,6.8c0.8,0.1,1.8-0.8,3.4-1.6c-0.1-0.1-0.2-0.2-0.3-0.3c-1.1-0.8-0.8-0.6-1.7-1.8c-0.8-1.1-0.3-3.3,0.1-4.6
	c0.5-1.5,2-1.1,3.4-1.1c0.6,0,2.3-2.2,3.3-2.4c0.6-0.1,4.3,0.4,4.3-0.9c0-0.5-0.8-1.2-1.2-1.5c-0.5-0.4-0.5-1.5-0.5-2.3
	c0-1.4-0.4-3-0.4-4.2c0-0.6,0.4-0.8,0.6-1.3c0.2-0.7,0.1-1.6,0-2.4c-0.1,0,1.5,0.3,2.1,0.3c0.7,0,1.4,0,2.2,0c0.6,0,1.4-0.9,1.7-0.7
	c0.9,0.5,1.8,1.1,3,1.4c0,1,1.4,2.5,2.4,2.5s4.2,0,4.6-0.8c0.6-1.2,9-1.1,10.5-1c0.2,0.4,1.5,2.9,1.6,2.9c0.7,0.4,2.3-0.3,3.1-0.4
	c0.3,0,0.7-0.7,1.4-0.7c2,0,1.8,0,2.3,1.5c0.7,1.7,2.4,1.7,4,2.8c0.8,0,0.7-3.8,0.5-3.9c-1-0.8-1.1-0.4-2.4-1.2
	c-1.7-1.1-1.9-1-1.9-2.9c0-1.3-0.8-1.1-1.1-2.2c-0.1-0.4,0.7-2,0.3-2.3c-1.6-0.5-2.3-3.6,0.1-3.4c0.6,0,2.1,1,2.6,0.4
	c0.6-0.9-0.3-1.1,1.2-1.1c1.2,0,0-1.3,1.6-1.5l6.6-7.8c3.5-1.2,2-3.7,2-6.5c0-0.7,2.8-3.7,3.9-3.8c2.1-0.2,1.1-3.7,0.7-3.6
	c-1.8,0.4-0.7,0.2-1.3-1.3c-0.5-1.2-2.5-0.5-1.5-2.5c0.6-1.2,0.1-1.4,2-1.4s2-0.9,2-2.6s2.1-1.2,2.1-3.3c-0.3-1.1-2-1.2-2.2-2.3
	c0-0.3-0.4-2.4-0.2-2.6c0.1-0.1,0.9-1.9,0.9-2c0.1-1.1-1.2-0.3-1.3-1.3c0-0.3-1.3-0.4-1.5-0.5c-0.1,0-0.4-0.9-0.6-1.1
	c-0.5-0.4-1.5-0.4-2.1-1c-0.5-0.5-0.7-1.5-1.1-2.3c-0.8,0.1-1.2,1-1.2,1.9c0,0.8-0.7,1.6-0.7,1.9c0.1,1.1,0.3,0.7-0.7,1.3
	c-0.3,0.2,0.8,2.1,1.1,2.4c1.5,1.5-1.2,1-1.6,1.9c-0.3,0.8,0.4,0.6-0.6,1.3c-0.2,0.2-0.3,0.3-0.6,0.4c-0.6,0.1-1.4,0-2,0.3
	c-0.2-0.5-2.4-0.3-2.9-0.3c-0.7,0-1.5,0.5-2.2,0.6c-0.4,0.1-0.1,0.3-0.6,0.5c-0.7,0.2-0.4,0.5-1.3,0.5c-1.1,0-2-1-2.9-1
	c-1.6,0-2.2-0.1-3.1-1.2c-0.5-0.6-1.2,0.1-1.7-0.7c-0.7-1.2-0.4-1.4-0.8-2.6c-0.6-1.8-2.8-1.1-4.5-0.7c-0.7,0-0.4,0.4-0.8,0.8
	c-0.2,0.2-0.6,0.6-0.7,0.8c-0.1,0.2-0.3,0.5-0.4,0.7c-0.6,1.2-2.5,1.3-3.6,0.5c-0.1-0.1-1.2-0.2-1.4-0.2c-0.4-0.1-0.8-1.3-0.8-1.8
	c0-1.5-0.1-0.6-0.7-1.4c-0.3-0.4-0.2-0.9-0.2-1.4c0-0.7,2.5-0.4,1.2-2.4c-0.5-0.7-1.4-3.1-1.8-3.2c-1.9-0.5-7.3,0.9-7.5,3
	c-0.1,1.2-3.6,0.9-4.9,0.9c-4.9,0-1.5-4-4.8-5c-1.1-0.3-1.6-0.2-2.3-0.3c-0.8-0.1-2.5-0.9-2.9-0.1c-0.3,0.6-1.5,1.7-2.5,1.6
	c-0.5,0-0.1-1.2-0.3-1.3c-0.1,0-3.7,0.6-4,0.6c-0.5,0.1-2.5,0.7-3,0c-0.1-0.2,0-1-0.4-0.8c-0.5,0.3-2,1.2-2,2
	c-0.1,1-0.7,1.3-0.9,1.9h-1.4c-0.7,0-0.6,0.3-0.8,0.8c-0.1,0.2-0.8,0.3-1,0.5c-0.5,0.7-0.3,1.4-1.3,1.5c-1.8,0.1-2.4-0.4-3.9-1.1
	c-0.4-0.2,0.1-0.6-0.8-0.6c-0.4,0-0.8,0.4-1.8,0.4c-2,0-1.1,0.2-2.1,1l-2.9,6.9c0.7,1.1,0.1,0.3,0.6,0.3c2.1-0.1,0.2,1.1,2,1
	c0.5,0,0.4-0.9,0.5-1.1c0.2-0.4,1.5-0.5,2-0.6c1.3-0.3,1.9,1.3,3.3,1.3c1,0,2,0.1,2.8,0.4c0.4,0.9,0.6,1.7,0.6,2.5
	c0,1.1-0.8,0.9-1.8,1.1c-0.5,0.1-1.1,0.1-1.4,0.3c0,0-0.8,0.3-0.3,0.5c0.2,1.3,0,2.8-0.1,3.9c-0.2,1.3-0.3,1.1,1,1.4s0,2.4,1.6,2.9
	c0.6,0.2,0,1.4,0.5,1.6c2.4,1.1,0.6-2.2,3.3-1.6c0.9,0.2,2.6-0.4,2.6,0.8c0,0.4,0.1,2.3-0.3,2.4c-0.2,0.7-0.3,0.9-0.5,1.6
	c-0.2,0.8-0.2,1-0.8,1.6c-0.4,0.4-0.5,0.5-0.9,1.4c-0.5,1.2-0.5,2-1.1,2.6c-0.8,0.8,0.8,1.6-2.1,1.3c-1.1-0.1,0.1-1.3-1.3-1.3
	c-1.5,0-1.1,0.8-2.4,0.9c-0.1,0.5-0.2,1-0.5,1.3c-0.6,0.4-3.3-0.2-3.6,0.3c-0.4,0.5-0.6,1.1-0.8,1.8c-0.1,1.1-0.3,2-1.3,2.4
	c-1.7,0.7-2,0.7-2.4,2.6c-0.3,1.5-2.3,2.6-2.3,0.4c0-0.9,0-2.5-1.4-2c-0.8,0.3-0.1,0.8-1.6-0.1c-0.9-0.6-1.4,0.8-2,1.3
	C447.8,496.9,446,496.7,444.9,496.6L444.9,496.6z"/>
<path id="COL" class="st0" d="M213,478.7c-0.7,0.3-1.4,0.7-2.1,0.8c-0.4,0.1-0.9,0.2-1.3,0c-0.5-0.3-0.1-0.6,0.4-1.3
	c0.1-0.1,0.3-1.1,0.4-1.3c0.1-0.2,1.1-1.2,1.3-1.3c0.3-0.1,0.6,0,0.9,0c0.7,0.1,0.4,0.1,0.4,0.8C213,477.7,213.1,478.5,213,478.7
	L213,478.7z M208.7,497c-0.7,0.2-1.4,0.4-2.1,0.4c-1.2,0.1-1.3,0.2-1.3-0.8c0-0.8,0.4-1.7-0.4-1.7h-1.3v-0.4h-0.4V494v-0.4h0.4v-0.4
	h0.4h0.4v-0.4h0.4c0.4,0,0.6-0.5,0.9-0.8c0.5-0.7,0.6-0.4,1.7-0.4c0.7,0,0.8-0.3,0.9,0.4c0.1,0.8-0.7,3,0,3h0.4v0.4
	C208.7,496.1,208.9,495.8,208.7,497L208.7,497z M173.4,488.5c-1.5-1.3-1.9-0.9-1.7-2.5c0.1-0.6-0.3-0.4,0.4-0.8
	c0.2-0.1,0.6-0.2,0.9,0l0.4,0.4h0.4c0.3,0,0,0.6,0,0.8C173.9,487.2,173.9,486.9,173.4,488.5L173.4,488.5z M88,500.4
	c1.7-1.4,1.8-0.7,1.7-2.1c0-0.6,0-3.4-0.9-2.5l-0.4,0.4c-0.2,0.2-0.3,0.5-0.4,0.8c-0.2,0.8-0.5,0.3-1.3,0.4c-0.2,0-0.8,0.3-0.9,0.4
	l-0.4,0.8l0,0v0.4h0.4l0.4,0.4C87,500.2,86.8,499.9,88,500.4L88,500.4z M407.3,488.6c0.2-0.1,0.3-0.2,0.3-0.2c1.4,0,3.7-1.5,4.8-2.5
	c2.5-2.4,7.4-0.8,10.3-2.1c3.2-1.4,0.3-3.6,3.3-4.9c1.4-0.4,1,0.4,2,0.6c1.4,0.3,1.4-0.7,2.1,0.8c0.4,0.9,2.6,0,3.3,0.8
	c0.2,0.3,0,1,0.3,1.1c1.2,0.7,2.2-1.8,2.4-2.4c0.6-1.8,1.8-0.3,3.3-1.6c2-0.7,1.1,3.4,2.8,3.6c1,0.1,0.6,1.4,1.3,1.5
	c0.3,0,1.8-0.2,2,0.1c0.4,0.5-1,0.3-1.1,0.4c-0.8,0.1-0.9,3.5-0.6,4.1c0.2,0.4,0.9,0.2,0.5,1.3c-0.1,0.3-1.8,0.4-2.3,0.8
	c-0.1,0.1,1.1,2.8,1.1,4c0,1.6,1,0.3,1,1.6c0,0.4,0,0.4,0.1,0.9c0,0,0.4,0.1,0.9,0.1c0,0.2,0,0.4-0.1,0.6c-0.4,0.7-0.8,0.6-1.2,1.6
	c-0.3,0.8-1.3,0.2-1.8,0.6c-1.9,1.5-6,1.3-6.2,4.4c-0.1,1.4-0.4,0.2-1,1.2c-0.1,0.2-0.2,0.4-0.3,0.7c-0.5-0.3-1-0.5-1.5-0.7
	c-4.3-1.2-1.8-3.5-4.2-5.3c-1.9-1.4-9.3-1.4-9.5-3.5C416.2,492.1,411.7,490.3,407.3,488.6L407.3,488.6z"/>
<path id="ROO" class="st0" d="M892.2,518.5c0.3,0,4.4-0.3,4.8-0.3l-0.7-5.7c0,0,2.1-1.2,2.6-1.3c1.4-0.5,3.2-0.2,4.7-0.2
	c3.1,0,1.9-1.5,3.8-2c2.8-0.7,3.8-7.9,3.7-10.8c-0.1-1.5,2-1.1,2.7-2.5c1.9-3.6,3-2.8,6-2.8c0.5-1.5,3.9-2.8,3.9-3.4
	c0-2,2.2,0.3,0.7-3.4c-0.8-2.1,2.6-1.3,2.5-3.2c0,0-1.6-3.2-0.5-3.2c2,0,4.9,4.5,3,6.4c-1.3,1.3-2.2,3.2-1.2,5.4
	c1.6,3.9,8,3.3,6.2,9.2l0.5,0.2c3.5,0.4,1.1-3.4,2-6.6c0.8-2.9,0.7-6.4,1.4-9.4c0.3-1.4-0.7-4.5,0.8-5c1.7-0.7,3.7-12.7,3.7-15.4
	c0-2.5-1.1-1.3-2.1-0.3c-0.8,0.8-2.6,1.6-1.2,1.1c3.7-1.4-5.1-1.3-1.1-2.3c1-0.2,0.3-2.4,1.8-3.3c1.4-0.8,4.9-1.6,5.8-3
	c0.5-0.8-0.6-1.8-0.3-2.9c0.5-2.3-4.3,0.1-4.4,0.2c-1.9,1.1-0.7,0.3-1.4,2.4c-0.4,1.2-3.1-0.3-1.2-1.5c1.2-0.8-0.8-1.2-1.7-1.2
	s0.5-4.2,1.4-4.9c0.9-0.7,2.9-0.2,2.9-1.5c0-2,2.1-1.8,2.1-4.7c0-2.1-1.5-2.9-1.5-5.3c0-9.5,6-9.4,9.3-17.5c1.2-2.9,6.1-5,6.2-8.5
	c0.2-5,3.6-10.7,1.1-14.7c-0.6-1-2.4-3.4-3.6-5.7c-0.9-1.8-5.3-4.9-5.9-4.9c-1.2,3.8-5.9,4.9-12,5.1l-0.3,8.2h-2.4L934,405l7.2-0.6
	h2.1v3H937l-3,8.4h2.7l-0.3,6.3l-4.2,0.6v4.5h1.8v1.8l-5.1-0.6V426l-1.8,0.3l-3.6,3.3l0.6,2.7l-8.1,0.3v2.1h-6.3v3.3h-4.2l0.6,3.6
	l-18.3,19.7l4.5,4.9L892.2,518.5z M961.6,417.7c-0.1,1.1-1.2,0.9-2.1,1c-1.2,0.1-1.6,1-2.8,1c-0.7,0-2,0.2-3,0.2
	c-0.1,0-0.1,1.9-0.3,2.3c-0.4,0.6-0.4,2.1-0.3,3c0.1,1.5,2,2.6,2.1,3.3c0.2,2.3,1.8,0.7,2.2-0.1c0.6-1.1,0.3-2.7,1-3.4
	c1-1,0.4-1.3,1.9-2.1c0.7-0.4,0.7-1.9,0.9-2.5C961.4,419.6,962.9,419.3,961.6,417.7L961.6,417.7z M960.4,395.2l-0.6-0.2
	c-0.8-0.3-0.3,0.1-0.4-0.6c0-0.1-0.1-0.2-0.2-0.3c-0.1-0.3-0.2-0.3-0.3-0.7c0-0.1,0.1-0.3,0-0.4c-0.3-0.3-0.3,0.2-0.4-0.2
	c-0.2-0.6-0.8,0-0.7,0.6c0,0.1,0.3,0.4,0.3,0.4c0.3,0.2,0.3,0.7,0.3,1c0,0,0.3,0.5,0.3,0.6c0.4,0,0.7,0.1,1.1,0.1
	C960.2,395.5,960.4,395.5,960.4,395.2L960.4,395.2z M957.6,388.7l0.7,0.3c0,0.2,0,1-0.2,1c-0.1,0-0.3,0-0.4,0
	c-0.7,0-0.8,0.4-0.8-0.3c0-0.5,0.1-0.3-0.2-0.6c-0.1,0-0.1-0.1-0.1-0.1c-0.3-0.3-0.1-0.4-0.1-0.9v-0.8c0-0.6,0-0.4,0.4-0.3
	c0.2,0.1,0.1,0.5,0.1,0.8s0,0.5,0.2,0.7C957.3,388.6,957.3,388.7,957.6,388.7L957.6,388.7z M936.9,388.9v-1c2.2-0.1,4.1-0.7,6.3-1.3
	c1.3-0.3,3.4-1.7,4.1-0.1l0,0c-2.1,0.4-2.7,1.5-4.5,1.8C940.9,388.6,938.9,388.8,936.9,388.9z"/>
<path id="YUC" class="st0" d="M936.9,388.9v-1c-0.3,0-0.5,0-0.8,0c-0.7,0-2.5-0.3-3.1,0.1c-1.3,0.8,0.1,0.8,1.4,0.8
	C935.3,388.9,936.1,388.9,936.9,388.9L936.9,388.9z M887.7,461.3l18.3-19.7l-0.6-3.6h4.2v-3.3h6.3v-2.1l8.1-0.3l-0.6-2.7l3.6-3.3
	l1.8-0.3v2.1l5.1,0.6v-1.8h-1.8v-4.5l4.2-0.6l0.3-6.3h-2.7l3-8.4h6.3v-3h-2.1l-7.2,0.6l0.3-5.7h2.4l0.3-8.2
	c-11.9,0.2-29.2-3.4-35.9,1.9c-8.3,6.6-16.5,7-27.2,10.1c-12.7,3.8-12.2,1.7-20.6,10c-2.2,0.3-3.8,2.5-5,5.5l1.9,0.1l0.6,10.5h2.4
	l3.9,0.3v4.2l10.5-0.6l0.6,5.7h1.5l2.7,3.3l1.5-2.1l2.4-0.6l0.6,10.2L887.7,461.3L887.7,461.3z M868,367.6c-0.1,0.4-0.3,0.7-0.7,0.8
	c-0.5,0.1-0.6-0.5-0.7-1c0.4,0.1,0.8,0.2,1,0.2C867.7,367.6,867.9,367.6,868,367.6L868,367.6z M865.9,367.2
	c-0.2,0.1-0.4,0.3-0.8,0.3c-0.7,0.1-3.7,0.1-4-0.3c-0.2-0.4,1.4-1.9,0.3-2.3c-0.3-0.1-1-1.7-0.8-2c0.2-0.4,1-0.6,1.1-0.8
	c0.1-0.2,0-1.4,0-1.7c0.1-0.5,2.1-1.6,2.8-1.1c0.2,0.1,0.4,0.6,0.6,1c-0.4-0.1-1.1,0.1-1.5,0.1c-0.5,0.1-1,0.4-1.1,0.8
	c-0.3,0.7,0.3,0.7-0.3,1.1c-0.2,0.1-0.2,0.3-0.3,0.6c-0.1,0.5-0.6,1.1,0,1.7c0.1,0.1,0.4,0.3,0.6,0.3c1,0.1,0.4,0.2,0.8,0.8
	c0.1,0.1,0.5,0.3,0.8,0.3c0.2,0,0.7-0.1,0.8,0c0.4,0.1,0,0.6,0.3,0.8C865.4,367.1,865.6,367.2,865.9,367.2L865.9,367.2z
	 M865.3,360.9L865.3,360.9C865.3,361,865.3,361,865.3,360.9z M866.7,361.7c0.4,0.1,0.7,0.1,0.8,0.2c0.7,0.4,1.7-0.5,2,0.3
	c0.5,1.3-0.7,1.2-0.8,1.4c-0.6,1.1,0.5,1.3,0,2l-0.8-1.8c-0.1-0.9,0-1.2-0.6-1.7C867.1,362.1,866.9,361.9,866.7,361.7L866.7,361.7z"
	/>
</svg>
