<?xml version="1.0" encoding="UTF-8"?>
<!-- Generator: Adobe Illustrator 16.0.0, SVG Export Plug-In . SVG Version: 6.00 Build 0)  -->
<!DOCTYPE svg PUBLIC "-//W3C//DTD SVG 1.1//EN" "http://www.w3.org/Graphics/SVG/1.1/DTD/svg11.dtd">
<svg version="1.1" id="Layer_1" xmlns="http://www.w3.org/2000/svg" xmlns:xlink="http://www.w3.org/1999/xlink" x="0px" y="0px" width="34.875px" height="35px" viewBox="0 0 34.875 35" enable-background="new 0 0 34.875 35" xml:space="preserve">
<g id="_x5F__x5F_prop_1" display="none">
	<g display="inline">
		<defs>
			<rect id="SVGID_1_" x="-44" y="-3027" width="805" height="250"/>
		</defs>
		<clipPath id="SVGID_2_">
			<use xlink:href="#SVGID_1_" overflow="visible"/>
		</clipPath>
		<g clip-path="url(#SVGID_2_)">
			<g>
				<g>
					<defs>
						<rect id="SVGID_3_" x="-44" y="-3128" width="860" height="452"/>
					</defs>
					<clipPath id="SVGID_4_">
						<use xlink:href="#SVGID_3_" overflow="visible"/>
					</clipPath>
					<g transform="matrix(1 0 0 1 6.912232e-006 6.209291e-005)" clip-path="url(#SVGID_4_)">
						
							<image overflow="visible" enable-background="new    " width="993" height="662" xlink:href="2CE87A66.jpg" transform="matrix(-0.8706 0 0 0.9217 816.5186 -3141.7529)">
						</image>
					</g>
				</g>
			</g>
			<g>
				<defs>
					<rect id="SVGID_5_" x="-44" y="-3027" width="805" height="250"/>
				</defs>
				<clipPath id="SVGID_6_">
					<use xlink:href="#SVGID_5_" overflow="visible"/>
				</clipPath>
				<polygon clip-path="url(#SVGID_6_)" fill="#00AF4C" points="321.458,-2776.633 -43.958,-2776.633 -43.958,-3026.06       261.923,-3026.06     "/>
			</g>
			<g>
				<defs>
					<rect id="SVGID_7_" x="-44" y="-3027" width="805" height="250"/>
				</defs>
				<clipPath id="SVGID_8_">
					<use xlink:href="#SVGID_7_" overflow="visible"/>
				</clipPath>
				<g clip-path="url(#SVGID_8_)">
					<text transform="matrix(1 0 0 1 -36.3955 -3096.6641)" fill="#00AF4C" font-family="'ArialMT'" font-size="20.798">Medicion de Pobreza</text>
				</g>
			</g>
			<g>
				<defs>
					<rect id="SVGID_9_" x="-44" y="-3027" width="805" height="250"/>
				</defs>
				<clipPath id="SVGID_10_">
					<use xlink:href="#SVGID_9_" overflow="visible"/>
				</clipPath>
				<g clip-path="url(#SVGID_10_)" enable-background="new    ">
					<text transform="matrix(1 0 0 1 133.5586 -3036.4453)" font-family="'ITCAvantGardeStd-Md'" font-size="13.8067">Ver más</text>
				</g>
			</g>
			<g>
				<defs>
					<rect id="SVGID_11_" x="-44" y="-3027" width="805" height="250"/>
				</defs>
				<clipPath id="SVGID_12_">
					<use xlink:href="#SVGID_11_" overflow="visible"/>
				</clipPath>
				<g clip-path="url(#SVGID_12_)" enable-background="new    ">
					<text transform="matrix(1 0 0 1 399.8311 -3036.4453)" font-family="'ITCAvantGardeStd-Md'" font-size="13.8067">Ver más</text>
				</g>
			</g>
			<g>
				<defs>
					<rect id="SVGID_13_" x="-44" y="-3027" width="805" height="250"/>
				</defs>
				<clipPath id="SVGID_14_">
					<use xlink:href="#SVGID_13_" overflow="visible"/>
				</clipPath>
				<g clip-path="url(#SVGID_14_)">
					<g>
						<circle fill="#00AF4C" cx="741.219" cy="-3043.647" r="10.355"/>
						<g>
							<path fill="#FFFFFF" d="M741.771-3044.091h7.745v0.919h-7.745v7.749h-0.921v-7.749h-7.749v-0.919h7.749v-7.78h0.921         V-3044.091z"/>
						</g>
					</g>
					<text transform="matrix(1 0 0 1 670.0488 -3036.4453)" font-family="'ITCAvantGardeStd-Md'" font-size="13.8067">Ver más</text>
				</g>
			</g>
			<g>
				<defs>
					<rect id="SVGID_15_" x="-44" y="-3027" width="805" height="250"/>
				</defs>
				<clipPath id="SVGID_16_">
					<use xlink:href="#SVGID_15_" overflow="visible"/>
				</clipPath>
				<rect x="-26.329" y="-2854.147" clip-path="url(#SVGID_16_)" fill="none" width="297.041" height="68.127"/>
			</g>
			<text transform="matrix(1 0 0 1 -26.3291 -2842.2441)" fill="#FFFFFF" font-family="'ITCAvantGardeStd-Md'" font-size="16.7653">Noticia llamativa, o en caso de no existir </text>
			<text transform="matrix(1 0 0 1 -26.3291 -2822.127)" fill="#FFFFFF" font-family="'ITCAvantGardeStd-Md'" font-size="16.7653">noticia, texto con datos interesantes.</text>
			<g>
				<defs>
					<rect id="SVGID_17_" x="-44" y="-3027" width="805" height="250"/>
				</defs>
				<clipPath id="SVGID_18_">
					<use xlink:href="#SVGID_17_" overflow="visible"/>
				</clipPath>
				<g clip-path="url(#SVGID_18_)">
					<text transform="matrix(1 0 0 1 237.7666 -3095.8379)" fill="#00AF4C" font-family="'ArialMT'" font-size="17.7515">Evaluación de programas </text>
					<text transform="matrix(1 0 0 1 237.7666 -3074.5371)" fill="#00AF4C" font-family="'ArialMT'" font-size="17.7515">sociales</text>
				</g>
			</g>
			<g>
				<defs>
					<rect id="SVGID_19_" x="-44" y="-3027" width="805" height="250"/>
				</defs>
				<clipPath id="SVGID_20_">
					<use xlink:href="#SVGID_19_" overflow="visible"/>
				</clipPath>
				<g clip-path="url(#SVGID_20_)">
					<text transform="matrix(1 0 0 1 504.6973 -3095.8379)" fill="#00AF4C" font-family="'ArialMT'" font-size="17.7515">Publicaciones Institucionales</text>
				</g>
			</g>
			<g>
				<defs>
					<rect id="SVGID_21_" x="-44" y="-3027" width="805" height="250"/>
				</defs>
				<clipPath id="SVGID_22_">
					<use xlink:href="#SVGID_21_" overflow="visible"/>
				</clipPath>
				<rect x="599.625" y="-2845.404" clip-path="url(#SVGID_22_)" fill="#00AF4C" width="161.153" height="25.661"/>
			</g>
			<g>
				<defs>
					<rect id="SVGID_23_" x="-44" y="-3027" width="805" height="250"/>
				</defs>
				<clipPath id="SVGID_24_">
					<use xlink:href="#SVGID_23_" overflow="visible"/>
				</clipPath>
				<rect x="-28.521" y="-3005.328" clip-path="url(#SVGID_24_)" fill="none" width="272.531" height="138.295"/>
			</g>
			<text transform="matrix(1 0 0 1 -28.5205 -2985.0234)" fill="#FFFFFF" font-family="'ITCAvantGardeStd-Md'" font-size="28.5997">Título llamativo y reci</text>
			<text transform="matrix(1 0 0 1 225.4395 -2985.0234)" fill="#FFFFFF" font-family="'ITCAvantGardeStd-Md'" font-size="28.5997">-</text>
			<text transform="matrix(1 0 0 1 -28.5205 -2950.7051)" fill="#FFFFFF" font-family="'ITCAvantGardeStd-Md'" font-size="28.5997">ente,referente al menu </text>
			<text transform="matrix(1 0 0 1 -28.5205 -2916.3848)" fill="#FFFFFF" font-family="'ITCAvantGardeStd-Md'" font-size="28.5997">izquierdo selecciona</text>
			<text transform="matrix(1 0 0 1 214.9434 -2916.3848)" fill="#FFFFFF" font-family="'ITCAvantGardeStd-Md'" font-size="28.5997">-</text>
			<text transform="matrix(1 0 0 1 -28.5205 -2882.0645)" fill="#FFFFFF" font-family="'ITCAvantGardeStd-Md'" font-size="28.5997">do.</text>
			<g>
				<defs>
					<rect id="SVGID_25_" x="-44" y="-3027" width="805" height="250"/>
				</defs>
				<clipPath id="SVGID_26_">
					<use xlink:href="#SVGID_25_" overflow="visible"/>
				</clipPath>
				<g clip-path="url(#SVGID_26_)">
					<g>
						<circle fill="#00AF4C" cx="726.486" cy="-2832.779" r="10.355"/>
						<g>
							<path fill="#FFFFFF" d="M727.037-2833.222h7.747v0.919h-7.747v7.748h-0.919v-7.748h-7.749v-0.919h7.749v-7.78h0.919         V-2833.222z"/>
						</g>
					</g>
					
						<text transform="matrix(1 0 0 1 655.3154 -2825.5762)" fill="#FFFFFF" font-family="'ITCAvantGardeStd-Md'" font-size="13.8067">Ver más</text>
				</g>
			</g>
		</g>
	</g>
	<g display="inline">
		<g>
			<circle fill="#00AF4C" cx="40.167" cy="-1587.752" r="10.5"/>
			<g>
				<path fill="#FFFFFF" d="M40.727-1588.202h7.855v0.932h-7.855v7.856h-0.932v-7.856h-7.857v-0.932h7.857v-7.89h0.932V-1588.202z"/>
			</g>
		</g>
		<text transform="matrix(1 0 0 1 -32 -1580.4512)" font-family="'ITCAvantGardeStd-Md'" font-size="14">Ver más</text>
	</g>
	<g display="inline">
		<g opacity="0.6">
			<path fill="#FFFFFF" d="M-32.216-2138.13c181.832,4.588,258.636,13.13,401.437,13.13c170.39,0,248.045-8.542,401.438-13.13     H-32.216z"/>
			<path fill="#FEFFFF" d="M-32.21-2138.13c182.495,4.558,259.015,13.051,401.431,13.051c170.123,0,247.864-8.5,401.432-13.051     H-32.21z"/>
			<path fill="#FEFEFF" d="M-32.204-2138.13c183.158,4.528,259.394,12.972,401.425,12.972c169.858,0,247.687-8.458,401.424-12.972     H-32.204z"/>
			<path fill="#FDFEFE" d="M-32.198-2138.13c183.821,4.498,259.772,12.893,401.419,12.893c169.597,0,247.504-8.416,401.418-12.893     H-32.198z"/>
			<path fill="#FDFEFE" d="M-32.192-2138.13c184.484,4.469,260.151,12.813,401.412,12.813c169.331,0,247.325-8.374,401.413-12.813     H-32.192z"/>
			<path fill="#FCFDFE" d="M-32.187-2138.13c185.147,4.438,260.529,12.735,401.406,12.735c169.066,0,247.146-8.333,401.407-12.735     H-32.187z"/>
			<path fill="#FCFDFE" d="M-32.181-2138.13c185.811,4.408,260.908,12.656,401.4,12.656c168.803,0,246.964-8.291,401.401-12.656     H-32.181z"/>
			<path fill="#FBFDFE" d="M-32.175-2138.13c186.474,4.379,261.286,12.577,401.396,12.577c168.537,0,246.783-8.249,401.396-12.577     H-32.175z"/>
			<path fill="#FBFCFE" d="M-32.169-2138.13c187.137,4.349,261.666,12.498,401.39,12.498c168.272,0,246.604-8.207,401.391-12.498     H-32.169z"/>
			<path fill="#FAFCFD" d="M-32.163-2138.13c187.8,4.318,262.044,12.419,401.384,12.419c168.008,0,246.424-8.165,401.383-12.419     H-32.163z"/>
			<path fill="#FAFCFD" d="M-32.157-2138.13c188.464,4.289,262.423,12.34,401.378,12.34c167.743,0,246.242-8.123,401.377-12.34     H-32.157z"/>
			<path fill="#F9FBFD" d="M-32.151-2138.13c189.127,4.259,262.801,12.261,401.372,12.261c167.479,0,246.063-8.081,401.371-12.261     H-32.151z"/>
			<path fill="#F9FBFD" d="M-32.146-2138.13c189.791,4.229,263.181,12.182,401.365,12.182c167.216,0,245.883-8.039,401.366-12.182     H-32.146z"/>
			<path fill="#F8FBFD" d="M-32.14-2138.13c190.453,4.199,263.56,12.103,401.359,12.103c166.951,0,245.702-7.997,401.36-12.103     H-32.14z"/>
			<path fill="#F8FAFD" d="M-32.134-2138.13c191.116,4.169,263.938,12.024,401.354,12.024c166.687,0,245.521-7.956,401.354-12.024     H-32.134z"/>
			<path fill="#F7FAFC" d="M-32.128-2138.13c191.78,4.14,264.317,11.945,401.349,11.945c166.421,0,245.342-7.914,401.35-11.945     H-32.128z"/>
			<path fill="#F7FAFC" d="M-32.122-2138.13c192.442,4.109,264.696,11.866,401.343,11.866c166.157,0,245.161-7.872,401.342-11.866     H-32.122z"/>
			<path fill="#F6F9FC" d="M-32.116-2138.13c193.106,4.079,265.075,11.787,401.337,11.787c165.895,0,244.98-7.83,401.336-11.787     H-32.116z"/>
			<path fill="#F6F9FC" d="M-32.11-2138.13c193.769,4.05,265.453,11.708,401.33,11.708c165.629,0,244.802-7.788,401.331-11.708     H-32.11z"/>
			<path fill="#F5F9FC" d="M-32.104-2138.13c194.432,4.02,265.833,11.629,401.325,11.629c165.363,0,244.62-7.746,401.324-11.629     H-32.104z"/>
			<path fill="#F5F8FC" d="M-32.098-2138.13c195.095,3.99,266.209,11.55,401.319,11.55c165.102,0,244.439-7.704,401.318-11.55     H-32.098z"/>
			<path fill="#F4F8FB" d="M-32.092-2138.13c195.758,3.96,266.589,11.471,401.313,11.471c164.835,0,244.262-7.662,401.313-11.471     H-32.092z"/>
			<path fill="#F4F8FB" d="M-32.086-2138.13c196.421,3.93,266.968,11.392,401.307,11.392c164.57,0,244.079-7.62,401.309-11.392     H-32.086z"/>
			<path fill="#F3F7FB" d="M-32.081-2138.13c197.084,3.9,267.347,11.313,401.3,11.313c164.309,0,243.899-7.579,401.303-11.313     H-32.081z"/>
			<path fill="#F3F7FB" d="M-32.075-2138.13c197.748,3.87,267.726,11.234,401.294,11.234c164.042,0,243.722-7.537,401.296-11.234     H-32.075z"/>
			<path fill="#F2F7FB" d="M-32.069-2138.13c198.411,3.841,268.104,11.155,401.29,11.155c163.777,0,243.538-7.495,401.289-11.155     H-32.069z"/>
			<path fill="#F2F6FB" d="M-32.063-2138.13c199.074,3.811,268.483,11.076,401.284,11.076c163.515,0,243.358-7.453,401.283-11.076     H-32.063z"/>
			<path fill="#F1F6FA" d="M-32.057-2138.13c199.737,3.78,268.862,10.997,401.278,10.997c163.248,0,243.18-7.411,401.277-10.997     H-32.057z"/>
			<path fill="#F1F6FA" d="M-32.051-2138.13c200.4,3.751,269.24,10.918,401.271,10.918c162.982,0,242.996-7.369,401.271-10.918     H-32.051z"/>
			<path fill="#F0F5FA" d="M-32.045-2138.13c201.064,3.721,269.619,10.839,401.266,10.839c162.722,0,242.817-7.327,401.268-10.839     H-32.045z"/>
			<path fill="#F0F5FA" d="M-32.04-2138.13c201.728,3.69,269.998,10.76,401.259,10.76c162.456,0,242.64-7.285,401.262-10.76H-32.04z     "/>
			<path fill="#EFF5FA" d="M-32.034-2138.13c202.39,3.661,270.376,10.681,401.253,10.681c162.191,0,242.458-7.243,401.255-10.681     H-32.034z"/>
			<path fill="#EFF4FA" d="M-32.028-2138.13c203.053,3.631,270.754,10.603,401.248,10.603c161.927,0,242.277-7.202,401.249-10.603     H-32.028z"/>
			<path fill="#EEF4F9" d="M-32.022-2138.13c203.717,3.602,271.133,10.523,401.243,10.523c161.661,0,242.098-7.16,401.242-10.523     H-32.022z"/>
			<path fill="#EEF4F9" d="M-32.016-2138.13c204.38,3.571,271.513,10.444,401.237,10.444c161.397,0,241.916-7.118,401.236-10.444     H-32.016z"/>
			<path fill="#EDF3F9" d="M-32.01-2138.13c205.043,3.541,271.892,10.365,401.23,10.365c161.133,0,241.734-7.076,401.229-10.365     H-32.01z"/>
			<path fill="#EDF3F9" d="M-32.004-2138.13c205.707,3.512,272.271,10.286,401.225,10.286c160.868,0,241.558-7.033,401.227-10.286     H-32.004z"/>
			<path fill="#ECF2F9" d="M-31.999-2138.13c206.37,3.481,272.649,10.207,401.218,10.207c160.604,0,241.376-6.991,401.222-10.207     H-31.999z"/>
			<path fill="#ECF2F9" d="M-31.993-2138.13c207.033,3.451,273.028,10.128,401.212,10.128c160.341,0,241.196-6.949,401.214-10.128     H-31.993z"/>
			<path fill="#EBF2F8" d="M-31.987-2138.13c207.696,3.422,273.407,10.049,401.208,10.049c160.075,0,241.017-6.907,401.207-10.049     H-31.987z"/>
			<path fill="#EBF1F8" d="M-31.981-2138.13c208.359,3.392,273.786,9.971,401.202,9.971c159.813,0,240.834-6.866,401.201-9.971     H-31.981z"/>
			<path fill="#EAF1F8" d="M-31.975-2138.13c209.022,3.362,274.165,9.892,401.196,9.892c159.546,0,240.654-6.824,401.195-9.892     H-31.975z"/>
			<path fill="#EAF1F8" d="M-31.969-2138.13c209.686,3.332,274.543,9.813,401.19,9.813c159.281,0,240.476-6.782,401.189-9.813     H-31.969z"/>
			<path fill="#E9F0F8" d="M-31.963-2138.13c210.349,3.302,274.922,9.733,401.184,9.733c159.02,0,240.294-6.74,401.186-9.733     H-31.963z"/>
			<path fill="#E9F0F8" d="M-31.958-2138.13c211.013,3.272,275.3,9.654,401.177,9.654c158.754,0,240.114-6.698,401.181-9.654     H-31.958z"/>
			<path fill="#E8F0F7" d="M-31.952-2138.13c211.675,3.242,275.679,9.575,401.171,9.575c158.489,0,239.936-6.656,401.173-9.575     H-31.952z"/>
			<path fill="#E8EFF7" d="M-31.946-2138.13c212.338,3.212,276.057,9.496,401.166,9.496c158.227,0,239.754-6.614,401.167-9.496     H-31.946z"/>
			<path fill="#E7EFF7" d="M-31.94-2138.13c213,3.183,276.437,9.417,401.161,9.417c157.96,0,239.572-6.572,401.16-9.417H-31.94z"/>
			<path fill="#E7EFF7" d="M-31.934-2138.13c213.665,3.152,276.815,9.338,401.155,9.338c157.695,0,239.395-6.53,401.154-9.338     H-31.934z"/>
			<path fill="#E6EEF7" d="M-31.928-2138.13c214.329,3.123,277.194,9.26,401.149,9.26c157.433,0,239.212-6.489,401.148-9.26H-31.928     z"/>
			<path fill="#E6EEF7" d="M-31.922-2138.13c214.99,3.093,277.572,9.181,401.143,9.181c157.166,0,239.031-6.447,401.145-9.181     H-31.922z"/>
			<path fill="#E5EEF6" d="M-31.917-2138.13c215.653,3.063,277.952,9.102,401.136,9.102c156.902,0,238.854-6.405,401.14-9.102     H-31.917z"/>
			<path fill="#E5EDF6" d="M-31.911-2138.13c216.317,3.033,278.331,9.022,401.13,9.022c156.641,0,238.672-6.363,401.132-9.022     H-31.911z"/>
			<path fill="#E4EDF6" d="M-31.905-2138.13c216.981,3.003,278.709,8.943,401.125,8.943c156.372,0,238.49-6.321,401.124-8.943     H-31.905z"/>
			<path fill="#E4EDF6" d="M-31.898-2138.13c217.644,2.974,279.087,8.864,401.119,8.864c156.108,0,238.313-6.279,401.119-8.864     H-31.898z"/>
			<path fill="#E3ECF6" d="M-31.893-2138.13c218.307,2.943,279.466,8.785,401.112,8.785c155.847,0,238.131-6.237,401.114-8.785     H-31.893z"/>
			<path fill="#E3ECF6" d="M-31.887-2138.13c218.97,2.913,279.845,8.706,401.106,8.706c155.581,0,237.951-6.195,401.108-8.706     H-31.887z"/>
			<path fill="#E2ECF5" d="M-31.881-2138.13c219.633,2.884,280.224,8.627,401.102,8.627c155.315,0,237.771-6.153,401.104-8.627     H-31.881z"/>
			<path fill="#E2EBF5" d="M-31.875-2138.13c220.296,2.854,280.604,8.549,401.096,8.549c155.051,0,237.59-6.112,401.098-8.549     H-31.875z"/>
			<path fill="#E1EBF5" d="M-31.869-2138.13c220.959,2.823,280.98,8.47,401.09,8.47c154.786,0,237.409-6.07,401.09-8.47H-31.869z"/>
			<path fill="#E1EBF5" d="M-31.863-2138.13c221.623,2.794,281.36,8.391,401.083,8.391c154.521,0,237.229-6.028,401.083-8.391     H-31.863z"/>
			<path fill="#E0EAF5" d="M-31.857-2138.13c222.287,2.764,281.739,8.312,401.078,8.312c154.258,0,237.049-5.986,401.078-8.312     H-31.857z"/>
			<path fill="#E0EAF5" d="M-31.852-2138.13c222.95,2.734,282.118,8.232,401.071,8.232c153.994,0,236.869-5.944,401.073-8.232     H-31.852z"/>
			<path fill="#DFEAF4" d="M-31.846-2138.13c223.612,2.704,282.497,8.153,401.065,8.153c153.729,0,236.689-5.902,401.067-8.153     H-31.846z"/>
			<path fill="#DFE9F4" d="M-31.84-2138.13c224.275,2.674,282.875,8.074,401.061,8.074c153.464,0,236.508-5.86,401.063-8.074H-31.84     z"/>
			<path fill="#DEE9F4" d="M-31.834-2138.13c224.939,2.645,283.254,7.995,401.054,7.995c153.201,0,236.329-5.818,401.058-7.995     H-31.834z"/>
			<path fill="#DEE9F4" d="M-31.828-2138.13c225.602,2.614,283.633,7.916,401.049,7.916c152.938,0,236.147-5.776,401.049-7.916     H-31.828z"/>
			<path fill="#DDE8F4" d="M-31.822-2138.13c226.265,2.584,284.011,7.838,401.042,7.838c152.67,0,235.967-5.735,401.042-7.838     H-31.822z"/>
			<path fill="#DDE8F4" d="M-31.816-2138.13c226.927,2.555,284.39,7.759,401.037,7.759c152.406,0,235.787-5.693,401.037-7.759     H-31.816z"/>
			<path fill="#DCE8F3" d="M-31.811-2138.13c227.592,2.524,284.769,7.68,401.03,7.68c152.146,0,235.607-5.651,401.032-7.68H-31.811z     "/>
			<path fill="#DCE7F3" d="M-31.805-2138.13c228.255,2.495,285.147,7.601,401.024,7.601c151.879,0,235.428-5.609,401.026-7.601     H-31.805z"/>
			<path fill="#DBE7F3" d="M-31.799-2138.13c228.918,2.465,285.525,7.521,401.02,7.521c151.613,0,235.246-5.567,401.021-7.521     H-31.799z"/>
			<path fill="#D9E5F1" d="M-31.748-2138.13c226.094,2.434,284.258,7.421,400.969,7.421c152.322,0,237.131-5.491,400.971-7.421     H-31.748z"/>
			<path fill="#D7E3EF" d="M-31.697-2138.13c223.267,2.402,282.989,7.321,400.917,7.321c153.03,0,239.016-5.416,400.916-7.321     H-31.697z"/>
			<path fill="#D5E1ED" d="M-31.646-2138.13c220.443,2.37,281.721,7.221,400.867,7.221c153.739,0,240.899-5.339,400.866-7.221     H-31.646z"/>
			<path fill="#D3DFEB" d="M-31.595-2138.13c217.619,2.339,280.453,7.121,400.814,7.121c154.449,0,242.785-5.264,400.816-7.121     H-31.595z"/>
			<path fill="#D1DDE9" d="M-31.544-2138.13c214.793,2.308,279.185,7.021,400.765,7.021c155.157,0,244.669-5.188,400.767-7.021     H-31.544z"/>
			<path fill="#CFDBE7" d="M-31.493-2138.13c211.97,2.276,277.915,6.921,400.712,6.921c155.867,0,246.556-5.112,400.714-6.921     H-31.493z"/>
			<path fill="#CDD9E5" d="M-31.442-2138.13c209.144,2.245,276.646,6.82,400.663,6.82c156.575,0,248.438-5.036,400.662-6.82H-31.442     z"/>
			<path fill="#CBD7E3" d="M-31.391-2138.13c206.319,2.214,275.377,6.721,400.61,6.721c157.285,0,250.323-4.961,400.612-6.721     H-31.391z"/>
			<path fill="#C9D6E2" d="M-31.34-2138.13c203.494,2.182,274.109,6.62,400.561,6.62c157.992,0,252.207-4.884,400.563-6.62H-31.34z"/>
			<path fill="#C7D4E0" d="M-31.289-2138.13c200.669,2.15,272.84,6.521,400.508,6.521c158.702,0,254.094-4.809,400.51-6.521H-31.289     z"/>
			<path fill="#C5D2DE" d="M-31.238-2138.13c197.843,2.119,271.572,6.42,400.458,6.42c159.409,0,255.977-4.732,400.457-6.42H-31.238     z"/>
			<path fill="#C4D0DC" d="M-31.187-2138.13c195.019,2.088,270.303,6.32,400.406,6.32c160.12,0,257.861-4.657,400.408-6.32H-31.187z     "/>
			<path fill="#C2CEDA" d="M-31.136-2138.13c192.195,2.057,269.035,6.22,400.355,6.22c160.829,0,259.746-4.581,400.357-6.22H-31.136     z"/>
			<path fill="#C0CCD8" d="M-31.084-2138.13c189.369,2.024,267.766,6.12,400.304,6.12c161.537,0,261.631-4.505,400.308-6.12H-31.084     z"/>
			<path fill="#BECAD6" d="M-31.034-2138.13c186.544,1.993,266.498,6.02,400.253,6.02c162.246,0,263.517-4.429,400.255-6.02H-31.034     z"/>
			<path fill="#BCC8D4" d="M-30.982-2138.13c183.718,1.962,265.229,5.92,400.203,5.92c162.954,0,265.398-4.354,400.203-5.92H-30.982     z"/>
			<path fill="#BAC6D2" d="M-30.932-2138.13c180.895,1.931,263.961,5.819,400.151,5.819c163.664,0,267.284-4.277,400.153-5.819     H-30.932z"/>
			<path fill="#B8C4D0" d="M-30.88-2138.13c178.069,1.899,262.692,5.72,400.101,5.72c164.372,0,269.168-4.202,400.103-5.72H-30.88z"/>
			<path fill="#B6C2CE" d="M-30.83-2138.13c175.245,1.868,261.423,5.619,400.049,5.619c165.081,0,271.055-4.126,400.051-5.619     H-30.83z"/>
			<path fill="#B4C0CC" d="M-30.778-2138.13c172.418,1.836,260.155,5.52,399.998,5.52c165.79,0,272.938-4.05,400-5.52H-30.778z"/>
			<path fill="#B2BECA" d="M-30.728-2138.13c169.595,1.805,258.886,5.419,399.947,5.419c166.499,0,274.822-3.974,399.949-5.419     H-30.728z"/>
			<path fill="#B0BCC8" d="M-30.676-2138.13c166.77,1.773,257.617,5.319,399.896,5.319c167.206,0,276.705-3.896,399.896-5.319     H-30.676z"/>
			<path fill="#AEBAC6" d="M-30.625-2138.13c163.945,1.742,256.35,5.219,399.846,5.219c167.916,0,278.59-3.822,399.848-5.219     H-30.625z"/>
			<path fill="#ACB8C4" d="M-30.574-2138.13c161.12,1.711,255.081,5.119,399.795,5.119c168.625,0,280.477-3.747,399.795-5.119     H-30.574z"/>
			<path fill="#AAB6C2" d="M-30.523-2138.13c158.294,1.679,253.812,5.019,399.744,5.019c169.333,0,282.359-3.67,399.744-5.019     H-30.523z"/>
			<path fill="#A8B4C0" d="M-30.472-2138.13c155.47,1.647,252.542,4.919,399.692,4.919c170.043,0,284.245-3.595,399.693-4.919     H-30.472z"/>
			<path fill="#A6B3BF" d="M-30.421-2138.13c152.646,1.616,251.274,4.818,399.642,4.818c170.751,0,286.128-3.519,399.644-4.818     H-30.421z"/>
			<path fill="#A4B1BD" d="M-30.37-2138.13c149.82,1.585,250.006,4.719,399.591,4.719c171.46,0,288.015-3.443,399.592-4.719H-30.37z     "/>
			<path fill="#A2AFBB" d="M-30.319-2138.13c146.996,1.554,248.738,4.618,399.54,4.618c172.169,0,289.897-3.367,399.54-4.618     H-30.319z"/>
			<path fill="#A0ADB9" d="M-30.268-2138.13c144.17,1.522,247.469,4.519,399.489,4.519c172.877,0,291.782-3.292,399.488-4.519     H-30.268z"/>
			<path fill="#9EABB7" d="M-30.217-2138.13c141.346,1.49,246.201,4.418,399.438,4.418c173.586,0,293.667-3.215,399.438-4.418     H-30.217z"/>
			<path fill="#9CA9B5" d="M-30.166-2138.13c138.521,1.459,244.932,4.318,399.386,4.318c174.296,0,295.552-3.14,399.39-4.318     H-30.166z"/>
			<path fill="#9AA7B3" d="M-30.115-2138.13c135.696,1.428,243.663,4.218,399.336,4.218c175.004,0,297.438-3.063,399.336-4.218     H-30.115z"/>
			<path fill="#98A5B1" d="M-30.064-2138.13c132.871,1.396,242.395,4.118,399.285,4.118c175.713,0,299.32-2.988,399.284-4.118     H-30.064z"/>
			<path fill="#96A3AF" d="M-30.013-2138.13c130.046,1.365,241.126,4.018,399.234,4.018c176.422,0,301.205-2.912,399.233-4.018     H-30.013z"/>
			<path fill="#95A1AD" d="M-29.962-2138.13c127.221,1.333,239.856,3.918,399.183,3.918c177.13,0,303.089-2.836,399.185-3.918     H-29.962z"/>
			<path fill="#939FAB" d="M-29.911-2138.13c124.396,1.302,238.589,3.817,399.132,3.817c177.839,0,304.976-2.76,399.133-3.817     H-29.911z"/>
			<path fill="#919DA9" d="M-29.86-2138.13c121.571,1.271,237.32,3.718,399.08,3.718c178.549,0,306.859-2.687,399.081-3.718H-29.86z     "/>
			<path fill="#8F9BA7" d="M-29.809-2138.13c118.747,1.239,236.052,3.617,399.03,3.617c179.258,0,308.743-2.606,399.029-3.617     H-29.809z"/>
			<path fill="#8D99A5" d="M-29.758-2138.13c115.921,1.208,234.783,3.518,398.979,3.518c179.967,0,310.627-2.533,398.979-3.518     H-29.758z"/>
			<path fill="#8B97A3" d="M-29.707-2138.13c113.096,1.176,233.516,3.417,398.928,3.417c180.674,0,312.514-2.456,398.93-3.417     H-29.707z"/>
			<path fill="#8995A1" d="M-29.656-2138.13c110.271,1.145,232.246,3.317,398.875,3.317c181.385,0,314.397-2.381,398.877-3.317     H-29.656z"/>
			<path fill="#87939F" d="M-29.605-2138.13c107.447,1.113,230.978,3.217,398.826,3.217c182.092,0,316.281-2.305,398.825-3.217     H-29.605z"/>
			<path fill="#85919D" d="M-29.554-2138.13c104.623,1.082,229.708,3.117,398.773,3.117c182.803,0,318.166-2.229,398.775-3.117     H-29.554z"/>
			<path fill="#83909C" d="M-29.503-2138.13c101.797,1.051,228.44,3.017,398.724,3.017c183.512,0,320.051-2.153,398.726-3.017     H-29.503z"/>
			<path fill="#818E9A" d="M-29.452-2138.13c98.972,1.02,227.171,2.917,398.671,2.917c184.222,0,321.938-2.078,398.673-2.917     H-29.452z"/>
			<path fill="#7F8C98" d="M-29.401-2138.13c96.147,0.987,225.903,2.816,398.622,2.816c184.929,0,323.819-2.001,398.621-2.816     H-29.401z"/>
			<path fill="#7D8A96" d="M-29.35-2138.13c93.323,0.956,224.634,2.717,398.569,2.717c185.637,0,325.704-1.926,398.571-2.717H-29.35     z"/>
			<path fill="#7B8894" d="M-29.299-2138.13c90.497,0.925,223.365,2.616,398.52,2.616c186.347,0,327.588-1.85,398.521-2.616H-29.299     z"/>
			<path fill="#798692" d="M-29.248-2138.13c87.672,0.894,222.098,2.517,398.467,2.517c187.057,0,329.476-1.774,398.469-2.517     H-29.248z"/>
			<path fill="#778490" d="M-29.197-2138.13c84.847,0.862,220.829,2.416,398.417,2.416c187.764,0,331.356-1.698,398.416-2.416     H-29.197z"/>
			<path fill="#75828E" d="M-29.146-2138.13c82.022,0.83,219.56,2.316,398.365,2.316c188.474,0,333.243-1.622,398.367-2.316H-29.146     z"/>
			<path fill="#73808C" d="M-29.095-2138.13c79.197,0.799,218.292,2.216,398.314,2.216c189.183,0,335.127-1.546,398.316-2.216     H-29.095z"/>
			<path fill="#717E8A" d="M-29.043-2138.13c76.372,0.768,217.023,2.116,398.264,2.116c189.891,0,337.013-1.471,398.266-2.116     H-29.043z"/>
			<path fill="#6F7C88" d="M-28.993-2138.13c73.548,0.736,215.754,2.016,398.212,2.016c190.601,0,338.896-1.395,398.214-2.016     H-28.993z"/>
			<path fill="#6D7A86" d="M-28.941-2138.13c70.722,0.705,214.485,1.916,398.162,1.916c191.309,0,340.78-1.319,398.162-1.916     H-28.941z"/>
			<path fill="#6B7884" d="M-28.891-2138.13c67.897,0.674,213.217,1.815,398.11,1.815c192.019,0,342.665-1.243,398.112-1.815     H-28.891z"/>
			<path fill="#697682" d="M-28.839-2138.13c65.071,0.642,211.948,1.716,398.06,1.716c192.726,0,344.549-1.167,398.062-1.716     H-28.839z"/>
			<path fill="#677480" d="M-28.789-2138.13c62.248,0.61,210.68,1.615,398.008,1.615c193.436,0,346.437-1.091,398.01-1.615H-28.789z     "/>
			<path fill="#66727E" d="M-28.737-2138.13c59.422,0.579,209.411,1.516,397.958,1.516c194.144,0,348.318-1.016,397.958-1.516     H-28.737z"/>
			<path fill="#64707C" d="M-28.687-2138.13c56.598,0.548,208.143,1.415,397.906,1.415c194.854,0,350.203-0.939,397.908-1.415     H-28.687z"/>
			<path fill="#626E7A" d="M-28.635-2138.13c53.773,0.517,206.874,1.315,397.855,1.315c195.561,0,352.086-0.864,397.854-1.315     H-28.635z"/>
			<path fill="#606D79" d="M-28.584-2138.13c50.947,0.484,205.605,1.215,397.804,1.215c196.271,0,353.975-0.787,397.808-1.215     H-28.584z"/>
			<path fill="#5E6B77" d="M-28.533-2138.13c48.123,0.453,204.338,1.115,397.754,1.115c196.979,0,355.856-0.712,397.754-1.115     H-28.533z"/>
			<path fill="#5C6975" d="M-28.482-2138.13c45.298,0.422,203.068,1.015,397.703,1.015c197.688,0,357.74-0.636,397.703-1.015     H-28.482z"/>
			<path fill="#5A6773" d="M-28.431-2138.13c42.473,0.391,201.8,0.915,397.652,0.915c198.396,0,359.625-0.561,397.651-0.915H-28.431     z"/>
			<path fill="#586571" d="M-28.38-2138.13c39.648,0.359,200.53,0.814,397.601,0.814c199.104,0,361.511-0.484,397.603-0.814H-28.38z     "/>
			<path fill="#56636F" d="M-28.329-2138.13c36.823,0.328,199.263,0.715,397.55,0.715c199.813,0,363.396-0.409,397.551-0.715     H-28.329z"/>
			<path fill="#54616D" d="M-28.278-2138.13c33.999,0.296,197.994,0.614,397.498,0.614c200.521,0,365.279-0.332,397.5-0.614H-28.278     z"/>
			<path fill="#525F6B" d="M-28.227-2138.13c31.173,0.265,196.726,0.515,397.448,0.515c201.229,0,367.163-0.257,397.447-0.515     H-28.227z"/>
			<path fill="#505D69" d="M-28.176-2138.13c28.349,0.233,195.457,0.414,397.396,0.414c201.938,0,369.049-0.181,397.396-0.414     H-28.176z"/>
		</g>
		<g>
			<g>
				<g>
					<defs>
						<rect id="SVGID_27_" x="78" y="-2495" width="691" height="356"/>
					</defs>
					<clipPath id="SVGID_28_">
						<use xlink:href="#SVGID_27_" overflow="visible"/>
					</clipPath>
					<g transform="matrix(1 0 0 1 -1.323328e-005 7.307623e-006)" clip-path="url(#SVGID_28_)">
						
							<image overflow="visible" enable-background="new    " width="730" height="720" xlink:href="2CE87A6A.jpg" transform="matrix(-0.8743 0 0 0.8743 774.8877 -2598.4756)">
						</image>
					</g>
				</g>
			</g>
		</g>
		<polygon fill="#00AF4C" points="736.479,-2236.314 473.086,-2197.512 473.086,-2436.208 736.479,-2436.208   "/>
		<rect x="-34" y="-2494" fill="#E2E1DF" width="236" height="87"/>
		<rect x="-34" y="-2407" fill="#E2E1DF" width="222" height="89"/>
		<rect x="-34" y="-2318" fill="#E2E1DF" width="222" height="90"/>
		<rect x="-34" y="-2228" fill="#E2E1DF" width="222" height="89"/>
		<text transform="matrix(1 0 0 1 -27.0391 -2473.0508)" font-family="'ArialMT'" font-size="16.5318">Sala de Prensa</text>
		<g>
			<rect x="-14.627" y="-2464.69" fill="none" width="202.375" height="54.873"/>
			<text transform="matrix(1 0 0 1 -14.627 -2456.8984)" font-family="'ArialMT'" font-size="10.9746">Breve descripción de la info que se encuen</text>
			<text transform="matrix(1 0 0 1 179.5859 -2456.8984)" font-family="'ArialMT'" font-size="10.9746">-</text>
			<text transform="matrix(1 0 0 1 -14.627 -2443.7285)" font-family="'ArialMT'" font-size="10.9746">tra aqui. y su relevancia.</text>
		</g>
		<text transform="matrix(1 0 0 1 -27.0391 -2386.8203)" font-family="'ArialMT'" font-size="16.5318">Eventos</text>
		<g>
			<rect x="-14.627" y="-2378.462" fill="none" width="202.375" height="33.446"/>
			<text transform="matrix(1 0 0 1 -14.627 -2370.6699)" font-family="'ArialMT'" font-size="10.9746">Breve descripción de la info que se encuen</text>
			<text transform="matrix(1 0 0 1 179.5859 -2370.6699)" font-family="'ArialMT'" font-size="10.9746">-</text>
			<text transform="matrix(1 0 0 1 -14.627 -2357.5)" font-family="'ArialMT'" font-size="10.9746">tra aqui. y su relevancia.</text>
		</g>
		<g>
			<rect x="-14.627" y="-2289.621" fill="none" width="202.375" height="33.446"/>
			<text transform="matrix(1 0 0 1 -14.627 -2281.8281)" font-family="'ArialMT'" font-size="10.9746">Breve descripción de la info que se encuen</text>
			<text transform="matrix(1 0 0 1 179.5859 -2281.8281)" font-family="'ArialMT'" font-size="10.9746">-</text>
			<text transform="matrix(1 0 0 1 -14.627 -2268.6582)" font-family="'ArialMT'" font-size="10.9746">tra aqui. y su relevancia.</text>
		</g>
		<text transform="matrix(1 0 0 1 -27.0391 -2297.457)" font-family="'ArialMT'" font-size="16.5318">Monitoreo</text>
		<text transform="matrix(1 0 0 1 -27.0391 -2209.6602)" font-family="'ArialMT'" font-size="16.5318">Quiosoco de Información</text>
		<g>
			<rect x="-14.627" y="-2201.302" fill="none" width="202.375" height="31.879"/>
			<text transform="matrix(1 0 0 1 -14.627 -2193.5098)" font-family="'ArialMT'" font-size="10.9746">Breve descripción de la info que se encuen</text>
			<text transform="matrix(1 0 0 1 179.5859 -2193.5098)" font-family="'ArialMT'" font-size="10.9746">-</text>
			<text transform="matrix(1 0 0 1 -14.627 -2180.3398)" font-family="'ArialMT'" font-size="10.9746">tra aqui. y su relevancia.</text>
		</g>
		<g>
			<g>
				<circle fill="#00AF4C" cx="715.443" cy="-2247.095" r="8.23"/>
				<g>
					<path fill="#FFFFFF" d="M715.882-2247.445h6.157v0.729h-6.157v6.158h-0.729v-6.158h-6.158v-0.729h6.158v-6.188h0.729V-2247.445       z"/>
				</g>
			</g>
			<text transform="matrix(1 0 0 1 658.873 -2241.3691)" fill="#FFFFFF" font-family="'ITCAvantGardeStd-Md'" font-size="10.9746">Ver más</text>
		</g>
		<g>
			<g>
				<circle fill="#00AF4C" cx="166.713" cy="-2421.903" r="8.231"/>
				<g>
					<path fill="#FFFFFF" d="M167.152-2422.255h6.156v0.729h-6.156v6.159h-0.73v-6.159h-6.158v-0.729h6.158v-6.186h0.73V-2422.255z"/>
				</g>
			</g>
		</g>
		<g>
			<g>
				<circle fill="#00AF4C" cx="166.713" cy="-2329.403" r="8.231"/>
				<g>
					<path fill="#FFFFFF" d="M167.152-2329.757h6.156v0.73h-6.156v6.159h-0.73v-6.159h-6.158v-0.73h6.158v-6.185h0.73V-2329.757z"/>
				</g>
			</g>
		</g>
		<g>
			<g>
				<circle fill="#00AF4C" cx="166.713" cy="-2240.039" r="8.231"/>
				<g>
					<path fill="#FFFFFF" d="M167.152-2240.392h6.156v0.73h-6.156v6.158h-0.73v-6.158h-6.158v-0.73h6.158v-6.185h0.73V-2240.392z"/>
				</g>
			</g>
		</g>
		<g>
			<g>
				<circle fill="#00AF4C" cx="166.713" cy="-2149.892" r="8.231"/>
				<g>
					<path fill="#FFFFFF" d="M167.152-2150.242h6.156v0.729h-6.156v6.157h-0.73v-6.157h-6.158v-0.729h6.158v-6.187h0.73V-2150.242z"/>
				</g>
			</g>
		</g>
		<line fill="none" stroke="#00AF4C" stroke-miterlimit="10" x1="-33.312" y1="-2407.205" x2="201.335" y2="-2407.205"/>
		<line fill="none" stroke="#00AF4C" stroke-miterlimit="10" x1="-34.095" y1="-2318.624" x2="186.964" y2="-2318.624"/>
		<line fill="none" stroke="#00AF4C" stroke-miterlimit="10" x1="-34.095" y1="-2229.26" x2="186.964" y2="-2229.26"/>
		<line fill="none" stroke="#00AF4C" stroke-miterlimit="10" x1="-34.095" y1="-2139.11" x2="769.4" y2="-2139.11"/>
		<rect x="487.197" y="-2426.017" fill="none" width="243.792" height="108.178"/>
		<text transform="matrix(1 0 0 1 487.1982 -2409.875)" fill="#FFFFFF" font-family="'ITCAvantGardeStd-Md'" font-size="22.7331">Título llamativo y reci</text>
		<text transform="matrix(1 0 0 1 689.0645 -2409.875)" fill="#FFFFFF" font-family="'ITCAvantGardeStd-Md'" font-size="22.7331">-</text>
		<text transform="matrix(1 0 0 1 487.1982 -2382.5977)" fill="#FFFFFF" font-family="'ITCAvantGardeStd-Md'" font-size="22.7331">ente,referente al menu </text>
		<text transform="matrix(1 0 0 1 487.1982 -2355.3164)" fill="#FFFFFF" font-family="'ITCAvantGardeStd-Md'" font-size="22.7331">izquierdo seleccionado.</text>
		<rect x="488.765" y="-2309.217" fill="none" width="242.227" height="52.521"/>
		<text transform="matrix(1 0 0 1 488.7656 -2299.7539)" fill="#FFFFFF" font-family="'ITCAvantGardeStd-Md'" font-size="13.3263">Noticia llamativa, o en caso de no existir </text>
		<text transform="matrix(1 0 0 1 488.7656 -2283.7637)" fill="#FFFFFF" font-family="'ITCAvantGardeStd-Md'" font-size="13.3263">noticia, texto con datos interesantes.</text>
	</g>
	<rect x="-157" y="-1483" display="inline" fill="#F7F7F7" width="1044" height="288"/>
	<g display="inline">
		<g>
			<text transform="matrix(1 0 0 1 334.5078 -1416.4922)" font-family="'ArialMT'" font-size="15.4516">Introducción de Secretario.</text>
			<text transform="matrix(1 0 0 1 334.5078 -1379.4082)" font-family="'ArialMT'" font-size="15.4516" letter-spacing="-4">​​</text>
			<text transform="matrix(1 0 0 1 334.5078 -1379.4082)" font-family="'ArialMT'" font-size="15.4516">Medición de la Pobreza en México 2016</text>
			<text transform="matrix(1 0 0 1 588.5117 -1379.4082)" font-family="'ArialMT'" font-size="15.4516" letter-spacing="-4">​​</text>
			<text transform="matrix(1 0 0 1 588.5117 -1379.4082)" font-family="'ArialMT'" font-size="15.4516"> Evolución </text>
			<text transform="matrix(1 0 0 1 334.5078 -1360.8672)" font-family="'ArialMT'" font-size="15.4516">de las Líneas de Bienestar y de la Canasta </text>
			<text transform="matrix(1 0 0 1 334.5078 -1342.3242)" font-family="'ArialMT'" font-size="15.4516">Evolución del poder adquisitivo del ingreso laboral </text>
			<text transform="matrix(1 0 0 1 334.5078 -1323.7832)" font-family="'ArialMT'" font-size="15.4516">(Índice de Tendencia Laboral de la Pobreza) </text>
			<text transform="matrix(1 0 0 1 334.5078 -1305.2402)" font-family="'ArialMT'" font-size="15.4516">Segundo Trimestre 2017</text>
		</g>
	</g>
	<g display="inline">
		<g>
			<text transform="matrix(1 0 0 1 208.8613 -1140.293)" font-family="'ArialMT'" font-size="21.0892"> investigadores académicos </text>
		</g>
	</g>
	<g display="inline">
		<text transform="matrix(1 0 0 1 317.0186 -1442.9648)" font-family="'ArialMT'" font-size="23.2759">Secretario Ejecutivo</text>
	</g>
	<g display="inline">
		<g>
			<circle fill="#00AF4C" cx="418.723" cy="-1279.589" r="11.589"/>
			<g>
				<path fill="#FFFFFF" d="M419.34-1280.084h8.67v1.028h-8.67v8.671h-1.029v-8.671h-8.672v-1.028h8.672v-8.708h1.029V-1280.084z"/>
			</g>
		</g>
		<text transform="matrix(1 0 0 1 339.0713 -1271.5293)" font-family="'ITCAvantGardeStd-Md'" font-size="15.4516">Ver más</text>
	</g>
	<g display="inline">
		<g>
			<circle fill="#00AF4C" cx="323.167" cy="-952.752" r="10.5"/>
			<g>
				<path fill="#FFFFFF" d="M323.727-953.202h7.855v0.932h-7.855v7.856h-0.932v-7.856h-7.857v-0.932h7.857v-7.89h0.932V-953.202z"/>
			</g>
		</g>
		<text transform="matrix(1 0 0 1 251 -945.4512)" font-family="'ITCAvantGardeStd-Md'" font-size="14">Ver más</text>
	</g>
	<g display="inline">
		<g>
			<circle fill="#00AF4C" cx="772.167" cy="-952.752" r="10.5"/>
			<g>
				<path fill="#FFFFFF" d="M772.727-953.202h7.855v0.932h-7.855v7.856h-0.932v-7.856h-7.857v-0.932h7.857v-7.89h0.932V-953.202z"/>
			</g>
		</g>
		<text transform="matrix(1 0 0 1 700 -945.4512)" font-family="'ITCAvantGardeStd-Md'" font-size="14">Ver más</text>
	</g>
	<g display="inline">
		<g>
			<circle fill="#00AF4C" cx="323.167" cy="-799.752" r="10.5"/>
			<g>
				<path fill="#FFFFFF" d="M323.727-800.202h7.855v0.932h-7.855v7.856h-0.932v-7.856h-7.857v-0.932h7.857v-7.89h0.932V-800.202z"/>
			</g>
		</g>
		<text transform="matrix(1 0 0 1 251 -792.4512)" font-family="'ITCAvantGardeStd-Md'" font-size="14">Ver más</text>
	</g>
	<g display="inline">
		<g>
			<circle fill="#00AF4C" cx="772.167" cy="-799.752" r="10.5"/>
			<g>
				<path fill="#FFFFFF" d="M772.727-800.202h7.855v0.932h-7.855v7.856h-0.932v-7.856h-7.857v-0.932h7.857v-7.89h0.932V-800.202z"/>
			</g>
		</g>
		<text transform="matrix(1 0 0 1 700 -792.4512)" font-family="'ITCAvantGardeStd-Md'" font-size="14">Ver más</text>
	</g>
	<g display="inline">
		<g>
			<circle fill="#00AF4C" cx="323.167" cy="-644.752" r="10.5"/>
			<g>
				<path fill="#FFFFFF" d="M323.727-645.202h7.855v0.932h-7.855v7.856h-0.932v-7.856h-7.857v-0.932h7.857v-7.89h0.932V-645.202z"/>
			</g>
		</g>
		<text transform="matrix(1 0 0 1 251 -637.4512)" font-family="'ITCAvantGardeStd-Md'" font-size="14">Ver más</text>
	</g>
	<g display="inline">
		<g>
			<circle fill="#00AF4C" cx="772.167" cy="-644.752" r="10.5"/>
			<g>
				<path fill="#FFFFFF" d="M772.727-645.202h7.855v0.932h-7.855v7.856h-0.932v-7.856h-7.857v-0.932h7.857v-7.89h0.932V-645.202z"/>
			</g>
		</g>
		<text transform="matrix(1 0 0 1 700 -637.4512)" font-family="'ITCAvantGardeStd-Md'" font-size="14">Ver más</text>
	</g>
	<g display="inline">
		<g>
			<circle fill="#00AF4C" cx="777.167" cy="-470.753" r="10.5"/>
		</g>
		<text transform="matrix(1 0 0 1 727.6582 -463.6504)" fill="#7A7A7A" font-family="'ITCAvantGardeStd-Md'" font-size="14">Subir</text>
		<path fill="#FFFFFF" d="M784.309-468.885l-7.143-7.142l-7.258,7.258C774.705-468.891,779.506-468.913,784.309-468.885z"/>
	</g>
	<g display="inline">
		<g>
			<circle fill="#00AF4C" cx="777.167" cy="-2100.752" r="10.5"/>
		</g>
		<text transform="matrix(1 0 0 1 727.6582 -2093.6504)" fill="#7A7A7A" font-family="'ITCAvantGardeStd-Md'" font-size="14">Subir</text>
		<path fill="#FFFFFF" d="M784.309-2098.885l-7.143-7.142l-7.258,7.258C774.705-2098.891,779.506-2098.914,784.309-2098.885z"/>
	</g>
	<g display="inline">
		<g>
			<circle fill="#00AF4C" cx="777.167" cy="-2749.752" r="10.5"/>
		</g>
		<text transform="matrix(1 0 0 1 727.6582 -2742.6504)" fill="#7A7A7A" font-family="'ITCAvantGardeStd-Md'" font-size="14">Subir</text>
		<path fill="#FFFFFF" d="M784.309-2747.885l-7.143-7.142l-7.258,7.258C774.705-2747.891,779.506-2747.914,784.309-2747.885z"/>
	</g>
	<g display="inline">
		<g>
			<g>
				<g>
					<circle fill="#00AF4C" cx="141.408" cy="-1345.031" r="116.032"/>
				</g>
			</g>
		</g>
		<g>
			<g>
				<g>
					<defs>
						<circle id="SVGID_29_" cx="141.408" cy="-1345.03" r="109.585"/>
					</defs>
					<clipPath id="SVGID_30_">
						<use xlink:href="#SVGID_29_" overflow="visible"/>
					</clipPath>
					<g transform="matrix(1 0 0 1 1.044763e-007 1.305420e-005)" clip-path="url(#SVGID_30_)">
						
							<image overflow="visible" enable-background="new    " width="1322" height="1458" xlink:href="2CE87A6D.jpg" transform="matrix(0.2344 0 0 0.2344 9.0474 -1467.8955)">
						</image>
					</g>
				</g>
			</g>
		</g>
	</g>
	<g display="inline">
		<g>
			<g>
				<defs>
					<rect id="SVGID_31_" x="380" y="-1800" width="391" height="256"/>
				</defs>
				<clipPath id="SVGID_32_">
					<use xlink:href="#SVGID_31_" overflow="visible"/>
				</clipPath>
				<g transform="matrix(1 0 0 1 -3.990574e-006 -5.695500e-005)" clip-path="url(#SVGID_32_)">
					
						<image overflow="visible" enable-background="new    " width="1930" height="1086" xlink:href="2CE87A6E.jpg" transform="matrix(0.7734 0 0 0.7734 -186.0303 -1993.5278)">
					</image>
				</g>
			</g>
		</g>
	</g>
	<g display="inline">
		<g>
			<g>
				<defs>
					<rect id="SVGID_33_" x="-63" y="-1067" width="131" height="131"/>
				</defs>
				<clipPath id="SVGID_34_">
					<use xlink:href="#SVGID_33_" overflow="visible"/>
				</clipPath>
				<g clip-path="url(#SVGID_34_)">
					
						<image overflow="visible" enable-background="new    " width="141" height="136" xlink:href="2CE87A6C.jpg" transform="matrix(1 0 0 1 -68 -1070)">
					</image>
				</g>
			</g>
		</g>
	</g>
	<g display="inline">
		<g>
			<g>
				<defs>
					<rect id="SVGID_35_" x="383" y="-1067" width="131" height="131"/>
				</defs>
				<clipPath id="SVGID_36_">
					<use xlink:href="#SVGID_35_" overflow="visible"/>
				</clipPath>
				<g transform="matrix(1 0 0 1 -6.122526e-006 2.228719e-005)" clip-path="url(#SVGID_36_)">
					
						<image overflow="visible" enable-background="new    " width="126" height="127" xlink:href="2CE87A6B.jpg" transform="matrix(1.0866 0 0 1.0866 382 -1071.0024)">
					</image>
				</g>
			</g>
		</g>
	</g>
	<g display="inline">
		<g>
			<g>
				<defs>
					<rect id="SVGID_37_" x="383" y="-914" width="131" height="131"/>
				</defs>
				<clipPath id="SVGID_38_">
					<use xlink:href="#SVGID_37_" overflow="visible"/>
				</clipPath>
				<g transform="matrix(1 0 0 1 1.223918e-006 -5.909918e-006)" clip-path="url(#SVGID_38_)">
					
						<image overflow="visible" enable-background="new    " width="120" height="114" xlink:href="2CE87A65.jpg" transform="matrix(1.2193 0 0 1.2193 379.001 -918.0005)">
					</image>
				</g>
			</g>
		</g>
	</g>
	<g display="inline">
		<g>
			<g>
				<defs>
					<rect id="SVGID_39_" x="384" y="-762" width="131" height="131"/>
				</defs>
				<clipPath id="SVGID_40_">
					<use xlink:href="#SVGID_39_" overflow="visible"/>
				</clipPath>
				<g transform="matrix(1 0 0 1 -1.008844e-005 1.289800e-005)" clip-path="url(#SVGID_40_)">
					
						<image overflow="visible" enable-background="new    " width="116" height="119" xlink:href="2CE87A67.jpg" transform="matrix(1.1379 0 0 1.1379 386 -764.4155)">
					</image>
				</g>
			</g>
		</g>
	</g>
	<g display="inline">
		<g>
			<g>
				<defs>
					<rect id="SVGID_41_" x="-63" y="-914" width="131" height="131"/>
				</defs>
				<clipPath id="SVGID_42_">
					<use xlink:href="#SVGID_41_" overflow="visible"/>
				</clipPath>
				<g transform="matrix(1 0 0 1 2.864846e-006 4.252262e-005)" clip-path="url(#SVGID_42_)">
					
						<image overflow="visible" enable-background="new    " width="115" height="120" xlink:href="2CE87A64.jpg" transform="matrix(1.2116 0 0 1.2116 -66.6675 -920.6982)">
					</image>
				</g>
			</g>
		</g>
	</g>
	<g display="inline">
		<g>
			<g>
				<defs>
					<rect id="SVGID_43_" x="-63" y="-762" width="131" height="131"/>
				</defs>
				<clipPath id="SVGID_44_">
					<use xlink:href="#SVGID_43_" overflow="visible"/>
				</clipPath>
				<g transform="matrix(1 0 0 1 2.260419e-006 1.544422e-005)" clip-path="url(#SVGID_44_)">
					
						<image overflow="visible" enable-background="new    " width="118" height="133" xlink:href="7D99B119.jpg" transform="matrix(1.191 0 0 1.191 -67.8467 -766.7046)">
					</image>
				</g>
			</g>
		</g>
	</g>
	<g display="inline">
		<g>
			<text transform="matrix(1 0 0 1 141.5332 -2556.9199)" fill="#00AF4C" font-family="'ArialMT'" font-size="43.0397">¿</text>
			<text transform="matrix(1 0 0 1 159.0078 -2556.9199)" font-family="'ArialMT'" font-size="43.0397">Cómo lo hacemos</text>
			<text transform="matrix(1 0 0 1 481.1992 -2556.9199)" fill="#00AF4C" font-family="'ArialMT'" font-size="43.0397">?</text>
			<text transform="matrix(1 0 0 1 498.6738 -2556.9199)" font-family="'ArialMT'" font-size="43.0397">  </text>
		</g>
		<g>
			<path fill="#5B5B5B" d="M357.018-2525.763c-0.447,0-0.885-0.139-1.3-0.411c-0.464-0.32-0.698-0.687-0.698-1.108v-2.283h-0.023     v-9.147h-0.961v7.854h-3.971v-10.907h3.971v0.77c0.658-0.515,1.646-0.77,2.963-0.77c1.313,0,1.975,0.511,1.975,1.54v11.433h4.98     v3.033h-6.936"/>
			<line fill="none" stroke="#C1C1C1" stroke-miterlimit="10" x1="341" y1="-2535.5" x2="123" y2="-2535.5"/>
			<line fill="none" stroke="#C1C1C1" stroke-miterlimit="10" x1="589" y1="-2535.5" x2="370" y2="-2535.5"/>
		</g>
	</g>
	<g display="inline">
		<g>
			<text transform="matrix(1 0 0 1 167.25 -1872.8809)" fill="#00AF4C" font-family="'ArialMT'" font-size="43.0397">¿</text>
			<text transform="matrix(1 0 0 1 184.7236 -1872.8809)" font-family="'ArialMT'" font-size="43.0397">Quiénes Somos</text>
			<text transform="matrix(1 0 0 1 462.7559 -1872.8809)" fill="#00AF4C" font-family="'ArialMT'" font-size="43.0397">?</text>
			<text transform="matrix(1 0 0 1 480.2305 -1872.8809)" font-family="'ArialMT'" font-size="43.0397">  </text>
		</g>
		<g>
			<path fill="#5B5B5B" d="M357.801-1837.309c-0.445,0-0.883-0.137-1.299-0.41c-0.464-0.319-0.697-0.688-0.697-1.108v-2.283h-0.025     v-9.149h-0.961v7.854h-3.971v-10.909h3.971v0.77c0.658-0.514,1.646-0.77,2.961-0.77c1.313,0,1.975,0.513,1.975,1.541v11.433h4.98     v3.032L357.801-1837.309"/>
			<line fill="none" stroke="#C1C1C1" stroke-miterlimit="10" x1="342" y1="-1847.5" x2="124" y2="-1847.5"/>
			<line fill="none" stroke="#C1C1C1" stroke-miterlimit="10" x1="590" y1="-1847.5" x2="372" y2="-1847.5"/>
		</g>
	</g>
	<g display="inline">
		<path fill="#00AF4C" d="M351.173-1259.331c-8.249,0-14.937,6.687-14.937,14.938c0,8.248,6.688,14.936,14.937,14.936    c8.25,0,14.937-6.688,14.937-14.936C366.109-1252.645,359.423-1259.331,351.173-1259.331"/>
		<path fill="#FFFFFF" d="M359.833-1248.834c0.011,0.191,0.015,0.382,0.015,0.577c0,5.903-4.494,12.712-12.711,12.712    c-2.525,0-4.873-0.738-6.853-2.005c0.353,0.038,0.704,0.06,1.067,0.06c2.092,0,4.021-0.713,5.547-1.912    c-1.955-0.037-3.604-1.326-4.174-3.102c0.273,0.05,0.553,0.076,0.842,0.076c0.406,0,0.799-0.051,1.176-0.153    c-2.043-0.411-3.583-2.216-3.583-4.382c0-0.018,0-0.036,0-0.055c0.603,0.334,1.292,0.533,2.022,0.559    c-1.199-0.804-1.988-2.171-1.988-3.719c0-0.819,0.223-1.589,0.604-2.247c2.204,2.703,5.496,4.481,9.209,4.667    c-0.073-0.326-0.112-0.668-0.112-1.017c0-2.471,2-4.469,4.465-4.469c1.287,0,2.449,0.546,3.261,1.413    c1.019-0.203,1.976-0.572,2.84-1.086c-0.336,1.045-1.044,1.919-1.964,2.471c0.902-0.107,1.761-0.348,2.563-0.703    C361.464-1250.251,360.706-1249.465,359.833-1248.834"/>
		<text transform="matrix(1 0 0 1 369.1016 -1236.9629)" fill="#00AF4C" font-family="'ITCAvantGardeStd-Md'" font-size="12.7564">@GHLICONA</text>
	</g>
</g>
<g id="Layer_1_1_">
</g>
<circle fill="#7A7A7A" cx="17.547" cy="17.334" r="17.334"/>
<g>
	<path fill="#7A7A7A" d="M17.157,3.231c-7.725,0-13.985,6.261-13.985,13.985S9.433,31.2,17.157,31.2   c7.725,0,13.983-6.261,13.983-13.984S24.882,3.231,17.157,3.231"/>
	<g>
		<path fill="#FFFFFF" d="M17.157,3.231c-7.725,0-13.985,6.261-13.985,13.985S9.433,31.2,17.157,31.2    c7.725,0,13.983-6.261,13.983-13.984S24.882,3.231,17.157,3.231 M20.787,12.546l-1.314,0.003c-1.033,0-1.234,0.486-1.234,1.209    v1.586H20.7l-0.317,2.485h-2.145v6.381h-2.565v-6.381h-2.146v-2.485h2.146v-1.832c0-2.129,1.297-3.286,3.196-3.286    c0.908,0,1.689,0.067,1.918,0.098V12.546L20.787,12.546z"/>
	</g>
</g>
<g>
	<path fill="#7A7A7A" d="M17.347,3.231c-7.725,0-13.985,6.26-13.985,13.985c0,7.724,6.261,13.984,13.985,13.984   c7.723,0,13.985-6.263,13.985-13.984C31.332,9.491,25.07,3.231,17.347,3.231"/>
	<g>
		<path fill="#FFFFFF" d="M17.347,3.231c-7.725,0-13.985,6.26-13.985,13.985c0,7.724,6.261,13.984,13.985,13.984    c7.723,0,13.985-6.263,13.985-13.984C31.332,9.491,25.07,3.231,17.347,3.231 M22.908,14.365c0.005,0.122,0.009,0.244,0.009,0.37    c0,3.791-2.888,8.164-8.163,8.164c-1.621,0-3.129-0.476-4.4-1.287c0.227,0.025,0.452,0.037,0.685,0.037    c1.344,0,2.581-0.457,3.564-1.229c-1.257-0.021-2.315-0.854-2.68-1.99c0.174,0.031,0.353,0.051,0.539,0.051    c0.26,0,0.513-0.035,0.755-0.102c-1.313-0.266-2.3-1.424-2.3-2.813c0,0,0-0.022,0-0.035c0.387,0.214,0.828,0.344,1.299,0.359    c-0.77-0.518-1.277-1.396-1.277-2.389c0-0.526,0.14-1.021,0.388-1.442c1.415,1.735,3.531,2.877,5.913,2.996    c-0.05-0.209-0.073-0.428-0.073-0.652c0-1.586,1.283-2.87,2.87-2.87c0.822,0,1.568,0.352,2.093,0.907    c0.653-0.13,1.269-0.367,1.823-0.697c-0.217,0.672-0.672,1.232-1.264,1.587c0.58-0.066,1.135-0.223,1.647-0.449    C23.957,13.455,23.468,13.961,22.908,14.365"/>
	</g>
</g>
<g>
	<g>
		<g>
			<path fill="#7A7A7A" d="M17.225,3.231C9.503,3.231,3.24,9.492,3.24,17.217s6.264,13.984,13.985,13.984     c7.725,0,13.984-6.262,13.984-13.984C31.209,9.492,24.949,3.231,17.225,3.231"/>
		</g>
	</g>
	<g>
		<path fill="#FFFFFF" d="M17.241,19.917c1.483,0,2.688-1.202,2.688-2.685c0-1.481-1.205-2.684-2.688-2.684    c-1.486,0-2.688,1.201-2.688,2.684S15.755,19.917,17.241,19.917"/>
		<path fill="#FFFFFF" d="M20.339,14.484h1.89c0.215,0,0.396-0.175,0.396-0.391v-1.888c0-0.214-0.181-0.391-0.396-0.391h-1.89    c-0.216,0-0.394,0.177-0.394,0.391v1.888C19.945,14.311,20.123,14.484,20.339,14.484"/>
		<path fill="#FFFFFF" d="M17.225,3.231C9.503,3.231,3.24,9.492,3.24,17.217s6.264,13.984,13.985,13.984    c7.725,0,13.984-6.262,13.984-13.984C31.209,9.492,24.949,3.231,17.225,3.231 M24.217,22.551c0,0.916-0.742,1.659-1.662,1.659    H11.894c-0.915,0-1.662-0.743-1.662-1.659V11.885c0-0.917,0.747-1.659,1.662-1.659h10.661c0.92,0,1.662,0.742,1.662,1.659V22.551z    "/>
		<path fill="#FFFFFF" d="M21.496,17.232c0,2.34-1.91,4.245-4.255,4.245c-2.347,0-4.254-1.904-4.254-4.245    c0-0.389,0.053-0.766,0.151-1.123H11.83v6.083c0,0.215,0.175,0.391,0.391,0.391h10.042c0.215,0,0.391-0.176,0.391-0.391v-6.083    h-1.309C21.443,16.468,21.496,16.845,21.496,17.232"/>
	</g>
</g>
<g>
	<g>
		<path fill="#7A7A7A" d="M17.216,3.365C9.63,3.365,3.481,9.514,3.481,17.1c0,7.585,6.149,13.737,13.735,13.737    s13.735-6.149,13.735-13.735C30.951,9.516,24.803,3.365,17.216,3.365"/>
	</g>
	<g>
		<path fill="#FFFFFF" d="M17.216,3.365C9.63,3.365,3.481,9.514,3.481,17.1c0,7.585,6.149,13.737,13.735,13.737    s13.735-6.149,13.735-13.735C30.951,9.516,24.803,3.365,17.216,3.365 M24.084,17.619c0,1.111-0.139,2.225-0.139,2.225    s-0.135,0.946-0.547,1.362c-0.521,0.547-1.107,0.55-1.377,0.58c-1.918,0.142-4.807,0.144-4.807,0.144s-3.571-0.031-4.671-0.136    c-0.306-0.06-0.994-0.041-1.515-0.588c-0.413-0.416-0.544-1.362-0.544-1.362s-0.138-1.111-0.138-2.225v-1.043    c0-1.109,0.138-2.222,0.138-2.222s0.131-0.949,0.544-1.363c0.521-0.549,1.108-0.551,1.377-0.582c1.922-0.14,4.805-0.14,4.805-0.14    h0.006c0,0,2.885,0,4.805,0.14c0.269,0.031,0.854,0.033,1.377,0.582c0.412,0.414,0.547,1.363,0.547,1.363s0.138,1.111,0.138,2.222    L24.084,17.619L24.084,17.619z"/>
		<polygon fill="#FFFFFF" points="15.799,18.884 19.508,16.961 15.796,15.021   "/>
	</g>
</g>
<g>
	<path fill="#7A7A7A" d="M17.314,3.115C9.593,3.115,3.329,9.377,3.329,17.1c0,7.722,6.264,13.985,13.985,13.985   c7.727,0,13.985-6.263,13.985-13.985C31.299,9.377,25.041,3.115,17.314,3.115"/>
</g>
<path fill="#FFFFFF" d="M17.314,3.115C9.593,3.115,3.329,9.377,3.329,17.1c0,7.722,6.264,13.985,13.985,13.985  c7.727,0,13.985-6.263,13.985-13.985C31.299,9.377,25.041,3.115,17.314,3.115 M17.314,24.094c-3.855,0-6.993-3.138-6.993-6.992  c0-3.856,3.138-6.992,6.993-6.992c3.858,0,6.993,3.136,6.993,6.992C24.307,20.956,21.172,24.094,17.314,24.094"/>
<path fill="#FFFFFF" d="M21.561,16.783c0-0.776-0.281-1.313-0.52-1.734c-0.318-0.518-0.618-0.956-0.618-1.475  c0-0.579,0.44-1.115,1.056-1.115c0.029,0,0.057,0.006,0.082,0.007c-1.117-1.025-2.605-1.653-4.246-1.653  c-2.196,0-4.126,1.128-5.251,2.834c0.148,0.006,0.286,0.008,0.405,0.008c0.656,0,1.677-0.079,1.677-0.079  c0.335-0.019,0.379,0.478,0.041,0.519c0,0-0.344,0.04-0.72,0.061l2.289,6.811l1.376-4.126l-0.983-2.685  c-0.338-0.021-0.656-0.061-0.656-0.061c-0.341-0.021-0.3-0.536,0.038-0.519c0,0,1.038,0.079,1.656,0.079  c0.656,0,1.676-0.079,1.676-0.079c0.339-0.019,0.38,0.478,0.041,0.519c0,0-0.34,0.04-0.719,0.061l2.271,6.758l0.627-2.096  C21.354,17.944,21.561,17.319,21.561,16.783"/>
<path fill="#FFFFFF" d="M11.03,17.102c0,2.488,1.446,4.64,3.54,5.657l-2.998-8.217C11.225,15.322,11.03,16.188,11.03,17.102"/>
<path fill="#FFFFFF" d="M17.425,17.648l-1.887,5.482c0.565,0.166,1.161,0.257,1.776,0.257c0.735,0,1.438-0.128,2.09-0.355  c-0.016-0.027-0.034-0.055-0.047-0.088L17.425,17.648z"/>
<path fill="#FFFFFF" d="M20.475,22.533c1.873-1.09,3.129-3.113,3.129-5.433c0-1.094-0.279-2.123-0.771-3.016  c0.025,0.198,0.044,0.415,0.044,0.646c0,0.638-0.12,1.355-0.479,2.251L20.475,22.533z"/>
</svg>