<?xml version="1.0" encoding="UTF-8"?>
<!-- Generator: Adobe Illustrator 16.0.0, SVG Export Plug-In . SVG Version: 6.00 Build 0)  -->
<!DOCTYPE svg PUBLIC "-//W3C//DTD SVG 1.1//EN" "http://www.w3.org/Graphics/SVG/1.1/DTD/svg11.dtd">
<svg version="1.1" id="Layer_1" xmlns="http://www.w3.org/2000/svg" xmlns:xlink="http://www.w3.org/1999/xlink" x="0px" y="0px" width="34.875px" height="35px" viewBox="0 0 34.875 35" enable-background="new 0 0 34.875 35" xml:space="preserve">
<circle fill="#7A7A7A" cx="17.547" cy="17.334" r="17.334"/>
<g>
	<path fill="#7A7A7A" d="M17.157,3.232c-7.725,0-13.985,6.261-13.985,13.985c0,7.725,6.261,13.985,13.985,13.985   c7.725,0,13.983-6.261,13.983-13.985C31.141,9.493,24.882,3.232,17.157,3.232"/>
	<g>
		<path fill="#FFFFFF" d="M17.157,3.232c-7.725,0-13.985,6.261-13.985,13.985c0,7.725,6.261,13.985,13.985,13.985    c7.725,0,13.983-6.261,13.983-13.985C31.141,9.493,24.882,3.232,17.157,3.232 M20.787,12.546l-1.314,0.003    c-1.033,0-1.234,0.487-1.234,1.209v1.586h2.461l-0.317,2.486h-2.144v6.38h-2.566v-6.38h-2.146v-2.486h2.146v-1.832    c0-2.129,1.297-3.286,3.196-3.286c0.909,0,1.69,0.067,1.918,0.098L20.787,12.546L20.787,12.546z"/>
	</g>
</g>
<g>
	<path fill="#7A7A7A" d="M17.347,3.232c-7.725,0-13.985,6.26-13.985,13.985c0,7.723,6.261,13.985,13.985,13.985   c7.723,0,13.985-6.263,13.985-13.985C31.332,9.492,25.07,3.232,17.347,3.232"/>
	<g>
		<path fill="#FFFFFF" d="M17.347,3.232c-7.725,0-13.985,6.26-13.985,13.985c0,7.723,6.261,13.985,13.985,13.985    c7.723,0,13.985-6.263,13.985-13.985C31.332,9.492,25.07,3.232,17.347,3.232 M22.908,14.366c0.005,0.122,0.009,0.244,0.009,0.37    c0,3.792-2.888,8.163-8.163,8.163c-1.621,0-3.129-0.475-4.4-1.285c0.227,0.023,0.452,0.035,0.685,0.035    c1.344,0,2.581-0.457,3.564-1.228c-1.257-0.022-2.315-0.853-2.68-1.991c0.174,0.032,0.353,0.051,0.539,0.051    c0.26,0,0.513-0.033,0.755-0.101c-1.313-0.264-2.3-1.423-2.3-2.813c0,0,0-0.023,0-0.035c0.387,0.214,0.828,0.343,1.299,0.359    c-0.77-0.517-1.277-1.395-1.277-2.389c0-0.526,0.14-1.021,0.388-1.442c1.415,1.735,3.531,2.877,5.913,2.996    c-0.05-0.209-0.073-0.428-0.073-0.652c0-1.586,1.283-2.87,2.87-2.87c0.822,0,1.568,0.351,2.093,0.907    c0.653-0.13,1.269-0.367,1.823-0.697c-0.217,0.672-0.672,1.232-1.264,1.587c0.58-0.067,1.135-0.223,1.648-0.45    C23.957,13.456,23.468,13.961,22.908,14.366"/>
	</g>
</g>
</svg>