<?xml version="1.0" encoding="UTF-8"?>
<!-- Generator: Adobe Illustrator 16.0.0, SVG Export Plug-In . SVG Version: 6.00 Build 0)  -->
<!DOCTYPE svg PUBLIC "-//W3C//DTD SVG 1.1//EN" "http://www.w3.org/Graphics/SVG/1.1/DTD/svg11.dtd">
<svg version="1.1" id="Layer_1" xmlns="http://www.w3.org/2000/svg" xmlns:xlink="http://www.w3.org/1999/xlink" x="0px" y="0px" width="34.875px" height="35px" viewBox="0 0 34.875 35" enable-background="new 0 0 34.875 35" xml:space="preserve">
<g id="quiosco">
</g>
<g id="_x31_" display="none">
	<g display="inline">
		
			<image overflow="visible" opacity="0.3" enable-background="new    " width="876" height="440" xlink:href="41F46B04.png" transform="matrix(1 0 0 1 -63 -3883.999)">
		</image>
		<g>
			
				<linearGradient id="SVGID_1_" gradientUnits="userSpaceOnUse" x1="17.7695" y1="3596.5098" x2="655.7692" y2="4080.5095" gradientTransform="matrix(1 0 0 -1 91.0098 122.4004)">
				<stop offset="0" style="stop-color:#050D9E"/>
				<stop offset="0.405" style="stop-color:#03547A"/>
				<stop offset="0.8099" style="stop-color:#019558"/>
				<stop offset="1" style="stop-color:#00AE4B"/>
			</linearGradient>
			<rect x="-53" y="-3872" fill="url(#SVGID_1_)" width="840" height="404"/>
		</g>
	</g>
	<polygon display="inline" fill="#F9F9F9" points="420.884,-3872 -53,-3872 -53,-3468 732.488,-3468  "/>
	<g display="inline">
		<g>
			<rect x="-33.627" y="-3642.218" fill="none" width="413.627" height="107.218"/>
			<text transform="matrix(1 0 0 1 -33.627 -3632.7734)" font-family="'ArialMT'" font-size="13.3033">Es</text>
			<text transform="matrix(1 0 0 1 -21.814 -3632.7734)" font-family="'ArialMT'" font-size="13.3033"> </text>
			<text transform="matrix(1 0 0 1 -19.1382 -3632.7734)" font-family="'ArialMT'" font-size="13.3033">un</text>
			<text transform="matrix(1 0 0 1 -4.4238 -3632.7734)" font-family="'ArialMT'" font-size="13.3033"> </text>
			<text transform="matrix(1 0 0 1 -1.748 -3632.7734)" font-family="'ArialMT'" font-size="13.3033">organismo</text>
			<text transform="matrix(1 0 0 1 57.916 -3632.7734)" font-family="'ArialMT'" font-size="13.3033"> </text>
			<text transform="matrix(1 0 0 1 60.5918 -3632.7734)" font-family="'ArialMT'" font-size="13.3033">público</text>
			<text transform="matrix(1 0 0 1 102.5771 -3632.7734)" font-family="'ArialMT'" font-size="13.3033"> </text>
			<text transform="matrix(1 0 0 1 105.2529 -3632.7734)" font-family="'ArialMT'" font-size="13.3033">descentralizado</text>
			<text transform="matrix(1 0 0 1 193.0273 -3632.7734)" font-family="'ArialMT'" font-size="13.3033"> </text>
			<text transform="matrix(1 0 0 1 195.7041 -3632.7734)" font-family="'ArialMT'" font-size="13.3033">de</text>
			<text transform="matrix(1 0 0 1 209.8721 -3632.7734)" font-family="'ArialMT'" font-size="13.3033"> </text>
			<text transform="matrix(1 0 0 1 212.5479 -3632.7734)" font-family="'ArialMT'" font-size="13.3033">la</text>
			<text transform="matrix(1 0 0 1 222.0996 -3632.7734)" font-family="'ArialMT'" font-size="13.3033"> </text>
			<text transform="matrix(1 0 0 1 224.7754 -3632.7734)" font-family="'ArialMT'" font-size="13.3033">Administración</text>
			<text transform="matrix(1 0 0 1 309.3164 -3632.7734)" font-family="'ArialMT'" font-size="13.3033"> </text>
			<text transform="matrix(1 0 0 1 311.9932 -3632.7734)" font-family="'ArialMT'" font-size="13.3033">Pública</text>
			<text transform="matrix(1 0 0 1 352.5938 -3632.7734)" font-family="'ArialMT'" font-size="13.3033"> </text>
			<text transform="matrix(1 0 0 1 355.2695 -3632.7734)" font-family="'ArialMT'" font-size="13.3033">Fed</text>
			<text transform="matrix(1 0 0 1 375.916 -3632.7734)" font-family="'ArialMT'" font-size="13.3033">-</text>
			<text transform="matrix(1 0 0 1 -33.627 -3612.7734)" font-family="'ArialMT'" font-size="13.3033">eral, con autonomía y capacidad técnica para generar información objetiva </text>
			<text transform="matrix(1 0 0 1 -33.627 -3592.7734)" font-family="'ArialMT'" font-size="13.3033">sobre la situación de la política social y la medición de la pobreza en México.</text>
		</g>
		<g>
			<g>
				<text transform="matrix(1 0 0 1 158.9355 -3503.4512)" font-family="'ArialMT'" font-size="13.8251">QUÉ HACEMOS</text>
			</g>
			<g>
				<text transform="matrix(1 0 0 1 293.4941 -3503.4512)" font-family="'ArialMT'" font-size="13.8251">CÓMO LO HACEMOS</text>
			</g>
			<g>
				<text transform="matrix(1 0 0 1 468.3008 -3503.4512)" font-family="'ArialMT'" font-size="13.8251">QUIÉNES SOMOS</text>
			</g>
		</g>
		<g>
			<text transform="matrix(1 0 0 1 47.9463 -3812.3291)" fill="#00AF4C" font-family="'ArialMT'" font-size="39.1054">Co</text>
			<text transform="matrix(1 0 0 1 92.0957 -3812.3291)" font-family="'ArialMT'" font-size="39.1054">nsejo </text>
			<text transform="matrix(1 0 0 1 188.1367 -3812.3291)" fill="#00AF4C" font-family="'ArialMT'" font-size="39.1054">N</text>
			<text transform="matrix(1 0 0 1 213.8672 -3812.3291)" font-family="'ArialMT'" font-size="39.1054">acional de </text>
			<text transform="matrix(1 0 0 1 117.9053 -3772.7793)" fill="#00AF4C" font-family="'ArialMT'" font-size="39.1054">Eval</text>
			<text transform="matrix(1 0 0 1 184.0313 -3772.7793)" font-family="'ArialMT'" font-size="39.1054">uación de la </text>
			<text transform="matrix(1 0 0 1 211.5215 -3733.2285)" font-family="'ArialMT'" font-size="39.1054">Política de </text>
			<text transform="matrix(1 0 0 1 109.8496 -3693.6797)" font-family="'ArialMT'" font-size="39.1054">Desarrollo Social</text>
			<text transform="matrix(1 0 0 1 380.5713 -3693.6797)" font-family="'ArialMT'" font-size="39.1054"> </text>
		</g>
		<g>
			<g>
				<defs>
					<rect id="SVGID_2_" x="411" y="-3837" width="332" height="269"/>
				</defs>
				<clipPath id="SVGID_3_">
					<use xlink:href="#SVGID_2_" overflow="visible"/>
				</clipPath>
				<g clip-path="url(#SVGID_3_)">
					
						<image overflow="visible" enable-background="new    " width="730" height="720" xlink:href="41F46B04.jpg" transform="matrix(0.6199 0 0 0.6199 390.1777 -3857.9775)">
					</image>
				</g>
			</g>
		</g>
		
			<line fill="none" stroke="#00AF4C" stroke-width="0.5" stroke-miterlimit="10" x1="156.792" y1="-3494.694" x2="258.885" y2="-3494.694"/>
		
			<line fill="none" stroke="#00AF4C" stroke-width="0.5" stroke-miterlimit="10" x1="313.123" y1="-3494.694" x2="415.216" y2="-3494.694"/>
		
			<line fill="none" stroke="#00AF4C" stroke-width="0.5" stroke-miterlimit="10" x1="471.578" y1="-3494.694" x2="573.673" y2="-3494.694"/>
	</g>
</g>
<g id="_x32_" display="none">
	<g display="inline">
		<g>
			<rect x="-9.627" y="-3587.218" fill="none" width="762.35" height="61.805"/>
			<text transform="matrix(1 0 0 1 1.9219 -3577.7715)" font-family="'ArialMT'" font-size="13.3033">Es un organismo público descentralizado de la Administración Pública Federal, con autonomía y capacidad técnica para generar infor</text>
			<text transform="matrix(1 0 0 1 737.0977 -3577.7715)" font-family="'ArialMT'" font-size="13.3033">-</text>
			<text transform="matrix(1 0 0 1 115.3779 -3561.8086)" font-family="'ArialMT'" font-size="13.3033">mación objetiva sobre la situación de la política social y la medición de la pobreza en México.</text>
		</g>
		<g>
			<g>
				<text transform="matrix(1 0 0 1 206.4678 -3533.9219)" font-family="'ArialMT'" font-size="10.8089">QUÉ HACEMOS</text>
			</g>
			<g>
				<text transform="matrix(1 0 0 1 311.6699 -3533.9219)" font-family="'ArialMT'" font-size="10.8089">CÓMO LO HACEMOS</text>
			</g>
			<g>
				<text transform="matrix(1 0 0 1 448.3398 -3533.9219)" font-family="'ArialMT'" font-size="10.8089">QUIÉNES SOMOS</text>
			</g>
		</g>
		<g>
			<text transform="matrix(1 0 0 1 79.6426 -3793.4209)" fill="#00AF4C" font-family="'ArialMT'" font-size="36.5841">Co</text>
			<text transform="matrix(1 0 0 1 120.9463 -3793.4209)" font-family="'ArialMT'" font-size="36.5841">nsejo </text>
			<text transform="matrix(1 0 0 1 210.7949 -3793.4209)" fill="#00AF4C" font-family="'ArialMT'" font-size="36.5841">N</text>
			<text transform="matrix(1 0 0 1 234.8672 -3793.4209)" font-family="'ArialMT'" font-size="36.5841">acional </text>
			<text transform="matrix(1 0 0 1 51.6572 -3749.5195)" font-family="'ArialMT'" font-size="36.5841">de </text>
			<text transform="matrix(1 0 0 1 98.374 -3749.5195)" fill="#00AF4C" font-family="'ArialMT'" font-size="36.5841">Eval</text>
			<text transform="matrix(1 0 0 1 160.2373 -3749.5195)" font-family="'ArialMT'" font-size="36.5841">uación de la </text>
			<text transform="matrix(1 0 0 1 185.9551 -3705.6191)" font-family="'ArialMT'" font-size="36.5841">Política de </text>
			<text transform="matrix(1 0 0 1 90.8369 -3661.7178)" font-family="'ArialMT'" font-size="36.5841">Desarrollo Social</text>
			<text transform="matrix(1 0 0 1 344.1055 -3661.7178)" font-family="'ArialMT'" font-size="36.5841"> </text>
		</g>
		<g>
			
				<image overflow="visible" opacity="0.75" enable-background="new    " width="390" height="385" xlink:href="41F46B05.png" transform="matrix(1 0 0 1 388 -3866.9985)">
			</image>
			<g>
				<g>
					<g>
						<defs>
							<rect id="SVGID_4_" x="411" y="-3842" width="296" height="213"/>
						</defs>
						<clipPath id="SVGID_5_">
							<use xlink:href="#SVGID_4_" overflow="visible"/>
						</clipPath>
						<g clip-path="url(#SVGID_5_)">
							
								<image overflow="visible" enable-background="new    " width="730" height="720" xlink:href="41F46B0B.jpg" transform="matrix(0.4915 0 0 0.4915 396.7715 -3858.6338)">
							</image>
						</g>
					</g>
				</g>
			</g>
		</g>
		
			<line fill="none" stroke="#00AF4C" stroke-width="0.5" stroke-miterlimit="10" x1="204.792" y1="-3527.076" x2="284.611" y2="-3527.076"/>
		
			<line fill="none" stroke="#00AF4C" stroke-width="0.5" stroke-miterlimit="10" x1="327.018" y1="-3527.076" x2="406.836" y2="-3527.076"/>
		
			<line fill="none" stroke="#00AF4C" stroke-width="0.5" stroke-miterlimit="10" x1="450.902" y1="-3527.076" x2="530.723" y2="-3527.076"/>
	</g>
</g>
<g id="cabezal_x2F_pie">
	<circle fill="#7A7A7A" cx="17.547" cy="17.334" r="17.334"/>
	<g>
		<path fill="#7A7A7A" d="M17.157,3.232c-7.725,0-13.985,6.261-13.985,13.985c0,7.725,6.261,13.985,13.985,13.985    c7.725,0,13.983-6.261,13.983-13.985C31.141,9.493,24.882,3.232,17.157,3.232"/>
		<g>
			<path fill="#FFFFFF" d="M17.157,3.232c-7.725,0-13.985,6.261-13.985,13.985c0,7.725,6.261,13.985,13.985,13.985     c7.725,0,13.983-6.261,13.983-13.985C31.141,9.493,24.882,3.232,17.157,3.232 M20.787,12.546l-1.314,0.003     c-1.033,0-1.234,0.487-1.234,1.209v1.586h2.461l-0.317,2.486h-2.144v6.38h-2.566v-6.38h-2.146v-2.486h2.146v-1.832     c0-2.129,1.297-3.286,3.196-3.286c0.909,0,1.69,0.067,1.918,0.098L20.787,12.546L20.787,12.546z"/>
		</g>
	</g>
	<g>
		<path fill="#7A7A7A" d="M17.347,3.232c-7.725,0-13.985,6.26-13.985,13.985c0,7.723,6.261,13.985,13.985,13.985    c7.723,0,13.985-6.263,13.985-13.985C31.332,9.492,25.07,3.232,17.347,3.232"/>
		<g>
			<path fill="#FFFFFF" d="M17.347,3.232c-7.725,0-13.985,6.26-13.985,13.985c0,7.723,6.261,13.985,13.985,13.985     c7.723,0,13.985-6.263,13.985-13.985C31.332,9.492,25.07,3.232,17.347,3.232 M22.908,14.366c0.005,0.122,0.009,0.244,0.009,0.37     c0,3.792-2.888,8.163-8.163,8.163c-1.621,0-3.129-0.475-4.4-1.285c0.227,0.023,0.452,0.035,0.685,0.035     c1.344,0,2.581-0.457,3.564-1.228c-1.257-0.022-2.315-0.853-2.68-1.991c0.174,0.032,0.353,0.051,0.539,0.051     c0.26,0,0.513-0.033,0.755-0.101c-1.313-0.264-2.3-1.423-2.3-2.813c0,0,0-0.023,0-0.035c0.387,0.214,0.828,0.343,1.299,0.359     c-0.77-0.517-1.277-1.395-1.277-2.389c0-0.526,0.14-1.021,0.388-1.442c1.415,1.735,3.531,2.877,5.913,2.996     c-0.05-0.209-0.073-0.428-0.073-0.652c0-1.586,1.283-2.87,2.87-2.87c0.822,0,1.568,0.351,2.093,0.907     c0.653-0.13,1.269-0.367,1.823-0.697c-0.217,0.672-0.672,1.232-1.264,1.587c0.58-0.067,1.135-0.223,1.648-0.45     C23.957,13.456,23.468,13.961,22.908,14.366"/>
		</g>
	</g>
	<g>
		<g>
			<g>
				<path fill="#7A7A7A" d="M17.225,3.232C9.503,3.232,3.24,9.493,3.24,17.217c0,7.725,6.264,13.985,13.985,13.985      c7.725,0,13.984-6.263,13.984-13.985C31.209,9.493,24.949,3.232,17.225,3.232"/>
			</g>
		</g>
		<g>
			<path fill="#FFFFFF" d="M17.241,19.917c1.483,0,2.688-1.202,2.688-2.684s-1.205-2.684-2.688-2.684     c-1.486,0-2.688,1.201-2.688,2.684C14.553,18.715,15.755,19.917,17.241,19.917"/>
			<path fill="#FFFFFF" d="M20.339,14.485h1.89c0.215,0,0.395-0.175,0.395-0.391v-1.887c0-0.214-0.18-0.391-0.395-0.391h-1.89     c-0.216,0-0.394,0.177-0.394,0.391v1.887C19.945,14.311,20.123,14.485,20.339,14.485"/>
			<path fill="#FFFFFF" d="M17.225,3.232C9.503,3.232,3.24,9.493,3.24,17.217c0,7.725,6.264,13.985,13.985,13.985     c7.725,0,13.984-6.263,13.984-13.985C31.209,9.493,24.949,3.232,17.225,3.232 M24.217,22.551c0,0.916-0.742,1.659-1.662,1.659     H11.894c-0.915,0-1.662-0.743-1.662-1.659V11.885c0-0.917,0.747-1.659,1.662-1.659h10.661c0.92,0,1.662,0.742,1.662,1.659V22.551     z"/>
			<path fill="#FFFFFF" d="M21.496,17.233c0,2.341-1.91,4.246-4.255,4.246c-2.347,0-4.254-1.904-4.254-4.246     c0-0.389,0.053-0.766,0.151-1.123H11.83v6.082c0,0.217,0.175,0.392,0.391,0.392h10.042c0.215,0,0.391-0.175,0.391-0.392V16.11     h-1.309C21.443,16.468,21.496,16.845,21.496,17.233"/>
		</g>
	</g>
	<g>
		<g>
			<path fill="#7A7A7A" d="M17.216,3.366c-7.586,0-13.735,6.149-13.735,13.735c0,7.586,6.149,13.736,13.735,13.736     s13.735-6.149,13.735-13.735C30.951,9.516,24.803,3.366,17.216,3.366"/>
		</g>
		<g>
			<path fill="#FFFFFF" d="M17.216,3.366c-7.586,0-13.735,6.149-13.735,13.735c0,7.586,6.149,13.736,13.735,13.736     s13.735-6.149,13.735-13.735C30.951,9.516,24.803,3.366,17.216,3.366 M24.084,17.62c0,1.11-0.139,2.224-0.139,2.224     s-0.135,0.947-0.547,1.363c-0.521,0.546-1.107,0.549-1.377,0.58c-1.918,0.141-4.806,0.143-4.806,0.143s-3.571-0.031-4.671-0.136     c-0.306-0.058-0.994-0.041-1.515-0.587c-0.413-0.416-0.544-1.363-0.544-1.363s-0.138-1.111-0.138-2.224v-1.043     c0-1.11,0.138-2.222,0.138-2.222s0.131-0.949,0.544-1.363c0.521-0.549,1.108-0.551,1.377-0.582c1.922-0.14,4.805-0.14,4.805-0.14     h0.006c0,0,2.884,0,4.804,0.14c0.269,0.031,0.855,0.033,1.377,0.582c0.412,0.414,0.547,1.363,0.547,1.363     s0.138,1.111,0.138,2.222L24.084,17.62L24.084,17.62z"/>
			<polygon fill="#FFFFFF" points="15.799,18.884 19.508,16.961 15.796,15.022    "/>
		</g>
	</g>
</g>
<g id="pantallas_tamaños" display="none">
	
		<rect x="-141.5" y="-3993.5" display="inline" fill="none" stroke="#00AF4C" stroke-width="7" stroke-miterlimit="10" width="1019" height="518"/>
	
		<rect x="-141.5" y="-3259.5" display="inline" fill="none" stroke="#00AF4C" stroke-width="7" stroke-miterlimit="10" width="1019" height="518"/>
	
		<rect x="-141.5" y="-2617.5" display="inline" fill="none" stroke="#00AF4C" stroke-width="7" stroke-miterlimit="10" width="1019" height="518"/>
	
		<rect x="-141.5" y="-1980.5" display="inline" fill="none" stroke="#00AF4C" stroke-width="7" stroke-miterlimit="10" width="1019" height="518"/>
	
		<rect x="-141.5" y="-1460.5" display="inline" fill="none" stroke="#00AF4C" stroke-width="7" stroke-miterlimit="10" width="1019" height="518"/>
	
		<rect x="-141.5" y="-942.5" display="inline" fill="none" stroke="#00AF4C" stroke-width="7" stroke-miterlimit="10" width="1019" height="518"/>
	
		<rect x="-141.5" y="-425.5" display="inline" fill="none" stroke="#00AF4C" stroke-width="7" stroke-miterlimit="10" width="1019" height="518"/>
</g>
</svg>